0
SECTION
2
HEADER
9
$INSUNITS
70
4
9
$ACADVER
1
AC1014
9
$HANDSEED
5
FFFF
0
ENDSEC
0
SECTION
2
TABLES
0
TABLE
2
VPORT
5
8
100
AcDbSymbolTable
0
ENDTAB
0
TABLE
2
LTYPE
5
5
100
AcDbSymbolTable
0
LTYPE
5
14
100
AcDbSymbolTableRecord
100
AcDbLinetypeTableRecord
2
BYBLOCK
70
0
0
LTYPE
5
15
100
AcDbSymbolTableRecord
100
AcDbLinetypeTableRecord
2
BYLAYER
70
0
0
LTYPE
5
16
100
AcDbSymbolTableRecord
100
AcDbLinetypeTableRecord
2
DASHED
70
0
3
Dashed __ __ __ __ __ __ __ __ __ __ __ __ __ _
72
65
73
2
40
0.75
49
0.5
74
0
49
-0.25
74
0
0
ENDTAB
0
TABLE
2
LAYER
5
2
100
AcDbSymbolTable
70
3
0
LAYER
5
50
100
AcDbSymbolTableRecord
100
AcDbLayerTableRecord
2
1
70
0
62
7
6
DASHED
0
LAYER
5
51
100
AcDbSymbolTableRecord
100
AcDbLayerTableRecord
2
0
70
0
62
7
6
CONTINUOUS
0
ENDTAB
0
TABLE
2
STYLE
5
3
100
AcDbSymbolTable
70
1
0
STYLE
5
11
100
AcDbSymbolTableRecord
100
AcDbTextStyleTableRecord
2
STANDARD
70
0
0
ENDTAB
0
TABLE
2
VIEW
5
6
100
AcDbSymbolTable
70
0
0
ENDTAB
0
TABLE
2
UCS
5
7
100
AcDbSymbolTable
70
0
0
ENDTAB
0
TABLE
2
APPID
5
9
100
AcDbSymbolTable
70
2
0
APPID
5
12
100
AcDbSymbolTableRecord
100
AcDbRegAppTableRecord
2
ACAD
70
0
0
ENDTAB
0
TABLE
2
DIMSTYLE
5
A
100
AcDbSymbolTable
70
1
0
ENDTAB
0
TABLE
2
BLOCK_RECORD
5
1
100
AcDbSymbolTable
70
1
0
BLOCK_RECORD
5
1F
100
AcDbSymbolTableRecord
100
AcDbBlockTableRecord
2
*MODEL_SPACE
0
BLOCK_RECORD
5
1B
100
AcDbSymbolTableRecord
100
AcDbBlockTableRecord
2
*PAPER_SPACE
0
ENDTAB
0
ENDSEC
0
SECTION
2
BLOCKS
0
BLOCK
5
20
100
AcDbEntity
100
AcDbBlockBegin
2
*MODEL_SPACE
0
ENDBLK
5
21
100
AcDbEntity
100
AcDbBlockEnd
0
BLOCK
5
1C
100
AcDbEntity
100
AcDbBlockBegin
2
*PAPER_SPACE
0
ENDBLK
5
1D
100
AcDbEntity
100
AcDbBlockEnd
0
ENDSEC
0
SECTION
2
ENTITIES
0
POINT
5
100
100
AcDbEntity
8
0
100
AcDbPoint
10
-676.32565044262776
20
100
30
4.9819012087870788e-15
0
LINE
5
101
100
AcDbEntity
8
1
100
AcDbLine
10
-673.32565044262776
20
200
30
2.039326231911283e-14
11
-673.32565044262776
21
0
31
2.039326231911283e-14
0
LINE
5
102
100
AcDbEntity
8
1
100
AcDbLine
10
-673.32565044262776
20
0
30
2.039326231911283e-14
11
-679.32565044262776
21
200
31
-1.0429459901538669e-14
0
LINE
5
103
100
AcDbEntity
8
0
100
AcDbLine
10
-673.22565044262774
20
118.10000000000001
30
0
11
-679.32565044262776
21
118.10000000000001
31
0
0
LINE
5
104
100
AcDbEntity
8
1
100
AcDbLine
10
-679.32565044262776
20
200
30
-1.0429459901538669e-14
11
-673.32565044262776
21
200
31
2.039326231911283e-14
0
LINE
5
105
100
AcDbEntity
8
0
100
AcDbLine
10
-673.22565044262774
20
105.90000000000001
30
0
11
-673.22565044262774
21
118.10000000000001
31
0
0
LINE
5
106
100
AcDbEntity
8
0
100
AcDbLine
10
-679.32565044262776
20
70.099999999999994
30
0
11
-679.32565044262776
21
81.899999999999991
31
0
0
LINE
5
107
100
AcDbEntity
8
1
100
AcDbLine
10
-673.32565044262776
20
0
30
2.039326231911283e-14
11
-679.32565044262776
21
0
31
2.039326231911283e-14
0
LINE
5
108
100
AcDbEntity
8
0
100
AcDbLine
10
-673.22565044262774
20
70.099999999999994
30
0
11
-679.32565044262776
21
70.099999999999994
31
0
0
LINE
5
109
100
AcDbEntity
8
0
100
AcDbLine
10
-679.32565044262776
20
94.099999999999994
30
0
11
-679.32565044262776
21
105.90000000000001
31
0
0
LINE
5
110
100
AcDbEntity
8
0
100
AcDbLine
10
-673.22565044262774
20
94.099999999999994
30
0
11
-679.32565044262776
21
94.099999999999994
31
0
0
LINE
5
111
100
AcDbEntity
8
0
100
AcDbLine
10
-679.32565044262776
20
46.099999999999994
30
0
11
-679.32565044262776
21
57.899999999999991
31
0
0
LINE
5
112
100
AcDbEntity
8
1
100
AcDbLine
10
-676.32565044262776
20
0
30
1.5303997385602151e-14
11
-676.32565044262776
21
200
31
-5.3401949680279933e-15
0
LINE
5
113
100
AcDbEntity
8
0
100
AcDbLine
10
-679.32565044262776
20
57.899999999999991
30
0
11
-673.22565044262774
21
57.899999999999991
31
0
0
LINE
5
114
100
AcDbEntity
8
0
100
AcDbLine
10
-673.22565044262774
20
81.899999999999991
30
0
11
-673.22565044262774
21
94.099999999999994
31
0
0
LINE
5
115
100
AcDbEntity
8
0
100
AcDbLine
10
-673.22565044262774
20
33.899999999999999
30
0
11
-673.22565044262774
21
46.099999999999994
31
0
0
LINE
5
116
100
AcDbEntity
8
0
100
AcDbLine
10
-679.32565044262776
20
118.10000000000001
30
0
11
-679.32565044262776
21
120.90000000000001
31
0
0
LINE
5
117
100
AcDbEntity
8
0
100
AcDbLine
10
-679.32565044262776
20
105.90000000000001
30
0
11
-673.22565044262774
21
105.90000000000001
31
0
0
LINE
5
118
100
AcDbEntity
8
0
100
AcDbLine
10
-673.22565044262774
20
46.099999999999994
30
0
11
-679.32565044262776
21
46.099999999999994
31
0
0
LINE
5
119
100
AcDbEntity
8
0
100
AcDbLine
10
-679.32565044262776
20
0
30
2.039326231911283e-14
11
-679.32565044262776
21
9.9000000000000004
31
0
0
LINE
5
120
100
AcDbEntity
8
0
100
AcDbLine
10
-679.32565044262776
20
33.899999999999999
30
0
11
-673.22565044262774
21
33.899999999999999
31
0
0
LINE
5
121
100
AcDbEntity
8
0
100
AcDbLine
10
-679.32565044262776
20
9.9000000000000004
30
0
11
-673.22565044262774
21
9.9000000000000004
31
0
0
LINE
5
122
100
AcDbEntity
8
0
100
AcDbLine
10
-673.22565044262774
20
57.899999999999991
30
0
11
-673.22565044262774
21
70.099999999999994
31
0
0
LINE
5
123
100
AcDbEntity
8
0
100
AcDbLine
10
-673.22565044262774
20
22.100000000000001
30
0
11
-679.32565044262776
21
22.100000000000001
31
0
0
LINE
5
124
100
AcDbEntity
8
1
100
AcDbLine
10
-679.32565044262776
20
0
30
2.039326231911283e-14
11
-673.32565044262776
21
200
31
2.039326231911283e-14
0
LINE
5
125
100
AcDbEntity
8
0
100
AcDbLine
10
-679.32565044262776
20
81.899999999999991
30
0
11
-673.22565044262774
21
81.899999999999991
31
0
0
LINE
5
126
100
AcDbEntity
8
0
100
AcDbLine
10
-673.22565044262774
20
9.9000000000000004
30
0
11
-673.22565044262774
21
22.100000000000001
31
0
0
LINE
5
127
100
AcDbEntity
8
0
100
AcDbLine
10
-679.32565044262776
20
22.100000000000001
30
0
11
-679.32565044262776
21
33.899999999999999
31
0
0
LINE
5
128
100
AcDbEntity
8
0
100
AcDbLine
10
-129.08141261065688
20
5.9999999999999858
30
0
11
-129.08141261065688
21
26.499999999999986
31
0
0
LINE
5
129
100
AcDbEntity
8
0
100
AcDbLine
10
-129.08141261065688
20
30.499999999999986
30
0
11
-129.08141261065688
21
50.999999999999986
31
0
0
LINE
5
130
100
AcDbEntity
8
0
100
AcDbLine
10
-129.08141261065688
20
54.999999999999993
30
0
11
-129.08141261065688
21
75.499999999999986
31
0
0
LINE
5
131
100
AcDbEntity
8
0
100
AcDbLine
10
-129.08141261065688
20
79.5
30
0
11
-129.08141261065688
21
100
31
0
0
LINE
5
132
100
AcDbEntity
8
0
100
AcDbLine
10
-129.08141261065688
20
104
30
0
11
-129.08141261065688
21
121.0000018030405
31
0
0
LINE
5
133
100
AcDbEntity
8
0
100
AcDbLine
10
-133.08141261065688
20
2.9999999999999858
30
0
11
-133.08141261065688
21
14.249999999999988
31
0
0
LINE
5
134
100
AcDbEntity
8
0
100
AcDbLine
10
-133.08141261065688
20
18.249999999999989
30
0
11
-133.08141261065688
21
38.749999999999993
31
0
0
LINE
5
135
100
AcDbEntity
8
0
100
AcDbLine
10
-133.08141261065688
20
42.749999999999993
30
0
11
-133.08141261065688
21
63.249999999999993
31
0
0
LINE
5
136
100
AcDbEntity
8
0
100
AcDbLine
10
-133.08141261065688
20
67.25
30
0
11
-133.08141261065688
21
87.75
31
0
0
LINE
5
137
100
AcDbEntity
8
0
100
AcDbLine
10
-133.08141261065688
20
91.75
30
0
11
-133.08141261065688
21
112.25000000000001
31
0
0
LINE
5
138
100
AcDbEntity
8
0
100
AcDbLine
10
-133.08141261065688
20
116.25000000000001
30
0
11
-133.08141261065688
21
121.0000018030405
31
0
0
LINE
5
139
100
AcDbEntity
8
0
100
AcDbLine
10
-137.08141261065688
20
5.9999999999999876
30
0
11
-137.08141261065688
21
26.499999999999989
31
0
0
LINE
5
140
100
AcDbEntity
8
0
100
AcDbLine
10
-137.08141261065688
20
30.499999999999989
30
0
11
-137.08141261065688
21
51
31
0
0
LINE
5
141
100
AcDbEntity
8
0
100
AcDbLine
10
-137.08141261065688
20
55
30
0
11
-137.08141261065688
21
75.5
31
0
0
LINE
5
142
100
AcDbEntity
8
0
100
AcDbLine
10
-137.08141261065688
20
79.500000000000014
30
0
11
-137.08141261065688
21
100.00000000000001
31
0
0
LINE
5
143
100
AcDbEntity
8
0
100
AcDbLine
10
-137.00000204145908
20
103.50000180304049
30
0
11
-137.00000204145908
21
121.0000018030405
31
0
0
LINE
5
144
100
AcDbEntity
8
0
100
AcDbLine
10
-141.08141261065691
20
2.9999999999999871
30
0
11
-141.08141261065691
21
14.249999999999989
31
0
0
LINE
5
145
100
AcDbEntity
8
0
100
AcDbLine
10
-141.08141261065691
20
18.249999999999989
30
0
11
-141.08141261065691
21
38.749999999999993
31
0
0
LINE
5
146
100
AcDbEntity
8
0
100
AcDbLine
10
-141.08141261065691
20
42.749999999999993
30
0
11
-141.08141261065691
21
63.249999999999993
31
0
0
LINE
5
147
100
AcDbEntity
8
0
100
AcDbLine
10
-141.08141261065691
20
67.25
30
0
11
-141.08141261065691
21
87.75
31
0
0
LINE
5
148
100
AcDbEntity
8
0
100
AcDbLine
10
-141.08141261065691
20
91.75
30
0
11
-141.08141261065691
21
112.25000000000001
31
0
0
LINE
5
149
100
AcDbEntity
8
0
100
AcDbLine
10
-141.08141261065691
20
116.25000000000001
30
0
11
-141.00000210106373
21
121.0000018030405
31
0
0
LINE
5
150
100
AcDbEntity
8
0
100
AcDbLine
10
-145.08141261065691
20
5.9999999999999876
30
0
11
-145.08141261065691
21
26.499999999999989
31
0
0
LINE
5
151
100
AcDbEntity
8
0
100
AcDbLine
10
-145.08141261065691
20
30.499999999999989
30
0
11
-145.08141261065691
21
51
31
0
0
LINE
5
152
100
AcDbEntity
8
0
100
AcDbLine
10
-145.08141261065691
20
55
30
0
11
-145.08141261065691
21
75.5
31
0
0
LINE
5
153
100
AcDbEntity
8
0
100
AcDbLine
10
-145.08141261065691
20
79.500000000000014
30
0
11
-145.08141261065691
21
100.00000000000001
31
0
0
LINE
5
154
100
AcDbEntity
8
0
100
AcDbLine
10
-145.00000204145908
20
103.50000180304049
30
0
11
-145.00000204145908
21
121.0000018030405
31
0
0
LINE
5
155
100
AcDbEntity
8
0
100
AcDbLine
10
-149.08141261065691
20
2.9999999999999885
30
0
11
-149.08141261065691
21
14.249999999999989
31
0
0
LINE
5
156
100
AcDbEntity
8
0
100
AcDbLine
10
-149.08141261065691
20
18.249999999999989
30
0
11
-149.08141261065691
21
38.749999999999993
31
0
0
LINE
5
157
100
AcDbEntity
8
0
100
AcDbLine
10
-149.08141261065691
20
42.749999999999993
30
0
11
-149.08141261065691
21
63.249999999999993
31
0
0
LINE
5
158
100
AcDbEntity
8
0
100
AcDbLine
10
-149.08141261065691
20
67.25
30
0
11
-149.08141261065691
21
87.75
31
0
0
LINE
5
159
100
AcDbEntity
8
0
100
AcDbLine
10
-149.08141261065691
20
91.75
30
0
11
-149.08141261065691
21
112.25000000000001
31
0
0
LINE
5
160
100
AcDbEntity
8
0
100
AcDbLine
10
-149.08141261065691
20
116.25000000000001
30
0
11
-149.00000210106373
21
121.0000018030405
31
0
0
LINE
5
161
100
AcDbEntity
8
0
100
AcDbLine
10
-153.08141261065691
20
5.9999999999999893
30
0
11
-153.08141261065691
21
26.499999999999993
31
0
0
LINE
5
162
100
AcDbEntity
8
0
100
AcDbLine
10
-153.08141261065691
20
30.499999999999993
30
0
11
-153.08141261065691
21
51
31
0
0
LINE
5
163
100
AcDbEntity
8
0
100
AcDbLine
10
-153.08141261065691
20
55
30
0
11
-153.08141261065691
21
75.5
31
0
0
LINE
5
164
100
AcDbEntity
8
0
100
AcDbLine
10
-153.08141261065691
20
79.500000000000014
30
0
11
-153.08141261065691
21
100.00000000000001
31
0
0
LINE
5
165
100
AcDbEntity
8
0
100
AcDbLine
10
-153.00000204145908
20
103.50000180304049
30
0
11
-153.00000204145908
21
121.0000018030405
31
0
0
LINE
5
166
100
AcDbEntity
8
0
100
AcDbLine
10
-157.08141261065691
20
2.9999999999999893
30
0
11
-157.08141261065691
21
14.249999999999991
31
0
0
LINE
5
167
100
AcDbEntity
8
0
100
AcDbLine
10
-157.08141261065691
20
18.249999999999993
30
0
11
-157.08141261065691
21
38.749999999999993
31
0
0
LINE
5
168
100
AcDbEntity
8
0
100
AcDbLine
10
-157.08141261065691
20
42.749999999999993
30
0
11
-157.08141261065691
21
63.249999999999993
31
0
0
LINE
5
169
100
AcDbEntity
8
0
100
AcDbLine
10
-157.08141261065691
20
67.25
30
0
11
-157.08141261065691
21
87.75
31
0
0
LINE
5
170
100
AcDbEntity
8
0
100
AcDbLine
10
-157.08141261065691
20
91.75
30
0
11
-157.08141261065691
21
112.25000000000001
31
0
0
LINE
5
171
100
AcDbEntity
8
0
100
AcDbLine
10
-157.08141261065691
20
116.25000000000001
30
0
11
-157.00000210106373
21
121.0000018030405
31
0
0
LINE
5
172
100
AcDbEntity
8
0
100
AcDbLine
10
-161.08141261065691
20
5.9999999999999893
30
0
11
-161.08141261065691
21
26.499999999999993
31
0
0
LINE
5
173
100
AcDbEntity
8
0
100
AcDbLine
10
-161.08141261065691
20
30.499999999999993
30
0
11
-161.08141261065691
21
51
31
0
0
LINE
5
174
100
AcDbEntity
8
0
100
AcDbLine
10
-161.08141261065691
20
55
30
0
11
-161.08141261065691
21
75.5
31
0
0
LINE
5
175
100
AcDbEntity
8
0
100
AcDbLine
10
-161.08141261065691
20
79.500000000000014
30
0
11
-161.08141261065691
21
100.00000000000001
31
0
0
LINE
5
176
100
AcDbEntity
8
0
100
AcDbLine
10
-161.00000204145911
20
103.50000180304049
30
0
11
-161.00000204145911
21
121.0000018030405
31
0
0
LINE
5
177
100
AcDbEntity
8
0
100
AcDbLine
10
-165.08141261065688
20
2.9999999999999902
30
0
11
-165.08141261065688
21
14.249999999999991
31
0
0
LINE
5
178
100
AcDbEntity
8
0
100
AcDbLine
10
-165.08141261065688
20
18.249999999999993
30
0
11
-165.08141261065688
21
38.749999999999993
31
0
0
LINE
5
179
100
AcDbEntity
8
0
100
AcDbLine
10
-165.08141261065688
20
42.749999999999993
30
0
11
-165.08141261065688
21
63.249999999999993
31
0
0
LINE
5
180
100
AcDbEntity
8
0
100
AcDbLine
10
-165.08141261065688
20
67.25
30
0
11
-165.08141261065688
21
87.75
31
0
0
LINE
5
181
100
AcDbEntity
8
0
100
AcDbLine
10
-165.08141261065688
20
91.75
30
0
11
-165.08141261065688
21
112.25000000000001
31
0
0
LINE
5
182
100
AcDbEntity
8
0
100
AcDbLine
10
-165.08141261065688
20
116.25000000000001
30
0
11
-165.00000210106373
21
121.0000018030405
31
0
0
LINE
5
183
100
AcDbEntity
8
0
100
AcDbLine
10
-169.08141261065686
20
5.999999999999992
30
0
11
-169.08141261065686
21
26.499999999999993
31
0
0
LINE
5
184
100
AcDbEntity
8
0
100
AcDbLine
10
-169.08141261065686
20
30.499999999999993
30
0
11
-169.08141261065686
21
51
31
0
0
LINE
5
185
100
AcDbEntity
8
0
100
AcDbLine
10
-169.08141261065686
20
55
30
0
11
-169.08141261065686
21
75.5
31
0
0
LINE
5
186
100
AcDbEntity
8
0
100
AcDbLine
10
-169.08141261065686
20
79.500000000000014
30
0
11
-169.08141261065686
21
100.00000000000001
31
0
0
LINE
5
187
100
AcDbEntity
8
0
100
AcDbLine
10
-169.00000204145908
20
103.50000180304049
30
0
11
-169.00000204145908
21
121.0000018030405
31
0
0
LINE
5
188
100
AcDbEntity
8
0
100
AcDbLine
10
-173.08141261065686
20
2.9999999999999916
30
0
11
-173.08141261065686
21
14.249999999999993
31
0
0
LINE
5
189
100
AcDbEntity
8
0
100
AcDbLine
10
-173.08141261065686
20
18.249999999999993
30
0
11
-173.08141261065686
21
38.749999999999993
31
0
0
LINE
5
190
100
AcDbEntity
8
0
100
AcDbLine
10
-173.08141261065686
20
42.749999999999993
30
0
11
-173.08141261065686
21
63.249999999999993
31
0
0
LINE
5
191
100
AcDbEntity
8
0
100
AcDbLine
10
-173.08141261065686
20
67.25
30
0
11
-173.08141261065686
21
87.75
31
0
0
LINE
5
192
100
AcDbEntity
8
0
100
AcDbLine
10
-173.08141261065686
20
91.75
30
0
11
-173.08141261065686
21
112.25000000000001
31
0
0
LINE
5
193
100
AcDbEntity
8
0
100
AcDbLine
10
-173.08141261065686
20
116.25000000000001
30
0
11
-173.00000210106367
21
121.0000018030405
31
0
0
LINE
5
194
100
AcDbEntity
8
0
100
AcDbLine
10
-177.08141261065686
20
5.999999999999992
30
0
11
-177.08141261065686
21
26.499999999999993
31
0
0
LINE
5
195
100
AcDbEntity
8
0
100
AcDbLine
10
-177.08141261065686
20
30.499999999999993
30
0
11
-177.08141261065686
21
51
31
0
0
LINE
5
196
100
AcDbEntity
8
0
100
AcDbLine
10
-177.08141261065686
20
55
30
0
11
-177.08141261065686
21
75.5
31
0
0
LINE
5
197
100
AcDbEntity
8
0
100
AcDbLine
10
-177.08141261065686
20
79.500000000000014
30
0
11
-177.08141261065686
21
100.00000000000001
31
0
0
LINE
5
198
100
AcDbEntity
8
0
100
AcDbLine
10
-177.00000204145906
20
103.50000180304049
30
0
11
-177.00000204145906
21
121.0000018030405
31
0
0
LINE
5
199
100
AcDbEntity
8
0
100
AcDbLine
10
-181.08141261065683
20
2.9999999999999929
30
0
11
-181.08141261065683
21
14.249999999999993
31
0
0
LINE
5
200
100
AcDbEntity
8
0
100
AcDbLine
10
-181.08141261065683
20
18.249999999999993
30
0
11
-181.08141261065683
21
38.749999999999993
31
0
0
LINE
5
201
100
AcDbEntity
8
0
100
AcDbLine
10
-181.08141261065683
20
42.749999999999993
30
0
11
-181.08141261065683
21
63.249999999999993
31
0
0
LINE
5
202
100
AcDbEntity
8
0
100
AcDbLine
10
-181.08141261065683
20
67.25
30
0
11
-181.08141261065683
21
87.75
31
0
0
LINE
5
203
100
AcDbEntity
8
0
100
AcDbLine
10
-181.08141261065683
20
91.75
30
0
11
-181.08141261065683
21
112.25000000000001
31
0
0
LINE
5
204
100
AcDbEntity
8
0
100
AcDbLine
10
-181.08141261065683
20
116.25000000000001
30
0
11
-181.00000210106367
21
121.0000018030405
31
0
0
LINE
5
205
100
AcDbEntity
8
0
100
AcDbLine
10
-185.0814126106568
20
5.9999999999999947
30
0
11
-185.0814126106568
21
26.499999999999993
31
0
0
LINE
5
206
100
AcDbEntity
8
0
100
AcDbLine
10
-185.0814126106568
20
30.499999999999993
30
0
11
-185.0814126106568
21
51
31
0
0
LINE
5
207
100
AcDbEntity
8
0
100
AcDbLine
10
-185.0814126106568
20
55
30
0
11
-185.0814126106568
21
75.5
31
0
0
LINE
5
208
100
AcDbEntity
8
0
100
AcDbLine
10
-185.0814126106568
20
79.500000000000014
30
0
11
-185.0814126106568
21
100.00000000000001
31
0
0
LINE
5
209
100
AcDbEntity
8
0
100
AcDbLine
10
-185.00000204145903
20
103.50000180304049
30
0
11
-185.00000204145903
21
121.0000018030405
31
0
0
LINE
5
210
100
AcDbEntity
8
0
100
AcDbLine
10
-189.0814126106568
20
2.9999999999999938
30
0
11
-189.0814126106568
21
14.249999999999996
31
0
0
LINE
5
211
100
AcDbEntity
8
0
100
AcDbLine
10
-189.0814126106568
20
18.249999999999996
30
0
11
-189.0814126106568
21
38.75
31
0
0
LINE
5
212
100
AcDbEntity
8
0
100
AcDbLine
10
-189.0814126106568
20
42.75
30
0
11
-189.0814126106568
21
63.250000000000014
31
0
0
LINE
5
213
100
AcDbEntity
8
0
100
AcDbLine
10
-189.0814126106568
20
67.250000000000014
30
0
11
-189.0814126106568
21
87.750000000000028
31
0
0
LINE
5
214
100
AcDbEntity
8
0
100
AcDbLine
10
-189.0814126106568
20
91.750000000000028
30
0
11
-189.0814126106568
21
112.25000000000003
31
0
0
LINE
5
215
100
AcDbEntity
8
0
100
AcDbLine
10
-189.0814126106568
20
116.25000000000003
30
0
11
-189.00000210106361
21
121.00000180304052
31
0
0
LINE
5
216
100
AcDbEntity
8
0
100
AcDbLine
10
-193.0814126106568
20
5.9999999999999947
30
0
11
-193.0814126106568
21
26.499999999999993
31
0
0
LINE
5
217
100
AcDbEntity
8
0
100
AcDbLine
10
-193.0814126106568
20
30.499999999999993
30
0
11
-193.0814126106568
21
51
31
0
0
LINE
5
218
100
AcDbEntity
8
0
100
AcDbLine
10
-193.0814126106568
20
55
30
0
11
-193.0814126106568
21
75.5
31
0
0
LINE
5
219
100
AcDbEntity
8
0
100
AcDbLine
10
-193.0814126106568
20
79.500000000000014
30
0
11
-193.0814126106568
21
100.00000000000001
31
0
0
LINE
5
220
100
AcDbEntity
8
0
100
AcDbLine
10
-193.000002041459
20
103.50000180304049
30
0
11
-193.000002041459
21
121.0000018030405
31
0
0
LINE
5
221
100
AcDbEntity
8
0
100
AcDbLine
10
-197.08141261065677
20
2.9999999999999947
30
0
11
-197.08141261065677
21
14.249999999999996
31
0
0
LINE
5
222
100
AcDbEntity
8
0
100
AcDbLine
10
-197.08141261065677
20
18.249999999999996
30
0
11
-197.08141261065677
21
38.75
31
0
0
LINE
5
223
100
AcDbEntity
8
0
100
AcDbLine
10
-197.08141261065677
20
42.75
30
0
11
-197.08141261065677
21
63.250000000000014
31
0
0
LINE
5
224
100
AcDbEntity
8
0
100
AcDbLine
10
-197.08141261065677
20
67.250000000000014
30
0
11
-197.08141261065677
21
87.750000000000028
31
0
0
LINE
5
225
100
AcDbEntity
8
0
100
AcDbLine
10
-197.08141261065677
20
91.750000000000028
30
0
11
-197.08141261065677
21
112.25000000000003
31
0
0
LINE
5
226
100
AcDbEntity
8
0
100
AcDbLine
10
-197.08141261065677
20
116.25000000000003
30
0
11
-197.00000210106361
21
121.00000180304052
31
0
0
LINE
5
227
100
AcDbEntity
8
0
100
AcDbLine
10
-201.08141261065674
20
5.9999999999999964
30
0
11
-201.08141261065674
21
26.5
31
0
0
LINE
5
228
100
AcDbEntity
8
0
100
AcDbLine
10
-201.08141261065674
20
30.5
30
0
11
-201.08141261065674
21
51
31
0
0
LINE
5
229
100
AcDbEntity
8
0
100
AcDbLine
10
-201.08141261065674
20
55
30
0
11
-201.08141261065674
21
75.5
31
0
0
LINE
5
230
100
AcDbEntity
8
0
100
AcDbLine
10
-201.08141261065674
20
79.500000000000014
30
0
11
-201.08141261065674
21
100.00000000000001
31
0
0
LINE
5
231
100
AcDbEntity
8
0
100
AcDbLine
10
-201.00000204145897
20
103.50000180304049
30
0
11
-201.00000204145897
21
121.0000018030405
31
0
0
LINE
5
232
100
AcDbEntity
8
0
100
AcDbLine
10
-205.08141261065674
20
2.999999999999996
30
0
11
-205.08141261065674
21
14.249999999999998
31
0
0
LINE
5
233
100
AcDbEntity
8
0
100
AcDbLine
10
-205.08141261065674
20
18.249999999999996
30
0
11
-205.08141261065674
21
38.75
31
0
0
LINE
5
234
100
AcDbEntity
8
0
100
AcDbLine
10
-205.08141261065674
20
42.75
30
0
11
-205.08141261065674
21
63.250000000000014
31
0
0
LINE
5
235
100
AcDbEntity
8
0
100
AcDbLine
10
-205.08141261065674
20
67.250000000000014
30
0
11
-205.08141261065674
21
87.750000000000028
31
0
0
LINE
5
236
100
AcDbEntity
8
0
100
AcDbLine
10
-205.08141261065674
20
91.750000000000028
30
0
11
-205.08141261065674
21
112.25000000000003
31
0
0
LINE
5
237
100
AcDbEntity
8
0
100
AcDbLine
10
-205.08141261065674
20
116.25000000000003
30
0
11
-205.00000210106356
21
121.00000180304052
31
0
0
LINE
5
238
100
AcDbEntity
8
0
100
AcDbLine
10
-209.08141261065674
20
5.9999999999999964
30
0
11
-209.08141261065674
21
26.5
31
0
0
LINE
5
239
100
AcDbEntity
8
0
100
AcDbLine
10
-209.08141261065674
20
30.5
30
0
11
-209.08141261065674
21
51
31
0
0
LINE
5
240
100
AcDbEntity
8
0
100
AcDbLine
10
-209.08141261065674
20
55
30
0
11
-209.08141261065674
21
75.5
31
0
0
LINE
5
241
100
AcDbEntity
8
0
100
AcDbLine
10
-209.08141261065674
20
79.500000000000014
30
0
11
-209.08141261065674
21
100.00000000000001
31
0
0
LINE
5
242
100
AcDbEntity
8
0
100
AcDbLine
10
-209.00000204145894
20
103.50000180304049
30
0
11
-209.00000204145894
21
121.0000018030405
31
0
0
LINE
5
243
100
AcDbEntity
8
0
100
AcDbLine
10
-507.24423783197074
20
30.499999999999986
30
0
11
-507.24423783197074
21
50.999999999999986
31
0
0
LINE
5
244
100
AcDbEntity
8
0
100
AcDbLine
10
-515.24423783197085
20
79.500000000000014
30
0
11
-515.24423783197085
21
100.00000000000001
31
0
0
LINE
5
245
100
AcDbEntity
8
0
100
AcDbLine
10
-571.24423783197062
20
55
30
0
11
-571.24423783197062
21
75.5
31
0
0
LINE
5
246
100
AcDbEntity
8
0
100
AcDbLine
10
-587.24423783197062
20
30.5
30
0
11
-587.24423783197062
21
51
31
0
0
LINE
5
247
100
AcDbEntity
8
0
100
AcDbLine
10
-531.24423783197085
20
79.500000000000014
30
0
11
-531.24423783197085
21
100.00000000000001
31
0
0
LINE
5
248
100
AcDbEntity
8
0
100
AcDbLine
10
-579.24423783197062
20
30.5
30
0
11
-579.24423783197062
21
51
31
0
0
LINE
5
249
100
AcDbEntity
8
0
100
AcDbLine
10
-587.24423783197062
20
79.500000000000014
30
0
11
-587.24423783197062
21
100.00000000000001
31
0
0
LINE
5
250
100
AcDbEntity
8
0
100
AcDbLine
10
-579.24423783197062
20
55
30
0
11
-579.24423783197062
21
75.5
31
0
0
LINE
5
251
100
AcDbEntity
8
0
100
AcDbLine
10
-519.24423783197074
20
67.25
30
0
11
-519.24423783197074
21
87.75
31
0
0
LINE
5
252
100
AcDbEntity
8
0
100
AcDbLine
10
-579.24423783197062
20
105.20000000000002
30
0
11
-579.24423783197062
21
120.70000000000002
31
0
0
LINE
5
253
100
AcDbEntity
8
0
100
AcDbLine
10
-571.24423783197062
20
105.20000000000002
30
0
11
-571.24423783197062
21
120.70000000000002
31
0
0
LINE
5
254
100
AcDbEntity
8
0
100
AcDbLine
10
-587.24423783197062
20
5.9999999999999964
30
0
11
-587.24423783197062
21
26.5
31
0
0
LINE
5
255
100
AcDbEntity
8
0
100
AcDbLine
10
-587.24423783197062
20
55
30
0
11
-587.24423783197062
21
75.5
31
0
0
LINE
5
256
100
AcDbEntity
8
0
100
AcDbLine
10
-515.24423783197085
20
55
30
0
11
-515.24423783197085
21
75.5
31
0
0
LINE
5
257
100
AcDbEntity
8
0
100
AcDbLine
10
-559.24423783197074
20
91.75
30
0
11
-559.24423783197074
21
112.25000000000001
31
0
0
LINE
5
258
100
AcDbEntity
8
0
100
AcDbLine
10
-515.24423783197085
20
5.9999999999999876
30
0
11
-515.24423783197085
21
26.499999999999989
31
0
0
LINE
5
259
100
AcDbEntity
8
0
100
AcDbLine
10
-519.24423783197074
20
18.249999999999989
30
0
11
-519.24423783197074
21
38.749999999999993
31
0
0
LINE
5
260
100
AcDbEntity
8
0
100
AcDbLine
10
-527.24423783197085
20
18.249999999999989
30
0
11
-527.24423783197085
21
38.749999999999993
31
0
0
LINE
5
261
100
AcDbEntity
8
0
100
AcDbLine
10
-519.24423783197074
20
42.749999999999993
30
0
11
-519.24423783197074
21
63.249999999999993
31
0
0
LINE
5
262
100
AcDbEntity
8
0
100
AcDbLine
10
-523.24423783197074
20
5.9999999999999876
30
0
11
-523.24423783197074
21
26.499999999999989
31
0
0
LINE
5
263
100
AcDbEntity
8
0
100
AcDbLine
10
-535.24423783197085
20
42.749999999999993
30
0
11
-535.24423783197085
21
63.249999999999993
31
0
0
LINE
5
264
100
AcDbEntity
8
0
100
AcDbLine
10
-511.24423783197074
20
18.249999999999989
30
0
11
-511.24423783197074
21
38.749999999999993
31
0
0
LINE
5
265
100
AcDbEntity
8
0
100
AcDbLine
10
-575.24423783197062
20
91.750000000000028
30
0
11
-575.24423783197062
21
112.25000000000003
31
0
0
LINE
5
266
100
AcDbEntity
8
0
100
AcDbLine
10
-535.24423783197085
20
18.249999999999993
30
0
11
-535.24423783197085
21
38.749999999999993
31
0
0
LINE
5
267
100
AcDbEntity
8
0
100
AcDbLine
10
-583.24423783197062
20
18.249999999999996
30
0
11
-583.24423783197062
21
38.75
31
0
0
LINE
5
268
100
AcDbEntity
8
0
100
AcDbLine
10
-571.24423783197062
20
5.9999999999999947
30
0
11
-571.24423783197062
21
26.499999999999993
31
0
0
LINE
5
269
100
AcDbEntity
8
0
100
AcDbLine
10
-535.24423783197085
20
67.25
30
0
11
-535.24423783197085
21
87.75
31
0
0
LINE
5
270
100
AcDbEntity
8
0
100
AcDbLine
10
-527.24423783197085
20
67.25
30
0
11
-527.24423783197085
21
87.75
31
0
0
LINE
5
271
100
AcDbEntity
8
0
100
AcDbLine
10
-587.24423783197062
20
105.20000000000002
30
0
11
-587.24423783197062
21
120.70000000000002
31
0
0
LINE
5
272
100
AcDbEntity
8
0
100
AcDbLine
10
-579.24423783197062
20
5.9999999999999964
30
0
11
-579.24423783197062
21
26.5
31
0
0
LINE
5
273
100
AcDbEntity
8
0
100
AcDbLine
10
-507.24423783197074
20
79.5
30
0
11
-507.24423783197074
21
100
31
0
0
LINE
5
274
100
AcDbEntity
8
0
100
AcDbLine
10
-507.24423783197074
20
105.19999999999999
30
0
11
-507.24423783197074
21
120.7
31
0
0
LINE
5
275
100
AcDbEntity
8
0
100
AcDbLine
10
-507.24423783197074
20
54.999999999999993
30
0
11
-507.24423783197074
21
75.499999999999986
31
0
0
LINE
5
276
100
AcDbEntity
8
0
100
AcDbLine
10
-507.24423783197074
20
5.9999999999999858
30
0
11
-507.24423783197074
21
26.499999999999986
31
0
0
LINE
5
277
100
AcDbEntity
8
0
100
AcDbLine
10
-543.24423783197074
20
67.25
30
0
11
-543.24423783197074
21
87.75
31
0
0
LINE
5
278
100
AcDbEntity
8
0
100
AcDbLine
10
-519.24423783197074
20
91.75
30
0
11
-519.24423783197074
21
112.25000000000001
31
0
0
LINE
5
279
100
AcDbEntity
8
0
100
AcDbLine
10
-535.24423783197085
20
91.75
30
0
11
-535.24423783197085
21
112.25000000000001
31
0
0
LINE
5
280
100
AcDbEntity
8
0
100
AcDbLine
10
-551.24423783197074
20
67.25
30
0
11
-551.24423783197074
21
87.75
31
0
0
LINE
5
281
100
AcDbEntity
8
0
100
AcDbLine
10
-539.24423783197074
20
79.500000000000014
30
0
11
-539.24423783197074
21
100.00000000000001
31
0
0
LINE
5
282
100
AcDbEntity
8
0
100
AcDbLine
10
-583.24423783197062
20
116.25000000000003
30
0
11
-583.24423783197062
21
120.75000000000004
31
0
0
LINE
5
283
100
AcDbEntity
8
0
100
AcDbLine
10
-575.24423783197062
20
116.25000000000003
30
0
11
-575.24423783197062
21
120.75000000000004
31
0
0
LINE
5
284
100
AcDbEntity
8
0
100
AcDbLine
10
-547.24423783197074
20
79.500000000000014
30
0
11
-547.24423783197074
21
100.00000000000001
31
0
0
LINE
5
285
100
AcDbEntity
8
0
100
AcDbLine
10
-551.24423783197074
20
42.749999999999993
30
0
11
-551.24423783197074
21
63.249999999999993
31
0
0
LINE
5
286
100
AcDbEntity
8
0
100
AcDbLine
10
-527.24423783197085
20
91.75
30
0
11
-527.24423783197085
21
112.25000000000001
31
0
0
LINE
5
287
100
AcDbEntity
8
0
100
AcDbLine
10
-563.24423783197074
20
79.500000000000014
30
0
11
-563.24423783197074
21
100.00000000000001
31
0
0
LINE
5
288
100
AcDbEntity
8
0
100
AcDbLine
10
-567.24423783197062
20
42.75
30
0
11
-567.24423783197062
21
63.250000000000014
31
0
0
LINE
5
289
100
AcDbEntity
8
0
100
AcDbLine
10
-555.24423783197074
20
55
30
0
11
-555.24423783197074
21
75.5
31
0
0
LINE
5
290
100
AcDbEntity
8
0
100
AcDbLine
10
-519.24423783197074
20
116.25000000000001
30
0
11
-519.24423783197074
21
120.75000000000003
31
0
0
LINE
5
291
100
AcDbEntity
8
0
100
AcDbLine
10
-555.24423783197074
20
79.500000000000014
30
0
11
-555.24423783197074
21
100.00000000000001
31
0
0
LINE
5
292
100
AcDbEntity
8
0
100
AcDbLine
10
-527.24423783197085
20
116.25000000000001
30
0
11
-527.24423783197085
21
120.75000000000003
31
0
0
LINE
5
293
100
AcDbEntity
8
0
100
AcDbLine
10
-531.24423783197085
20
105.20000000000002
30
0
11
-531.24423783197085
21
120.70000000000002
31
0
0
LINE
5
294
100
AcDbEntity
8
0
100
AcDbLine
10
-555.24423783197074
20
30.499999999999993
30
0
11
-555.24423783197074
21
51
31
0
0
LINE
5
295
100
AcDbEntity
8
0
100
AcDbLine
10
-539.24423783197074
20
55
30
0
11
-539.24423783197074
21
75.5
31
0
0
LINE
5
296
100
AcDbEntity
8
0
100
AcDbLine
10
-559.24423783197074
20
42.749999999999993
30
0
11
-559.24423783197074
21
63.249999999999993
31
0
0
LINE
5
297
100
AcDbEntity
8
0
100
AcDbLine
10
-523.24423783197074
20
105.20000000000002
30
0
11
-523.24423783197074
21
120.70000000000002
31
0
0
LINE
5
298
100
AcDbEntity
8
0
100
AcDbLine
10
-543.24423783197074
20
42.749999999999993
30
0
11
-543.24423783197074
21
63.249999999999993
31
0
0
LINE
5
299
100
AcDbEntity
8
0
100
AcDbLine
10
-535.24423783197085
20
116.25000000000001
30
0
11
-535.24423783197085
21
120.75000000000003
31
0
0
LINE
5
300
100
AcDbEntity
8
0
100
AcDbLine
10
-567.24423783197062
20
67.250000000000014
30
0
11
-567.24423783197062
21
87.750000000000028
31
0
0
LINE
5
301
100
AcDbEntity
8
0
100
AcDbLine
10
-563.24423783197074
20
30.499999999999993
30
0
11
-563.24423783197074
21
51
31
0
0
LINE
5
302
100
AcDbEntity
8
0
100
AcDbLine
10
-563.24423783197074
20
55
30
0
11
-563.24423783197074
21
75.5
31
0
0
LINE
5
303
100
AcDbEntity
8
0
100
AcDbLine
10
-511.24423783197074
20
116.25000000000001
30
0
11
-511.24423783197074
21
120.75000000000003
31
0
0
LINE
5
304
100
AcDbEntity
8
0
100
AcDbLine
10
-559.24423783197074
20
18.249999999999993
30
0
11
-559.24423783197074
21
38.749999999999993
31
0
0
LINE
5
305
100
AcDbEntity
8
0
100
AcDbLine
10
-543.24423783197074
20
18.249999999999993
30
0
11
-543.24423783197074
21
38.749999999999993
31
0
0
LINE
5
306
100
AcDbEntity
8
0
100
AcDbLine
10
-539.24423783197074
20
30.499999999999993
30
0
11
-539.24423783197074
21
51
31
0
0
LINE
5
307
100
AcDbEntity
8
0
100
AcDbLine
10
-547.24423783197074
20
30.499999999999993
30
0
11
-547.24423783197074
21
51
31
0
0
LINE
5
308
100
AcDbEntity
8
0
100
AcDbLine
10
-559.24423783197074
20
67.25
30
0
11
-559.24423783197074
21
87.75
31
0
0
LINE
5
309
100
AcDbEntity
8
0
100
AcDbLine
10
-547.24423783197074
20
55
30
0
11
-547.24423783197074
21
75.5
31
0
0
LINE
5
310
100
AcDbEntity
8
0
100
AcDbLine
10
-515.24423783197085
20
105.20000000000002
30
0
11
-515.24423783197085
21
120.70000000000002
31
0
0
LINE
5
311
100
AcDbEntity
8
0
100
AcDbLine
10
-559.24423783197074
20
116.25000000000001
30
0
11
-559.24423783197074
21
120.75000000000003
31
0
0
LINE
5
312
100
AcDbEntity
8
0
100
AcDbLine
10
-539.24423783197074
20
105.20000000000002
30
0
11
-539.24423783197074
21
120.70000000000002
31
0
0
LINE
5
313
100
AcDbEntity
8
0
100
AcDbLine
10
-547.24423783197074
20
5.999999999999992
30
0
11
-547.24423783197074
21
26.499999999999993
31
0
0
LINE
5
314
100
AcDbEntity
8
0
100
AcDbLine
10
-551.24423783197074
20
2.9999999999999916
30
0
11
-551.24423783197074
21
14.249999999999993
31
0
0
LINE
5
315
100
AcDbEntity
8
0
100
AcDbLine
10
-539.24423783197074
20
5.9999999999999893
30
0
11
-539.24423783197074
21
26.499999999999993
31
0
0
LINE
5
316
100
AcDbEntity
8
0
100
AcDbLine
10
-555.24423783197074
20
5.999999999999992
30
0
11
-555.24423783197074
21
26.499999999999993
31
0
0
LINE
5
317
100
AcDbEntity
8
0
100
AcDbLine
10
-551.24423783197074
20
116.25000000000001
30
0
11
-551.24423783197074
21
120.75000000000003
31
0
0
LINE
5
318
100
AcDbEntity
8
0
100
AcDbLine
10
-547.24423783197074
20
105.20000000000002
30
0
11
-547.24423783197074
21
120.70000000000002
31
0
0
LINE
5
319
100
AcDbEntity
8
0
100
AcDbLine
10
-567.24423783197062
20
2.9999999999999938
30
0
11
-567.24423783197062
21
14.249999999999996
31
0
0
LINE
5
320
100
AcDbEntity
8
0
100
AcDbLine
10
-543.24423783197074
20
2.9999999999999902
30
0
11
-543.24423783197074
21
14.249999999999991
31
0
0
LINE
5
321
100
AcDbEntity
8
0
100
AcDbLine
10
-559.24423783197074
20
2.9999999999999929
30
0
11
-559.24423783197074
21
14.249999999999993
31
0
0
LINE
5
322
100
AcDbEntity
8
0
100
AcDbLine
10
-555.24423783197074
20
105.20000000000002
30
0
11
-555.24423783197074
21
120.70000000000002
31
0
0
LINE
5
323
100
AcDbEntity
8
0
100
AcDbLine
10
-551.24423783197074
20
18.249999999999993
30
0
11
-551.24423783197074
21
38.749999999999993
31
0
0
LINE
5
324
100
AcDbEntity
8
0
100
AcDbLine
10
-563.24423783197074
20
105.20000000000002
30
0
11
-563.24423783197074
21
120.70000000000002
31
0
0
LINE
5
325
100
AcDbEntity
8
0
100
AcDbLine
10
-563.24423783197074
20
5.9999999999999947
30
0
11
-563.24423783197074
21
26.499999999999993
31
0
0
LINE
5
326
100
AcDbEntity
8
0
100
AcDbLine
10
-543.24423783197074
20
116.25000000000001
30
0
11
-543.24423783197074
21
120.75000000000003
31
0
0
LINE
5
327
100
AcDbEntity
8
0
100
AcDbLine
10
-567.24423783197062
20
18.249999999999996
30
0
11
-567.24423783197062
21
38.75
31
0
0
LINE
5
328
100
AcDbEntity
8
0
100
AcDbLine
10
-567.24423783197062
20
116.25000000000003
30
0
11
-567.24423783197062
21
120.75000000000004
31
0
0
LINE
5
329
100
AcDbEntity
8
0
100
AcDbLine
10
-523.24423783197074
20
55
30
0
11
-523.24423783197074
21
75.5
31
0
0
LINE
5
330
100
AcDbEntity
8
0
100
AcDbLine
10
-531.24423783197085
20
55
30
0
11
-531.24423783197085
21
75.5
31
0
0
LINE
5
331
100
AcDbEntity
8
0
100
AcDbLine
10
-583.24423783197062
20
91.750000000000028
30
0
11
-583.24423783197062
21
112.25000000000003
31
0
0
LINE
5
332
100
AcDbEntity
8
0
100
AcDbLine
10
-511.24423783197074
20
67.25
30
0
11
-511.24423783197074
21
87.75
31
0
0
LINE
5
333
100
AcDbEntity
8
0
100
AcDbLine
10
-575.24423783197062
20
18.249999999999996
30
0
11
-575.24423783197062
21
38.75
31
0
0
LINE
5
334
100
AcDbEntity
8
0
100
AcDbLine
10
-511.24423783197074
20
42.749999999999993
30
0
11
-511.24423783197074
21
63.249999999999993
31
0
0
LINE
5
335
100
AcDbEntity
8
0
100
AcDbLine
10
-531.24423783197085
20
30.499999999999993
30
0
11
-531.24423783197085
21
51
31
0
0
LINE
5
336
100
AcDbEntity
8
0
100
AcDbLine
10
-575.24423783197062
20
67.250000000000014
30
0
11
-575.24423783197062
21
87.750000000000028
31
0
0
LINE
5
337
100
AcDbEntity
8
0
100
AcDbLine
10
-543.24423783197074
20
91.75
30
0
11
-543.24423783197074
21
112.25000000000001
31
0
0
LINE
5
338
100
AcDbEntity
8
0
100
AcDbLine
10
-571.24423783197062
20
79.500000000000014
30
0
11
-571.24423783197062
21
100.00000000000001
31
0
0
LINE
5
339
100
AcDbEntity
8
0
100
AcDbLine
10
-583.24423783197062
20
42.75
30
0
11
-583.24423783197062
21
63.250000000000014
31
0
0
LINE
5
340
100
AcDbEntity
8
0
100
AcDbLine
10
-511.24423783197074
20
91.75
30
0
11
-511.24423783197074
21
112.25000000000001
31
0
0
LINE
5
341
100
AcDbEntity
8
0
100
AcDbLine
10
-527.24423783197085
20
42.749999999999993
30
0
11
-527.24423783197085
21
63.249999999999993
31
0
0
LINE
5
342
100
AcDbEntity
8
0
100
AcDbLine
10
-571.24423783197062
20
30.499999999999993
30
0
11
-571.24423783197062
21
51
31
0
0
LINE
5
343
100
AcDbEntity
8
0
100
AcDbLine
10
-551.24423783197074
20
91.75
30
0
11
-551.24423783197074
21
112.25000000000001
31
0
0
LINE
5
344
100
AcDbEntity
8
0
100
AcDbLine
10
-579.24423783197062
20
79.500000000000014
30
0
11
-579.24423783197062
21
100.00000000000001
31
0
0
LINE
5
345
100
AcDbEntity
8
0
100
AcDbLine
10
-583.24423783197062
20
67.250000000000014
30
0
11
-583.24423783197062
21
87.750000000000028
31
0
0
LINE
5
346
100
AcDbEntity
8
0
100
AcDbLine
10
-567.24423783197062
20
91.750000000000028
30
0
11
-567.24423783197062
21
112.25000000000003
31
0
0
LINE
5
347
100
AcDbEntity
8
0
100
AcDbLine
10
-575.24423783197062
20
42.75
30
0
11
-575.24423783197062
21
63.250000000000014
31
0
0
LINE
5
348
100
AcDbEntity
8
0
100
AcDbLine
10
-515.24423783197085
20
30.499999999999989
30
0
11
-515.24423783197085
21
51
31
0
0
LINE
5
349
100
AcDbEntity
8
0
100
AcDbLine
10
-523.24423783197074
20
30.499999999999989
30
0
11
-523.24423783197074
21
51
31
0
0
LINE
5
350
100
AcDbEntity
8
0
100
AcDbLine
10
-575.24423783197062
20
2.9999999999999947
30
0
11
-575.24423783197062
21
14.249999999999996
31
0
0
LINE
5
351
100
AcDbEntity
8
0
100
AcDbLine
10
-583.24423783197062
20
2.999999999999996
30
0
11
-583.24423783197062
21
14.249999999999998
31
0
0
LINE
5
352
100
AcDbEntity
8
0
100
AcDbLine
10
-523.24423783197074
20
79.500000000000014
30
0
11
-523.24423783197074
21
100.00000000000001
31
0
0
LINE
5
353
100
AcDbEntity
8
0
100
AcDbLine
10
-535.24423783197085
20
2.9999999999999893
30
0
11
-535.24423783197085
21
14.249999999999991
31
0
0
LINE
5
354
100
AcDbEntity
8
0
100
AcDbLine
10
-527.24423783197085
20
2.9999999999999885
30
0
11
-527.24423783197085
21
14.249999999999989
31
0
0
LINE
5
355
100
AcDbEntity
8
0
100
AcDbLine
10
-511.24423783197074
20
2.9999999999999858
30
0
11
-511.24423783197074
21
14.249999999999988
31
0
0
LINE
5
356
100
AcDbEntity
8
0
100
AcDbLine
10
-519.24423783197074
20
2.9999999999999871
30
0
11
-519.24423783197074
21
14.249999999999989
31
0
0
LINE
5
357
100
AcDbEntity
8
0
100
AcDbLine
10
-531.24423783197085
20
5.9999999999999893
30
0
11
-531.24423783197085
21
26.499999999999993
31
0
0
LINE
5
358
100
AcDbEntity
8
0
100
AcDbLine
10
-925.40706305328456
20
55
30
0
11
-925.40706305328456
21
75.5
31
0
0
LINE
5
359
100
AcDbEntity
8
0
100
AcDbLine
10
-925.40706305328456
20
5.9999999999999964
30
0
11
-925.40706305328456
21
26.5
31
0
0
LINE
5
360
100
AcDbEntity
8
0
100
AcDbLine
10
-925.40706305328456
20
30.5
30
0
11
-925.40706305328456
21
51
31
0
0
LINE
5
361
100
AcDbEntity
8
0
100
AcDbLine
10
-925.40706305328456
20
79.500000000000014
30
0
11
-925.40706305328456
21
100.00000000000001
31
0
0
LINE
5
362
100
AcDbEntity
8
0
100
AcDbLine
10
-881.40706305328467
20
67.25
30
0
11
-881.40706305328467
21
87.75
31
0
0
LINE
5
363
100
AcDbEntity
8
0
100
AcDbLine
10
-877.40706305328467
20
79.500000000000014
30
0
11
-877.40706305328467
21
100.00000000000001
31
0
0
LINE
5
364
100
AcDbEntity
8
0
100
AcDbLine
10
-905.40706305328456
20
91.750000000000028
30
0
11
-905.40706305328456
21
112.25000000000003
31
0
0
LINE
5
365
100
AcDbEntity
8
0
100
AcDbLine
10
-905.40706305328456
20
67.250000000000014
30
0
11
-905.40706305328456
21
87.750000000000028
31
0
0
LINE
5
366
100
AcDbEntity
8
0
100
AcDbLine
10
-901.40706305328445
20
55
30
0
11
-901.40706305328445
21
75.5
31
0
0
LINE
5
367
100
AcDbEntity
8
0
100
AcDbLine
10
-901.40706305328445
20
79.500000000000014
30
0
11
-901.40706305328445
21
100.00000000000001
31
0
0
LINE
5
368
100
AcDbEntity
8
0
100
AcDbLine
10
-845.40706305328467
20
5.9999999999999858
30
0
11
-845.40706305328467
21
26.499999999999986
31
0
0
LINE
5
369
100
AcDbEntity
8
0
100
AcDbLine
10
-893.40706305328467
20
79.500000000000014
30
0
11
-893.40706305328467
21
100.00000000000001
31
0
0
LINE
5
370
100
AcDbEntity
8
0
100
AcDbLine
10
-893.40706305328467
20
55
30
0
11
-893.40706305328467
21
75.5
31
0
0
LINE
5
371
100
AcDbEntity
8
0
100
AcDbLine
10
-845.40706305328467
20
79.5
30
0
11
-845.40706305328467
21
100
31
0
0
LINE
5
372
100
AcDbEntity
8
0
100
AcDbLine
10
-845.40706305328467
20
104
30
0
11
-845.40706305328467
21
120.80000000000001
31
0
0
LINE
5
373
100
AcDbEntity
8
0
100
AcDbLine
10
-877.40706305328467
20
55
30
0
11
-877.40706305328467
21
75.5
31
0
0
LINE
5
374
100
AcDbEntity
8
0
100
AcDbLine
10
-885.40706305328456
20
55
30
0
11
-885.40706305328456
21
75.5
31
0
0
LINE
5
375
100
AcDbEntity
8
0
100
AcDbLine
10
-925.40706305328456
20
104.00000000000003
30
0
11
-925.40706305328456
21
120.80000000000004
31
0
0
LINE
5
376
100
AcDbEntity
8
0
100
AcDbLine
10
-893.40706305328467
20
5.999999999999992
30
0
11
-893.40706305328467
21
26.499999999999993
31
0
0
LINE
5
377
100
AcDbEntity
8
0
100
AcDbLine
10
-881.40706305328467
20
2.9999999999999902
30
0
11
-881.40706305328467
21
14.249999999999991
31
0
0
LINE
5
378
100
AcDbEntity
8
0
100
AcDbLine
10
-921.40706305328445
20
67.250000000000014
30
0
11
-921.40706305328445
21
87.750000000000028
31
0
0
LINE
5
379
100
AcDbEntity
8
0
100
AcDbLine
10
-913.40706305328456
20
91.750000000000028
30
0
11
-913.40706305328456
21
112.25000000000003
31
0
0
LINE
5
380
100
AcDbEntity
8
0
100
AcDbLine
10
-889.40706305328467
20
2.9999999999999916
30
0
11
-889.40706305328467
21
14.249999999999993
31
0
0
LINE
5
381
100
AcDbEntity
8
0
100
AcDbLine
10
-913.40706305328456
20
2.9999999999999947
30
0
11
-913.40706305328456
21
14.249999999999996
31
0
0
LINE
5
382
100
AcDbEntity
8
0
100
AcDbLine
10
-897.40706305328456
20
2.9999999999999929
30
0
11
-897.40706305328456
21
14.249999999999993
31
0
0
LINE
5
383
100
AcDbEntity
8
0
100
AcDbLine
10
-889.40706305328467
20
18.249999999999993
30
0
11
-889.40706305328467
21
38.749999999999993
31
0
0
LINE
5
384
100
AcDbEntity
8
0
100
AcDbLine
10
-921.40706305328445
20
116.25000000000003
30
0
11
-921.40706305328445
21
120.75000000000004
31
0
0
LINE
5
385
100
AcDbEntity
8
0
100
AcDbLine
10
-877.40706305328467
20
5.9999999999999893
30
0
11
-877.40706305328467
21
26.499999999999993
31
0
0
LINE
5
386
100
AcDbEntity
8
0
100
AcDbLine
10
-909.40706305328467
20
30.499999999999993
30
0
11
-909.40706305328467
21
51
31
0
0
LINE
5
387
100
AcDbEntity
8
0
100
AcDbLine
10
-885.40706305328456
20
5.999999999999992
30
0
11
-885.40706305328456
21
26.499999999999993
31
0
0
LINE
5
388
100
AcDbEntity
8
0
100
AcDbLine
10
-921.40706305328445
20
42.75
30
0
11
-921.40706305328445
21
63.250000000000014
31
0
0
LINE
5
389
100
AcDbEntity
8
0
100
AcDbLine
10
-905.40706305328456
20
2.9999999999999938
30
0
11
-905.40706305328456
21
14.249999999999996
31
0
0
LINE
5
390
100
AcDbEntity
8
0
100
AcDbLine
10
-901.40706305328445
20
5.9999999999999947
30
0
11
-901.40706305328445
21
26.499999999999993
31
0
0
LINE
5
391
100
AcDbEntity
8
0
100
AcDbLine
10
-909.40706305328467
20
79.500000000000014
30
0
11
-909.40706305328467
21
100.00000000000001
31
0
0
LINE
5
392
100
AcDbEntity
8
0
100
AcDbLine
10
-917.40706305328445
20
79.500000000000014
30
0
11
-917.40706305328445
21
100.00000000000001
31
0
0
LINE
5
393
100
AcDbEntity
8
0
100
AcDbLine
10
-921.40706305328445
20
18.249999999999996
30
0
11
-921.40706305328445
21
38.75
31
0
0
LINE
5
394
100
AcDbEntity
8
0
100
AcDbLine
10
-909.40706305328467
20
55
30
0
11
-909.40706305328467
21
75.5
31
0
0
LINE
5
395
100
AcDbEntity
8
0
100
AcDbLine
10
-917.40706305328445
20
55
30
0
11
-917.40706305328445
21
75.5
31
0
0
LINE
5
396
100
AcDbEntity
8
0
100
AcDbLine
10
-917.40706305328445
20
30.5
30
0
11
-917.40706305328445
21
51
31
0
0
LINE
5
397
100
AcDbEntity
8
0
100
AcDbLine
10
-921.40706305328445
20
2.999999999999996
30
0
11
-921.40706305328445
21
14.249999999999998
31
0
0
LINE
5
398
100
AcDbEntity
8
0
100
AcDbLine
10
-913.40706305328456
20
67.250000000000014
30
0
11
-913.40706305328456
21
87.750000000000028
31
0
0
LINE
5
399
100
AcDbEntity
8
0
100
AcDbLine
10
-909.40706305328467
20
5.9999999999999947
30
0
11
-909.40706305328467
21
26.499999999999993
31
0
0
LINE
5
400
100
AcDbEntity
8
0
100
AcDbLine
10
-913.40706305328456
20
18.249999999999996
30
0
11
-913.40706305328456
21
38.75
31
0
0
LINE
5
401
100
AcDbEntity
8
0
100
AcDbLine
10
-913.40706305328456
20
42.75
30
0
11
-913.40706305328456
21
63.250000000000014
31
0
0
LINE
5
402
100
AcDbEntity
8
0
100
AcDbLine
10
-917.40706305328445
20
5.9999999999999964
30
0
11
-917.40706305328445
21
26.5
31
0
0
LINE
5
403
100
AcDbEntity
8
0
100
AcDbLine
10
-897.40706305328456
20
18.249999999999993
30
0
11
-897.40706305328456
21
38.749999999999993
31
0
0
LINE
5
404
100
AcDbEntity
8
0
100
AcDbLine
10
-881.40706305328467
20
18.249999999999993
30
0
11
-881.40706305328467
21
38.749999999999993
31
0
0
LINE
5
405
100
AcDbEntity
8
0
100
AcDbLine
10
-905.40706305328456
20
18.249999999999996
30
0
11
-905.40706305328456
21
38.75
31
0
0
LINE
5
406
100
AcDbEntity
8
0
100
AcDbLine
10
-889.40706305328467
20
67.25
30
0
11
-889.40706305328467
21
87.75
31
0
0
LINE
5
407
100
AcDbEntity
8
0
100
AcDbLine
10
-917.40706305328445
20
104.00000000000003
30
0
11
-917.40706305328445
21
120.80000000000004
31
0
0
LINE
5
408
100
AcDbEntity
8
0
100
AcDbLine
10
-921.40706305328445
20
91.750000000000028
30
0
11
-921.40706305328445
21
112.25000000000003
31
0
0
LINE
5
409
100
AcDbEntity
8
0
100
AcDbLine
10
-913.40706305328456
20
116.25000000000003
30
0
11
-913.40706305328456
21
120.75000000000004
31
0
0
LINE
5
410
100
AcDbEntity
8
0
100
AcDbLine
10
-909.40706305328467
20
104.00000000000003
30
0
11
-909.40706305328467
21
120.80000000000004
31
0
0
LINE
5
411
100
AcDbEntity
8
0
100
AcDbLine
10
-885.40706305328456
20
79.500000000000014
30
0
11
-885.40706305328456
21
100.00000000000001
31
0
0
LINE
5
412
100
AcDbEntity
8
0
100
AcDbLine
10
-897.40706305328456
20
67.25
30
0
11
-897.40706305328456
21
87.75
31
0
0
LINE
5
413
100
AcDbEntity
8
0
100
AcDbLine
10
-865.40706305328467
20
91.75
30
0
11
-865.40706305328467
21
112.25000000000001
31
0
0
LINE
5
414
100
AcDbEntity
8
0
100
AcDbLine
10
-849.40706305328467
20
91.75
30
0
11
-849.40706305328467
21
112.25000000000001
31
0
0
LINE
5
415
100
AcDbEntity
8
0
100
AcDbLine
10
-889.40706305328467
20
42.749999999999993
30
0
11
-889.40706305328467
21
63.249999999999993
31
0
0
LINE
5
416
100
AcDbEntity
8
0
100
AcDbLine
10
-881.40706305328467
20
91.75
30
0
11
-881.40706305328467
21
112.25000000000001
31
0
0
LINE
5
417
100
AcDbEntity
8
0
100
AcDbLine
10
-897.40706305328456
20
91.75
30
0
11
-897.40706305328456
21
112.25000000000001
31
0
0
LINE
5
418
100
AcDbEntity
8
0
100
AcDbLine
10
-873.40706305328467
20
91.75
30
0
11
-873.40706305328467
21
112.25000000000001
31
0
0
LINE
5
419
100
AcDbEntity
8
0
100
AcDbLine
10
-897.40706305328456
20
42.749999999999993
30
0
11
-897.40706305328456
21
63.249999999999993
31
0
0
LINE
5
420
100
AcDbEntity
8
0
100
AcDbLine
10
-901.40706305328445
20
30.499999999999993
30
0
11
-901.40706305328445
21
51
31
0
0
LINE
5
421
100
AcDbEntity
8
0
100
AcDbLine
10
-881.40706305328467
20
42.749999999999993
30
0
11
-881.40706305328467
21
63.249999999999993
31
0
0
LINE
5
422
100
AcDbEntity
8
0
100
AcDbLine
10
-877.40706305328467
20
30.499999999999993
30
0
11
-877.40706305328467
21
51
31
0
0
LINE
5
423
100
AcDbEntity
8
0
100
AcDbLine
10
-885.40706305328456
20
30.499999999999993
30
0
11
-885.40706305328456
21
51
31
0
0
LINE
5
424
100
AcDbEntity
8
0
100
AcDbLine
10
-905.40706305328456
20
42.75
30
0
11
-905.40706305328456
21
63.250000000000014
31
0
0
LINE
5
425
100
AcDbEntity
8
0
100
AcDbLine
10
-845.40706305328467
20
54.999999999999993
30
0
11
-845.40706305328467
21
75.499999999999986
31
0
0
LINE
5
426
100
AcDbEntity
8
0
100
AcDbLine
10
-893.40706305328467
20
30.499999999999993
30
0
11
-893.40706305328467
21
51
31
0
0
LINE
5
427
100
AcDbEntity
8
0
100
AcDbLine
10
-845.40706305328467
20
30.499999999999986
30
0
11
-845.40706305328467
21
50.999999999999986
31
0
0
LINE
5
428
100
AcDbEntity
8
0
100
AcDbLine
10
-857.40706305328467
20
91.75
30
0
11
-857.40706305328467
21
112.25000000000001
31
0
0
LINE
5
429
100
AcDbEntity
8
0
100
AcDbLine
10
-889.40706305328467
20
91.75
30
0
11
-889.40706305328467
21
112.25000000000001
31
0
0
LINE
5
430
100
AcDbEntity
8
0
100
AcDbLine
10
-897.40706305328456
20
116.25000000000001
30
0
11
-897.40706305328456
21
120.75000000000003
31
0
0
LINE
5
431
100
AcDbEntity
8
0
100
AcDbLine
10
-873.40706305328467
20
2.9999999999999893
30
0
11
-873.40706305328467
21
14.249999999999991
31
0
0
LINE
5
432
100
AcDbEntity
8
0
100
AcDbLine
10
-869.40706305328467
20
104.00000000000003
30
0
11
-869.40706305328467
21
120.80000000000004
31
0
0
LINE
5
433
100
AcDbEntity
8
0
100
AcDbLine
10
-853.40706305328467
20
30.499999999999989
30
0
11
-853.40706305328467
21
51
31
0
0
LINE
5
434
100
AcDbEntity
8
0
100
AcDbLine
10
-857.40706305328467
20
42.749999999999993
30
0
11
-857.40706305328467
21
63.249999999999993
31
0
0
LINE
5
435
100
AcDbEntity
8
0
100
AcDbLine
10
-865.40706305328467
20
116.25000000000001
30
0
11
-865.40706305328467
21
120.75000000000003
31
0
0
LINE
5
436
100
AcDbEntity
8
0
100
AcDbLine
10
-873.40706305328467
20
42.749999999999993
30
0
11
-873.40706305328467
21
63.249999999999993
31
0
0
LINE
5
437
100
AcDbEntity
8
0
100
AcDbLine
10
-865.40706305328467
20
42.749999999999993
30
0
11
-865.40706305328467
21
63.249999999999993
31
0
0
LINE
5
438
100
AcDbEntity
8
0
100
AcDbLine
10
-861.40706305328467
20
30.499999999999989
30
0
11
-861.40706305328467
21
51
31
0
0
LINE
5
439
100
AcDbEntity
8
0
100
AcDbLine
10
-869.40706305328467
20
30.499999999999993
30
0
11
-869.40706305328467
21
51
31
0
0
LINE
5
440
100
AcDbEntity
8
0
100
AcDbLine
10
-849.40706305328467
20
42.749999999999993
30
0
11
-849.40706305328467
21
63.249999999999993
31
0
0
LINE
5
441
100
AcDbEntity
8
0
100
AcDbLine
10
-857.40706305328467
20
18.249999999999989
30
0
11
-857.40706305328467
21
38.749999999999993
31
0
0
LINE
5
442
100
AcDbEntity
8
0
100
AcDbLine
10
-869.40706305328467
20
5.9999999999999893
30
0
11
-869.40706305328467
21
26.499999999999993
31
0
0
LINE
5
443
100
AcDbEntity
8
0
100
AcDbLine
10
-861.40706305328467
20
104.00000000000003
30
0
11
-861.40706305328467
21
120.80000000000004
31
0
0
LINE
5
444
100
AcDbEntity
8
0
100
AcDbLine
10
-853.40706305328467
20
5.9999999999999876
30
0
11
-853.40706305328467
21
26.499999999999989
31
0
0
LINE
5
445
100
AcDbEntity
8
0
100
AcDbLine
10
-901.40706305328445
20
104.00000000000003
30
0
11
-901.40706305328445
21
120.80000000000004
31
0
0
LINE
5
446
100
AcDbEntity
8
0
100
AcDbLine
10
-893.40706305328467
20
104.00000000000003
30
0
11
-893.40706305328467
21
120.80000000000004
31
0
0
LINE
5
447
100
AcDbEntity
8
0
100
AcDbLine
10
-861.40706305328467
20
55
30
0
11
-861.40706305328467
21
75.5
31
0
0
LINE
5
448
100
AcDbEntity
8
0
100
AcDbLine
10
-849.40706305328467
20
2.9999999999999858
30
0
11
-849.40706305328467
21
14.249999999999988
31
0
0
LINE
5
449
100
AcDbEntity
8
0
100
AcDbLine
10
-853.40706305328467
20
79.500000000000014
30
0
11
-853.40706305328467
21
100.00000000000001
31
0
0
LINE
5
450
100
AcDbEntity
8
0
100
AcDbLine
10
-861.40706305328467
20
5.9999999999999876
30
0
11
-861.40706305328467
21
26.499999999999989
31
0
0
LINE
5
451
100
AcDbEntity
8
0
100
AcDbLine
10
-849.40706305328467
20
67.25
30
0
11
-849.40706305328467
21
87.75
31
0
0
LINE
5
452
100
AcDbEntity
8
0
100
AcDbLine
10
-865.40706305328467
20
18.249999999999989
30
0
11
-865.40706305328467
21
38.749999999999993
31
0
0
LINE
5
453
100
AcDbEntity
8
0
100
AcDbLine
10
-857.40706305328467
20
67.25
30
0
11
-857.40706305328467
21
87.75
31
0
0
LINE
5
454
100
AcDbEntity
8
0
100
AcDbLine
10
-849.40706305328467
20
18.249999999999989
30
0
11
-849.40706305328467
21
38.749999999999993
31
0
0
LINE
5
455
100
AcDbEntity
8
0
100
AcDbLine
10
-853.40706305328467
20
104.00000000000003
30
0
11
-853.40706305328467
21
120.80000000000004
31
0
0
LINE
5
456
100
AcDbEntity
8
0
100
AcDbLine
10
-861.40706305328467
20
79.500000000000014
30
0
11
-861.40706305328467
21
100.00000000000001
31
0
0
LINE
5
457
100
AcDbEntity
8
0
100
AcDbLine
10
-873.40706305328467
20
67.25
30
0
11
-873.40706305328467
21
87.75
31
0
0
LINE
5
458
100
AcDbEntity
8
0
100
AcDbLine
10
-865.40706305328467
20
2.9999999999999885
30
0
11
-865.40706305328467
21
14.249999999999989
31
0
0
LINE
5
459
100
AcDbEntity
8
0
100
AcDbLine
10
-857.40706305328467
20
2.9999999999999871
30
0
11
-857.40706305328467
21
14.249999999999989
31
0
0
LINE
5
460
100
AcDbEntity
8
0
100
AcDbLine
10
-857.40706305328467
20
116.25000000000001
30
0
11
-857.40706305328467
21
120.75000000000003
31
0
0
LINE
5
461
100
AcDbEntity
8
0
100
AcDbLine
10
-873.40706305328467
20
18.249999999999993
30
0
11
-873.40706305328467
21
38.749999999999993
31
0
0
LINE
5
462
100
AcDbEntity
8
0
100
AcDbLine
10
-869.40706305328467
20
79.500000000000014
30
0
11
-869.40706305328467
21
100.00000000000001
31
0
0
LINE
5
463
100
AcDbEntity
8
0
100
AcDbLine
10
-885.40706305328456
20
104.00000000000003
30
0
11
-885.40706305328456
21
120.80000000000004
31
0
0
LINE
5
464
100
AcDbEntity
8
0
100
AcDbLine
10
-873.40706305328467
20
116.25000000000001
30
0
11
-873.40706305328467
21
120.75000000000003
31
0
0
LINE
5
465
100
AcDbEntity
8
0
100
AcDbLine
10
-905.40706305328456
20
116.25000000000003
30
0
11
-905.40706305328456
21
120.75000000000004
31
0
0
LINE
5
466
100
AcDbEntity
8
0
100
AcDbLine
10
-869.40706305328467
20
55
30
0
11
-869.40706305328467
21
75.5
31
0
0
LINE
5
467
100
AcDbEntity
8
0
100
AcDbLine
10
-853.40706305328467
20
55
30
0
11
-853.40706305328467
21
75.5
31
0
0
LINE
5
468
100
AcDbEntity
8
0
100
AcDbLine
10
-881.40706305328467
20
116.25000000000001
30
0
11
-881.40706305328467
21
120.75000000000003
31
0
0
LINE
5
469
100
AcDbEntity
8
0
100
AcDbLine
10
-877.40706305328467
20
104.00000000000003
30
0
11
-877.40706305328467
21
120.80000000000004
31
0
0
LINE
5
470
100
AcDbEntity
8
0
100
AcDbLine
10
-849.40706305328467
20
116.25000000000001
30
0
11
-849.40706305328467
21
120.75000000000003
31
0
0
LINE
5
471
100
AcDbEntity
8
0
100
AcDbLine
10
-865.40706305328467
20
67.25
30
0
11
-865.40706305328467
21
87.75
31
0
0
LINE
5
472
100
AcDbEntity
8
0
100
AcDbLine
10
-889.40706305328467
20
116.25000000000001
30
0
11
-889.40706305328467
21
120.75000000000003
31
0
0
LINE
5
473
100
AcDbEntity
8
0
100
AcDbLine
10
-1295.5698882745987
20
104.00000000000003
30
0
11
-1295.5698882745987
21
121.50000000000003
31
0
0
LINE
5
474
100
AcDbEntity
8
0
100
AcDbLine
10
-1299.5698882745983
20
42.75
30
0
11
-1299.5698882745983
21
63.250000000000014
31
0
0
LINE
5
475
100
AcDbEntity
8
0
100
AcDbLine
10
-1287.5698882745985
20
30.499999999999993
30
0
11
-1287.5698882745985
21
51
31
0
0
LINE
5
476
100
AcDbEntity
8
0
100
AcDbLine
10
-1295.5698882745987
20
5.9999999999999964
30
0
11
-1295.5698882745987
21
26.5
31
0
0
LINE
5
477
100
AcDbEntity
8
0
100
AcDbLine
10
-1287.5698882745985
20
5.9999999999999947
30
0
11
-1287.5698882745985
21
26.499999999999993
31
0
0
LINE
5
478
100
AcDbEntity
8
0
100
AcDbLine
10
-1295.5698882745987
20
30.5
30
0
11
-1295.5698882745987
21
51
31
0
0
LINE
5
479
100
AcDbEntity
8
0
100
AcDbLine
10
-1299.5698882745983
20
18.249999999999996
30
0
11
-1299.5698882745983
21
38.75
31
0
0
LINE
5
480
100
AcDbEntity
8
0
100
AcDbLine
10
-1291.5698882745985
20
42.75
30
0
11
-1291.5698882745985
21
63.250000000000014
31
0
0
LINE
5
481
100
AcDbEntity
8
0
100
AcDbLine
10
-1263.5698882745985
20
5.999999999999992
30
0
11
-1263.5698882745985
21
26.499999999999993
31
0
0
LINE
5
482
100
AcDbEntity
8
0
100
AcDbLine
10
-1263.5698882745985
20
79.500000000000014
30
0
11
-1263.5698882745985
21
100.00000000000001
31
0
0
LINE
5
483
100
AcDbEntity
8
0
100
AcDbLine
10
-1283.5698882745987
20
42.75
30
0
11
-1283.5698882745987
21
63.250000000000014
31
0
0
LINE
5
484
100
AcDbEntity
8
0
100
AcDbLine
10
-1267.5698882745987
20
67.25
30
0
11
-1267.5698882745987
21
87.75
31
0
0
LINE
5
485
100
AcDbEntity
8
0
100
AcDbLine
10
-1271.5698882745987
20
30.499999999999993
30
0
11
-1271.5698882745987
21
51
31
0
0
LINE
5
486
100
AcDbEntity
8
0
100
AcDbLine
10
-1267.5698882745987
20
42.749999999999993
30
0
11
-1267.5698882745987
21
63.249999999999993
31
0
0
LINE
5
487
100
AcDbEntity
8
0
100
AcDbLine
10
-1279.5698882745985
20
79.500000000000014
30
0
11
-1279.5698882745985
21
100.00000000000001
31
0
0
LINE
5
488
100
AcDbEntity
8
0
100
AcDbLine
10
-1275.5698882745987
20
18.249999999999993
30
0
11
-1275.5698882745987
21
38.749999999999993
31
0
0
LINE
5
489
100
AcDbEntity
8
0
100
AcDbLine
10
-1259.5698882745987
20
67.25
30
0
11
-1259.5698882745987
21
87.75
31
0
0
LINE
5
490
100
AcDbEntity
8
0
100
AcDbLine
10
-1243.5698882745987
20
116.25000000000001
30
0
11
-1243.5698882745987
21
121.75000000000003
31
0
0
LINE
5
491
100
AcDbEntity
8
0
100
AcDbLine
10
-1263.5698882745985
20
104.00000000000003
30
0
11
-1263.5698882745985
21
121.50000000000003
31
0
0
LINE
5
492
100
AcDbEntity
8
0
100
AcDbLine
10
-1255.5698882745987
20
104.00000000000003
30
0
11
-1255.5698882745987
21
121.50000000000003
31
0
0
LINE
5
493
100
AcDbEntity
8
0
100
AcDbLine
10
-1271.5698882745987
20
104.00000000000003
30
0
11
-1271.5698882745987
21
121.50000000000003
31
0
0
LINE
5
494
100
AcDbEntity
8
0
100
AcDbLine
10
-1223.5698882745987
20
104
30
0
11
-1223.5698882745987
21
121.5
31
0
0
LINE
5
495
100
AcDbEntity
8
0
100
AcDbLine
10
-1231.5698882745987
20
104.00000000000003
30
0
11
-1231.5698882745987
21
121.50000000000003
31
0
0
LINE
5
496
100
AcDbEntity
8
0
100
AcDbLine
10
-1275.5698882745987
20
116.25000000000001
30
0
11
-1275.5698882745987
21
121.75000000000003
31
0
0
LINE
5
497
100
AcDbEntity
8
0
100
AcDbLine
10
-1267.5698882745987
20
116.25000000000001
30
0
11
-1267.5698882745987
21
121.75000000000003
31
0
0
LINE
5
498
100
AcDbEntity
8
0
100
AcDbLine
10
-1283.5698882745987
20
91.750000000000028
30
0
11
-1283.5698882745987
21
112.25000000000003
31
0
0
LINE
5
499
100
AcDbEntity
8
0
100
AcDbLine
10
-1239.5698882745987
20
104.00000000000003
30
0
11
-1239.5698882745987
21
121.50000000000003
31
0
0
LINE
5
500
100
AcDbEntity
8
0
100
AcDbLine
10
-1251.5698882745987
20
91.75
30
0
11
-1251.5698882745987
21
112.25000000000001
31
0
0
LINE
5
501
100
AcDbEntity
8
0
100
AcDbLine
10
-1259.5698882745987
20
42.749999999999993
30
0
11
-1259.5698882745987
21
63.249999999999993
31
0
0
LINE
5
502
100
AcDbEntity
8
0
100
AcDbLine
10
-1291.5698882745985
20
116.25000000000003
30
0
11
-1291.5698882745985
21
121.75000000000004
31
0
0
LINE
5
503
100
AcDbEntity
8
0
100
AcDbLine
10
-1299.5698882745983
20
91.750000000000028
30
0
11
-1299.5698882745983
21
112.25000000000003
31
0
0
LINE
5
504
100
AcDbEntity
8
0
100
AcDbLine
10
-1303.5698882745987
20
104.00000000000003
30
0
11
-1303.5698882745987
21
121.50000000000003
31
0
0
LINE
5
505
100
AcDbEntity
8
0
100
AcDbLine
10
-1287.5698882745985
20
104.00000000000003
30
0
11
-1287.5698882745985
21
121.50000000000003
31
0
0
LINE
5
506
100
AcDbEntity
8
0
100
AcDbLine
10
-1299.5698882745983
20
116.25000000000003
30
0
11
-1299.5698882745983
21
121.75000000000004
31
0
0
LINE
5
507
100
AcDbEntity
8
0
100
AcDbLine
10
-1291.5698882745985
20
91.750000000000028
30
0
11
-1291.5698882745985
21
112.25000000000003
31
0
0
LINE
5
508
100
AcDbEntity
8
0
100
AcDbLine
10
-1303.5698882745987
20
30.5
30
0
11
-1303.5698882745987
21
51
31
0
0
LINE
5
509
100
AcDbEntity
8
0
100
AcDbLine
10
-1287.5698882745985
20
79.500000000000014
30
0
11
-1287.5698882745985
21
100.00000000000001
31
0
0
LINE
5
510
100
AcDbEntity
8
0
100
AcDbLine
10
-1299.5698882745983
20
67.250000000000014
30
0
11
-1299.5698882745983
21
87.750000000000028
31
0
0
LINE
5
511
100
AcDbEntity
8
0
100
AcDbLine
10
-1291.5698882745985
20
18.249999999999996
30
0
11
-1291.5698882745985
21
38.75
31
0
0
LINE
5
512
100
AcDbEntity
8
0
100
AcDbLine
10
-1291.5698882745985
20
67.250000000000014
30
0
11
-1291.5698882745985
21
87.750000000000028
31
0
0
LINE
5
513
100
AcDbEntity
8
0
100
AcDbLine
10
-1299.5698882745983
20
2.999999999999996
30
0
11
-1299.5698882745983
21
14.249999999999998
31
0
0
LINE
5
514
100
AcDbEntity
8
0
100
AcDbLine
10
-1295.5698882745987
20
79.500000000000014
30
0
11
-1295.5698882745987
21
100.00000000000001
31
0
0
LINE
5
515
100
AcDbEntity
8
0
100
AcDbLine
10
-1303.5698882745987
20
55
30
0
11
-1303.5698882745987
21
75.5
31
0
0
LINE
5
516
100
AcDbEntity
8
0
100
AcDbLine
10
-1291.5698882745985
20
2.9999999999999947
30
0
11
-1291.5698882745985
21
14.249999999999996
31
0
0
LINE
5
517
100
AcDbEntity
8
0
100
AcDbLine
10
-1303.5698882745987
20
79.500000000000014
30
0
11
-1303.5698882745987
21
100.00000000000001
31
0
0
LINE
5
518
100
AcDbEntity
8
0
100
AcDbLine
10
-1287.5698882745985
20
55
30
0
11
-1287.5698882745985
21
75.5
31
0
0
LINE
5
519
100
AcDbEntity
8
0
100
AcDbLine
10
-1295.5698882745987
20
55
30
0
11
-1295.5698882745987
21
75.5
31
0
0
LINE
5
520
100
AcDbEntity
8
0
100
AcDbLine
10
-1303.5698882745987
20
5.9999999999999964
30
0
11
-1303.5698882745987
21
26.5
31
0
0
LINE
5
521
100
AcDbEntity
8
0
100
AcDbLine
10
-1279.5698882745985
20
104.00000000000003
30
0
11
-1279.5698882745985
21
121.50000000000003
31
0
0
LINE
5
522
100
AcDbEntity
8
0
100
AcDbLine
10
-1227.5698882745987
20
116.25000000000001
30
0
11
-1227.5698882745987
21
121.75000000000003
31
0
0
LINE
5
523
100
AcDbEntity
8
0
100
AcDbLine
10
-1235.5698882745987
20
116.25000000000001
30
0
11
-1235.5698882745987
21
121.75000000000003
31
0
0
LINE
5
524
100
AcDbEntity
8
0
100
AcDbLine
10
-1283.5698882745987
20
116.25000000000003
30
0
11
-1283.5698882745987
21
121.75000000000004
31
0
0
LINE
5
525
100
AcDbEntity
8
0
100
AcDbLine
10
-1247.5698882745987
20
104.00000000000003
30
0
11
-1247.5698882745987
21
121.50000000000003
31
0
0
LINE
5
526
100
AcDbEntity
8
0
100
AcDbLine
10
-1251.5698882745987
20
116.25000000000001
30
0
11
-1251.5698882745987
21
121.75000000000003
31
0
0
LINE
5
527
100
AcDbEntity
8
0
100
AcDbLine
10
-1259.5698882745987
20
116.25000000000001
30
0
11
-1259.5698882745987
21
121.75000000000003
31
0
0
LINE
5
528
100
AcDbEntity
8
0
100
AcDbLine
10
-1263.5698882745985
20
30.499999999999993
30
0
11
-1263.5698882745985
21
51
31
0
0
LINE
5
529
100
AcDbEntity
8
0
100
AcDbLine
10
-1283.5698882745987
20
18.249999999999996
30
0
11
-1283.5698882745987
21
38.75
31
0
0
LINE
5
530
100
AcDbEntity
8
0
100
AcDbLine
10
-1259.5698882745987
20
18.249999999999993
30
0
11
-1259.5698882745987
21
38.749999999999993
31
0
0
LINE
5
531
100
AcDbEntity
8
0
100
AcDbLine
10
-1275.5698882745987
20
67.25
30
0
11
-1275.5698882745987
21
87.75
31
0
0
LINE
5
532
100
AcDbEntity
8
0
100
AcDbLine
10
-1279.5698882745985
20
55
30
0
11
-1279.5698882745985
21
75.5
31
0
0
LINE
5
533
100
AcDbEntity
8
0
100
AcDbLine
10
-1263.5698882745985
20
55
30
0
11
-1263.5698882745985
21
75.5
31
0
0
LINE
5
534
100
AcDbEntity
8
0
100
AcDbLine
10
-1255.5698882745987
20
55
30
0
11
-1255.5698882745987
21
75.5
31
0
0
LINE
5
535
100
AcDbEntity
8
0
100
AcDbLine
10
-1227.5698882745987
20
2.9999999999999858
30
0
11
-1227.5698882745987
21
14.249999999999988
31
0
0
LINE
5
536
100
AcDbEntity
8
0
100
AcDbLine
10
-1231.5698882745987
20
30.499999999999989
30
0
11
-1231.5698882745987
21
51
31
0
0
LINE
5
537
100
AcDbEntity
8
0
100
AcDbLine
10
-1235.5698882745987
20
2.9999999999999871
30
0
11
-1235.5698882745987
21
14.249999999999989
31
0
0
LINE
5
538
100
AcDbEntity
8
0
100
AcDbLine
10
-1235.5698882745987
20
18.249999999999989
30
0
11
-1235.5698882745987
21
38.749999999999993
31
0
0
LINE
5
539
100
AcDbEntity
8
0
100
AcDbLine
10
-1231.5698882745987
20
5.9999999999999876
30
0
11
-1231.5698882745987
21
26.499999999999989
31
0
0
LINE
5
540
100
AcDbEntity
8
0
100
AcDbLine
10
-1231.5698882745987
20
55
30
0
11
-1231.5698882745987
21
75.5
31
0
0
LINE
5
541
100
AcDbEntity
8
0
100
AcDbLine
10
-1251.5698882745987
20
42.749999999999993
30
0
11
-1251.5698882745987
21
63.249999999999993
31
0
0
LINE
5
542
100
AcDbEntity
8
0
100
AcDbLine
10
-1223.5698882745987
20
79.5
30
0
11
-1223.5698882745987
21
100
31
0
0
LINE
5
543
100
AcDbEntity
8
0
100
AcDbLine
10
-1235.5698882745987
20
67.25
30
0
11
-1235.5698882745987
21
87.75
31
0
0
LINE
5
544
100
AcDbEntity
8
0
100
AcDbLine
10
-1239.5698882745987
20
79.500000000000014
30
0
11
-1239.5698882745987
21
100.00000000000001
31
0
0
LINE
5
545
100
AcDbEntity
8
0
100
AcDbLine
10
-1251.5698882745987
20
18.249999999999993
30
0
11
-1251.5698882745987
21
38.749999999999993
31
0
0
LINE
5
546
100
AcDbEntity
8
0
100
AcDbLine
10
-1239.5698882745987
20
55
30
0
11
-1239.5698882745987
21
75.5
31
0
0
LINE
5
547
100
AcDbEntity
8
0
100
AcDbLine
10
-1243.5698882745987
20
42.749999999999993
30
0
11
-1243.5698882745987
21
63.249999999999993
31
0
0
LINE
5
548
100
AcDbEntity
8
0
100
AcDbLine
10
-1243.5698882745987
20
91.75
30
0
11
-1243.5698882745987
21
112.25000000000001
31
0
0
LINE
5
549
100
AcDbEntity
8
0
100
AcDbLine
10
-1231.5698882745987
20
79.500000000000014
30
0
11
-1231.5698882745987
21
100.00000000000001
31
0
0
LINE
5
550
100
AcDbEntity
8
0
100
AcDbLine
10
-1259.5698882745987
20
91.75
30
0
11
-1259.5698882745987
21
112.25000000000001
31
0
0
LINE
5
551
100
AcDbEntity
8
0
100
AcDbLine
10
-1227.5698882745987
20
18.249999999999989
30
0
11
-1227.5698882745987
21
38.749999999999993
31
0
0
LINE
5
552
100
AcDbEntity
8
0
100
AcDbLine
10
-1243.5698882745987
20
67.25
30
0
11
-1243.5698882745987
21
87.75
31
0
0
LINE
5
553
100
AcDbEntity
8
0
100
AcDbLine
10
-1235.5698882745987
20
91.75
30
0
11
-1235.5698882745987
21
112.25000000000001
31
0
0
LINE
5
554
100
AcDbEntity
8
0
100
AcDbLine
10
-1227.5698882745987
20
67.25
30
0
11
-1227.5698882745987
21
87.75
31
0
0
LINE
5
555
100
AcDbEntity
8
0
100
AcDbLine
10
-1275.5698882745987
20
91.75
30
0
11
-1275.5698882745987
21
112.25000000000001
31
0
0
LINE
5
556
100
AcDbEntity
8
0
100
AcDbLine
10
-1267.5698882745987
20
91.75
30
0
11
-1267.5698882745987
21
112.25000000000001
31
0
0
LINE
5
557
100
AcDbEntity
8
0
100
AcDbLine
10
-1243.5698882745987
20
2.9999999999999885
30
0
11
-1243.5698882745987
21
14.249999999999989
31
0
0
LINE
5
558
100
AcDbEntity
8
0
100
AcDbLine
10
-1267.5698882745987
20
18.249999999999993
30
0
11
-1267.5698882745987
21
38.749999999999993
31
0
0
LINE
5
559
100
AcDbEntity
8
0
100
AcDbLine
10
-1259.5698882745987
20
2.9999999999999902
30
0
11
-1259.5698882745987
21
14.249999999999991
31
0
0
LINE
5
560
100
AcDbEntity
8
0
100
AcDbLine
10
-1271.5698882745987
20
5.999999999999992
30
0
11
-1271.5698882745987
21
26.499999999999993
31
0
0
LINE
5
561
100
AcDbEntity
8
0
100
AcDbLine
10
-1255.5698882745987
20
79.500000000000014
30
0
11
-1255.5698882745987
21
100.00000000000001
31
0
0
LINE
5
562
100
AcDbEntity
8
0
100
AcDbLine
10
-1271.5698882745987
20
79.500000000000014
30
0
11
-1271.5698882745987
21
100.00000000000001
31
0
0
LINE
5
563
100
AcDbEntity
8
0
100
AcDbLine
10
-1271.5698882745987
20
55
30
0
11
-1271.5698882745987
21
75.5
31
0
0
LINE
5
564
100
AcDbEntity
8
0
100
AcDbLine
10
-1283.5698882745987
20
67.250000000000014
30
0
11
-1283.5698882745987
21
87.750000000000028
31
0
0
LINE
5
565
100
AcDbEntity
8
0
100
AcDbLine
10
-1255.5698882745987
20
30.499999999999993
30
0
11
-1255.5698882745987
21
51
31
0
0
LINE
5
566
100
AcDbEntity
8
0
100
AcDbLine
10
-1275.5698882745987
20
42.749999999999993
30
0
11
-1275.5698882745987
21
63.249999999999993
31
0
0
LINE
5
567
100
AcDbEntity
8
0
100
AcDbLine
10
-1279.5698882745985
20
5.9999999999999947
30
0
11
-1279.5698882745985
21
26.499999999999993
31
0
0
LINE
5
568
100
AcDbEntity
8
0
100
AcDbLine
10
-1279.5698882745985
20
30.499999999999993
30
0
11
-1279.5698882745985
21
51
31
0
0
LINE
5
569
100
AcDbEntity
8
0
100
AcDbLine
10
-1255.5698882745987
20
5.9999999999999893
30
0
11
-1255.5698882745987
21
26.499999999999993
31
0
0
LINE
5
570
100
AcDbEntity
8
0
100
AcDbLine
10
-1283.5698882745987
20
2.9999999999999938
30
0
11
-1283.5698882745987
21
14.249999999999996
31
0
0
LINE
5
571
100
AcDbEntity
8
0
100
AcDbLine
10
-1227.5698882745987
20
91.75
30
0
11
-1227.5698882745987
21
112.25000000000001
31
0
0
LINE
5
572
100
AcDbEntity
8
0
100
AcDbLine
10
-1243.5698882745987
20
18.249999999999989
30
0
11
-1243.5698882745987
21
38.749999999999993
31
0
0
LINE
5
573
100
AcDbEntity
8
0
100
AcDbLine
10
-1275.5698882745987
20
2.9999999999999929
30
0
11
-1275.5698882745987
21
14.249999999999993
31
0
0
LINE
5
574
100
AcDbEntity
8
0
100
AcDbLine
10
-1267.5698882745987
20
2.9999999999999916
30
0
11
-1267.5698882745987
21
14.249999999999993
31
0
0
LINE
5
575
100
AcDbEntity
8
0
100
AcDbLine
10
-1251.5698882745987
20
2.9999999999999893
30
0
11
-1251.5698882745987
21
14.249999999999991
31
0
0
LINE
5
576
100
AcDbEntity
8
0
100
AcDbLine
10
-1239.5698882745987
20
30.499999999999989
30
0
11
-1239.5698882745987
21
51
31
0
0
LINE
5
577
100
AcDbEntity
8
0
100
AcDbLine
10
-1247.5698882745987
20
79.500000000000014
30
0
11
-1247.5698882745987
21
100.00000000000001
31
0
0
LINE
5
578
100
AcDbEntity
8
0
100
AcDbLine
10
-1235.5698882745987
20
42.749999999999993
30
0
11
-1235.5698882745987
21
63.249999999999993
31
0
0
LINE
5
579
100
AcDbEntity
8
0
100
AcDbLine
10
-1239.5698882745987
20
5.9999999999999876
30
0
11
-1239.5698882745987
21
26.499999999999989
31
0
0
LINE
5
580
100
AcDbEntity
8
0
100
AcDbLine
10
-1223.5698882745987
20
30.499999999999986
30
0
11
-1223.5698882745987
21
50.999999999999986
31
0
0
LINE
5
581
100
AcDbEntity
8
0
100
AcDbLine
10
-1223.5698882745987
20
5.9999999999999858
30
0
11
-1223.5698882745987
21
26.499999999999986
31
0
0
LINE
5
582
100
AcDbEntity
8
0
100
AcDbLine
10
-1227.5698882745987
20
42.749999999999993
30
0
11
-1227.5698882745987
21
63.249999999999993
31
0
0
LINE
5
583
100
AcDbEntity
8
0
100
AcDbLine
10
-1247.5698882745987
20
30.499999999999993
30
0
11
-1247.5698882745987
21
51
31
0
0
LINE
5
584
100
AcDbEntity
8
0
100
AcDbLine
10
-1247.5698882745987
20
55
30
0
11
-1247.5698882745987
21
75.5
31
0
0
LINE
5
585
100
AcDbEntity
8
0
100
AcDbLine
10
-1247.5698882745987
20
5.9999999999999893
30
0
11
-1247.5698882745987
21
26.499999999999993
31
0
0
LINE
5
586
100
AcDbEntity
8
0
100
AcDbLine
10
-1251.5698882745987
20
67.25
30
0
11
-1251.5698882745987
21
87.75
31
0
0
LINE
5
587
100
AcDbEntity
8
0
100
AcDbLine
10
-1223.5698882745987
20
54.999999999999993
30
0
11
-1223.5698882745987
21
75.499999999999986
31
0
0
LINE
5
588
100
AcDbEntity
8
0
100
AcDbLine
10
-130.00000000000011
20
0
30
0
11
-130.00000000000011
21
4
31
0
0
LINE
5
589
100
AcDbEntity
8
0
100
AcDbLine
10
-208.16282522131377
20
4.0000000000000107
30
0
11
-130.00000000000011
21
4
31
0
0
LINE
5
590
100
AcDbEntity
8
0
100
AcDbLine
10
-0.25000000000010025
20
0
30
0
11
-130
21
0
31
1.9721522630525295e-30
0
LINE
5
591
100
AcDbEntity
8
0
100
AcDbLine
10
-0.25000000000010025
20
0
30
0
11
-0.25000000000005329
21
119.99999999999999
31
0
0
CIRCLE
5
592
100
AcDbEntity
8
0
100
AcDbCircle
10
-30.000000000000089
20
30
30
0
40
15
210
0
220
-0
230
1
0
LINE
5
593
100
AcDbEntity
8
0
100
AcDbLine
10
-130.00000000000003
20
119.99999999999999
30
0
11
-0.25000000000005329
21
119.99999999999999
31
0
0
LINE
5
594
100
AcDbEntity
8
0
100
AcDbLine
10
-208.16282522131388
20
119.99999999999999
30
0
11
-130.00000000000003
21
119.99999999999999
31
0
0
LINE
5
595
100
AcDbEntity
8
0
100
AcDbLine
10
-508.16282522131394
20
120
30
0
11
-208.16282522131388
21
119.99999999999999
31
0
0
LINE
5
596
100
AcDbEntity
8
0
100
AcDbLine
10
-586.32565044262765
20
119.99999999999999
30
0
11
-508.16282522131394
21
120
31
0
0
LINE
5
597
100
AcDbEntity
8
0
100
AcDbLine
10
-846.32565044262776
20
119.99999999999999
30
0
11
-586.32565044262765
21
119.99999999999999
31
0
0
LINE
5
598
100
AcDbEntity
8
0
100
AcDbLine
10
-924.4884756639417
20
120
30
0
11
-846.32565044262776
21
119.99999999999999
31
0
0
LINE
5
599
100
AcDbEntity
8
0
100
AcDbLine
10
-1224.4884756639419
20
120
30
0
11
-924.4884756639417
21
120
31
0
0
LINE
5
600
100
AcDbEntity
8
0
100
AcDbLine
10
-1302.6513008852558
20
120
30
0
11
-1224.4884756639419
21
120
31
0
0
LINE
5
601
100
AcDbEntity
8
0
100
AcDbLine
10
-1432.4013008852558
20
119.99999999999999
30
0
11
-1302.6513008852558
21
120
31
0
0
LINE
5
602
100
AcDbEntity
8
0
100
AcDbLine
10
-1432.4013008852558
20
119.99999999999999
30
0
11
-1432.4013008852558
21
3.5527136788005009e-14
31
0
0
LINE
5
603
100
AcDbEntity
8
0
100
AcDbLine
10
-1302.6513008852558
20
4.0330845440008339e-14
30
0
11
-1432.4013008852558
21
3.5527136788005009e-14
31
0
0
LINE
5
604
100
AcDbEntity
8
0
100
AcDbLine
10
-1302.6513008852558
20
4.0000000000000409
30
0
11
-1224.4884756639419
21
4.0000000000000311
31
-5.9164567891575885e-30
0
LINE
5
605
100
AcDbEntity
8
0
100
AcDbLine
10
-1302.6513008852558
20
4.0000000000000409
30
0
11
-1302.6513008852558
21
4.0330845440008339e-14
31
0
0
LINE
5
606
100
AcDbEntity
8
0
100
AcDbLine
10
-1224.4884756639419
20
4.0000000000000311
30
-5.9164567891575885e-30
11
-1224.4884756639417
21
2.9976021664879227e-14
31
-7.2817929712708874e-30
0
LINE
5
607
100
AcDbEntity
8
0
100
AcDbLine
10
-1141.1551423306082
20
3.0233973072038998e-14
30
0
11
-1224.4884756639417
21
2.9976021664879227e-14
31
-7.2817929712708874e-30
0
LINE
5
608
100
AcDbEntity
8
0
100
AcDbLine
10
-1141.1551423306082
20
3.0233973072038998e-14
30
0
11
-1141.1551423306082
21
4.0000000000000311
31
0
0
LINE
5
609
100
AcDbEntity
8
0
100
AcDbLine
10
-1141.1551423306082
20
4.0000000000000311
30
0
11
-1007.8218089972747
21
4.0000000000000302
31
7.8886090522101181e-30
0
LINE
5
610
100
AcDbEntity
8
0
100
AcDbLine
10
-1007.8218089972747
20
4.0000000000000302
30
7.8886090522101181e-30
11
-1007.8218089972747
21
2.9976021664879227e-14
31
0
0
LINE
5
611
100
AcDbEntity
8
0
100
AcDbLine
10
-924.4884756639417
20
3.0233973072038966e-14
30
0
11
-1007.8218089972747
21
2.9976021664879227e-14
31
0
0
LINE
5
612
100
AcDbEntity
8
0
100
AcDbLine
10
-924.48847566394136
20
4.0000000000000302
30
0
11
-924.4884756639417
21
3.0233973072038966e-14
31
0
0
LINE
5
613
100
AcDbEntity
8
0
100
AcDbLine
10
-924.48847566394136
20
4.0000000000000302
30
0
11
-846.32565044262776
21
4.0000000000000204
31
1.9721522630525295e-30
0
LINE
5
614
100
AcDbEntity
8
0
100
AcDbLine
10
-846.32565044262776
20
4.0000000000000204
30
1.9721522630525295e-30
11
-846.32565044262776
21
1.9984014443252818e-14
31
3.9800193069580632e-45
0
LINE
5
615
100
AcDbEntity
8
0
100
AcDbLine
10
-826.32565044262776
20
2.0137100704069782e-14
30
0
11
-846.32565044262776
21
1.9984014443252818e-14
31
3.9800193069580632e-45
0
LINE
5
616
100
AcDbEntity
8
0
100
AcDbLine
10
-826.32565044262776
20
2.0137100704069782e-14
30
0
11
-826.32565044262776
21
4.0000000000000204
31
0
0
LINE
5
617
100
AcDbEntity
8
0
100
AcDbLine
10
-826.32565044262776
20
4.0000000000000204
30
0
11
-790.32565044262753
21
4.0000000000000204
31
-2.9582283945787943e-30
0
LINE
5
618
100
AcDbEntity
8
0
100
AcDbLine
10
-790.32565044262753
20
4.0000000000000204
30
-2.9582283945787943e-30
11
-790.32565044262753
21
1.9984014443252818e-14
31
0
0
LINE
5
619
100
AcDbEntity
8
0
100
AcDbLine
10
-761.32565044262776
20
2.0137100704069782e-14
30
0
11
-790.32565044262753
21
1.9984014443252818e-14
31
0
0
LINE
5
620
100
AcDbEntity
8
0
100
AcDbLine
10
-761.32565044262776
20
2.0137100704069782e-14
30
0
11
-761.32565044262776
21
4.0000000000000204
31
0
0
LINE
5
621
100
AcDbEntity
8
0
100
AcDbLine
10
-761.32565044262776
20
4.0000000000000204
30
0
11
-734.32565044262765
21
4.0000000000000204
31
0
0
LINE
5
622
100
AcDbEntity
8
0
100
AcDbLine
10
-734.32565044262765
20
4.0000000000000204
30
0
11
-734.32565044262765
21
1.9984014443252818e-14
31
0
0
LINE
5
623
100
AcDbEntity
8
0
100
AcDbLine
10
-698.32565044262765
20
2.0137100704069766e-14
30
0
11
-734.32565044262765
21
1.9984014443252818e-14
31
0
0
LINE
5
624
100
AcDbEntity
8
0
100
AcDbLine
10
-698.32565044262765
20
2.0137100704069766e-14
30
0
11
-698.32565044262765
21
4.0000000000000204
31
0
0
LINE
5
625
100
AcDbEntity
8
0
100
AcDbLine
10
-698.32565044262765
20
4.0000000000000204
30
0
11
-671.32565044262776
21
4.0000000000000204
31
9.8607613152626476e-31
0
LINE
5
626
100
AcDbEntity
8
0
100
AcDbLine
10
-671.32565044262776
20
4.0000000000000204
30
9.8607613152626476e-31
11
-671.32565044262776
21
1.9984014443252818e-14
31
0
0
LINE
5
627
100
AcDbEntity
8
0
100
AcDbLine
10
-642.32565044262765
20
2.0137100704069782e-14
30
0
11
-671.32565044262776
21
1.9984014443252818e-14
31
0
0
LINE
5
628
100
AcDbEntity
8
0
100
AcDbLine
10
-642.32565044262765
20
2.0137100704069782e-14
30
0
11
-642.32565044262765
21
4.0000000000000204
31
0
0
LINE
5
629
100
AcDbEntity
8
0
100
AcDbLine
10
-642.32565044262765
20
4.0000000000000204
30
0
11
-606.32565044262765
21
4.0000000000000204
31
0
0
LINE
5
630
100
AcDbEntity
8
0
100
AcDbLine
10
-606.32565044262765
20
4.0000000000000204
30
0
11
-606.32565044262765
21
1.9984014443252818e-14
31
0
0
LINE
5
631
100
AcDbEntity
8
0
100
AcDbLine
10
-586.32565044262765
20
2.0137100704069782e-14
30
0
11
-606.32565044262765
21
1.9984014443252818e-14
31
0
0
LINE
5
632
100
AcDbEntity
8
0
100
AcDbLine
10
-586.32565044262765
20
4.0000000000000204
30
0
11
-586.32565044262765
21
2.0137100704069782e-14
31
0
0
LINE
5
633
100
AcDbEntity
8
0
100
AcDbLine
10
-586.32565044262765
20
4.0000000000000204
30
0
11
-508.16282522131394
21
4.0000000000000107
31
0
0
LINE
5
634
100
AcDbEntity
8
0
100
AcDbLine
10
-508.16282522131394
20
4.0000000000000107
30
0
11
-508.16282522131394
21
9.9920072216264089e-15
31
3.3166827557983868e-45
0
LINE
5
635
100
AcDbEntity
8
0
100
AcDbLine
10
-424.82949188798051
20
1.0040228336100566e-14
30
0
11
-508.16282522131394
21
9.9920072216264089e-15
31
3.3166827557983868e-45
0
LINE
5
636
100
AcDbEntity
8
0
100
AcDbLine
10
-424.82949188798051
20
1.0040228336100566e-14
30
0
11
-424.82949188798051
21
4.0000000000000107
31
0
0
LINE
5
637
100
AcDbEntity
8
0
100
AcDbLine
10
-424.82949188798051
20
4.0000000000000107
30
0
11
-291.4961585546472
21
4.0000000000000107
31
3.944304526105059e-30
0
LINE
5
638
100
AcDbEntity
8
0
100
AcDbLine
10
-291.4961585546472
20
4.0000000000000107
30
3.944304526105059e-30
11
-291.4961585546472
21
9.9920072216264089e-15
31
0
0
LINE
5
639
100
AcDbEntity
8
0
100
AcDbLine
10
-208.16282522131385
20
1.0040228336100574e-14
30
0
11
-291.4961585546472
21
9.9920072216264089e-15
31
0
0
LINE
5
640
100
AcDbEntity
8
0
100
AcDbLine
10
-208.16282522131377
20
4.0000000000000107
30
0
11
-208.16282522131385
21
1.0040228336100574e-14
31
0
0
LWPOLYLINE
5
641
100
AcDbEntity
8
0
100
AcDbPolyline
90
4
70
1
43
0.0
10
-946.48847566391851
20
100.00000000000001
10
-1007.8218089972012
20
100
10
-1007.8218089972012
20
104
10
-946.48847566391851
20
104.00000000000003
0
LWPOLYLINE
5
642
100
AcDbEntity
8
0
100
AcDbPolyline
90
4
70
1
43
0.0
10
-1141.1551423305345
20
100.00000000000001
10
-1204.48847789914
20
100.00000000000001
10
-1204.48847789914
20
104.00000000000003
10
-1141.1551423305345
20
104.00000000000003
0
LWPOLYLINE
5
643
100
AcDbEntity
8
0
100
AcDbPolyline
90
4
70
1
43
0.0
10
-776.32565044267244
20
100
10
-824.32565044267244
20
100.00000000000001
10
-824.32565044267244
20
104.00000000000003
10
-776.32565044267244
20
104
0
LWPOLYLINE
5
644
100
AcDbEntity
8
0
100
AcDbPolyline
90
4
70
1
43
0.0
10
-608.32565044267176
20
100
10
-656.3256504426721
20
100
10
-656.3256504426721
20
104
10
-608.32565044267176
20
104
0
LWPOLYLINE
5
645
100
AcDbEntity
8
0
100
AcDbPolyline
90
4
70
1
43
0.0
10
-486.162825221361
20
100
10
-486.162825221361
20
104
10
-424.82949188807845
20
104.00000000000003
10
-424.82949188807845
20
100.00000000000001
0
LWPOLYLINE
5
646
100
AcDbEntity
8
0
100
AcDbPolyline
90
4
70
1
43
0.0
10
-291.49615855474502
20
100
10
-291.49615855474502
20
104
10
-228.16282298613964
20
104.00000000000003
10
-228.16282298613964
20
100.00000000000001
0
CIRCLE
5
647
100
AcDbEntity
8
0
100
AcDbCircle
10
-1402.6513008852558
20
30.000000000000032
30
0
40
15
210
2.4651903288156619e-32
220
7.0878397000048569e-78
230
1
0
LINE
5
648
100
AcDbEntity
8
1
100
AcDbLine
10
-65.125000000000057
20
0
30
9.8607613152626476e-31
11
-65.125000000000057
21
30
31
9.8607613152626476e-31
0
CIRCLE
5
649
100
AcDbEntity
8
0
100
AcDbCircle
10
-65.125000000000057
20
30
30
9.8607613152626476e-31
40
5
210
0
220
0
230
1
0
LINE
5
650
100
AcDbEntity
8
1
100
AcDbLine
10
-130.00000000000011
20
0
30
0
11
-208.16282522131385
21
1.0040228336100574e-14
31
0
0
LINE
5
651
100
AcDbEntity
8
1
100
AcDbLine
10
-169.08141261065697
20
5.0201141680502872e-15
30
0
11
-169.08141261065694
21
119.99999999999999
31
0
0
CIRCLE
5
652
100
AcDbEntity
8
0
100
AcDbCircle
10
-273.03782522131388
20
30.000000000000036
30
9.8607613152626476e-31
40
5
210
0
220
0
230
1
0
LINE
5
653
100
AcDbEntity
8
1
100
AcDbLine
10
-716.32565044262776
20
119.99999999999999
30
0
11
-716.32565044262765
21
2.006055757366129e-14
31
0
0
CIRCLE
5
654
100
AcDbEntity
8
0
100
AcDbCircle
10
-1367.5263008852551
20
29.999999999999076
30
9.8607613152626476e-31
40
5
210
0
220
0
230
1
0
CIRCLE
5
655
100
AcDbEntity
8
0
100
AcDbCircle
10
-1159.6134756639415
20
29.999999999999396
30
9.8607613152626476e-31
40
5
210
0
220
0
230
1
0
CIRCLE
5
656
100
AcDbEntity
8
0
100
AcDbCircle
10
-716.32565044262776
20
59.999999999999993
30
0
40
4.5000000000000284
210
0
220
0
230
1
0
LINE
5
657
100
AcDbEntity
8
1
100
AcDbLine
10
-716.32565044262776
20
55.499999999999964
30
0
11
-716.32565044262776
21
47.488999999999955
31
0
0
LINE
5
658
100
AcDbEntity
8
1
100
AcDbLine
10
-716.32565044262776
20
47.488999999999955
30
0
11
-708.87265044262779
21
47.488999999999955
31
0
0
LINE
5
659
100
AcDbEntity
8
1
100
AcDbLine
10
-716.32565044262776
20
47.488999999999955
30
0
11
-723.77865044262785
21
47.488999999999947
31
0
0
LINE
5
660
100
AcDbEntity
8
1
100
AcDbLine
10
-723.77865044262785
20
47.488999999999947
30
0
11
-732.77865044262796
21
47.488999999999947
31
0
0
LINE
5
661
100
AcDbEntity
8
1
100
AcDbLine
10
-732.77865044262796
20
47.488999999999947
30
0
11
-732.77865044262796
21
38.488999999999933
31
0
0
LINE
5
662
100
AcDbEntity
8
1
100
AcDbLine
10
-732.77865044262796
20
38.488999999999933
30
0
11
-723.77865044262785
21
38.488999999999933
31
0
0
LINE
5
663
100
AcDbEntity
8
1
100
AcDbLine
10
-723.77865044262785
20
38.488999999999933
30
0
11
-723.77865044262785
21
47.488999999999947
31
0
0
LINE
5
664
100
AcDbEntity
8
1
100
AcDbLine
10
-708.87265044262779
20
47.488999999999955
30
0
11
-699.87265044262767
21
47.488999999999955
31
0
0
LINE
5
665
100
AcDbEntity
8
1
100
AcDbLine
10
-699.87265044262767
20
47.488999999999955
30
0
11
-699.87265044262767
21
38.48899999999994
31
0
0
LINE
5
666
100
AcDbEntity
8
1
100
AcDbLine
10
-699.87265044262767
20
38.48899999999994
30
0
11
-708.87265044262779
21
38.48899999999994
31
0
0
LINE
5
667
100
AcDbEntity
8
1
100
AcDbLine
10
-708.87265044262779
20
38.48899999999994
30
0
11
-708.87265044262779
21
47.488999999999955
31
0
0
LINE
5
668
100
AcDbEntity
8
1
100
AcDbLine
10
-699.87265044262767
20
38.48899999999994
30
0
11
-708.87265044262779
21
47.488999999999955
31
0
0
LINE
5
669
100
AcDbEntity
8
1
100
AcDbLine
10
-708.87265044262779
20
38.48899999999994
30
0
11
-699.87265044262767
21
47.488999999999955
31
0
0
LINE
5
670
100
AcDbEntity
8
1
100
AcDbLine
10
-723.77865044262785
20
38.488999999999933
30
0
11
-732.77865044262796
21
47.488999999999947
31
0
0
LINE
5
671
100
AcDbEntity
8
1
100
AcDbLine
10
-732.77865044262796
20
38.488999999999933
30
0
11
-723.77865044262785
21
47.488999999999947
31
0
0
CIRCLE
5
672
100
AcDbEntity
8
0
100
AcDbCircle
10
-728.27865044262796
20
42.989000000000004
30
0
40
1.4999999999999969
210
0
220
0
230
1
0
CIRCLE
5
673
100
AcDbEntity
8
0
100
AcDbCircle
10
-704.3726504426279
20
42.988999999999976
30
0
40
1.5000000000000568
210
0
220
0
230
1
0
LINE
5
674
100
AcDbEntity
8
1
100
AcDbLine
10
-704.3726504426279
20
42.988999999999976
30
0
11
-704.3726504426279
21
98.98899999999999
31
0
0
LINE
5
675
100
AcDbEntity
8
1
100
AcDbLine
10
-728.27865044262796
20
42.989000000000004
30
0
11
-728.27865044262796
21
98.989000000000004
31
0
0
CIRCLE
5
676
100
AcDbEntity
8
0
100
AcDbCircle
10
-704.3726504426279
20
98.98899999999999
30
0
40
1.5000000000000568
210
0
220
0
230
1
0
CIRCLE
5
677
100
AcDbEntity
8
0
100
AcDbCircle
10
-728.27865044262796
20
98.989000000000004
30
0
40
1.5000000000000568
210
0
220
0
230
1
0
LINE
5
678
100
AcDbEntity
8
0
100
AcDbLine
10
-508.16282522131394
20
1.0812524428833485e-14
30
0
11
-424.82949188798051
21
1.0812524428833485e-14
31
-1.9721522630525295e-30
0
ENDSEC
0
SECTION
2
OBJECTS
0
DICTIONARY
5
C
100
AcDbDictionary
3
ACAD_GROUP
350
D
3
ACAD_MLINESTYLE
350
17
0
DICTIONARY
5
D
100
AcDbDictionary
0
DICTIONARY
5
1A
330
C
100
AcDbDictionary
0
DICTIONARY
5
17
100
AcDbDictionary
0
ENDSEC
0
EOF
