0
SECTION
2
HEADER
9
$INSUNITS
70
4
9
$ACADVER
1
AC1014
9
$HANDSEED
5
FFFF
0
ENDSEC
0
SECTION
2
TABLES
0
TABLE
2
VPORT
5
8
100
AcDbSymbolTable
0
ENDTAB
0
TABLE
2
LTYPE
5
5
100
AcDbSymbolTable
0
LTYPE
5
14
100
AcDbSymbolTableRecord
100
AcDbLinetypeTableRecord
2
BYBLOCK
70
0
0
LTYPE
5
15
100
AcDbSymbolTableRecord
100
AcDbLinetypeTableRecord
2
BYLAYER
70
0
0
LTYPE
5
16
100
AcDbSymbolTableRecord
100
AcDbLinetypeTableRecord
2
DASHED
70
0
3
Dashed __ __ __ __ __ __ __ __ __ __ __ __ __ _
72
65
73
2
40
0.75
49
0.5
74
0
49
-0.25
74
0
0
ENDTAB
0
TABLE
2
LAYER
5
2
100
AcDbSymbolTable
70
3
0
LAYER
5
50
100
AcDbSymbolTableRecord
100
AcDbLayerTableRecord
2
1
70
0
62
7
6
DASHED
0
LAYER
5
51
100
AcDbSymbolTableRecord
100
AcDbLayerTableRecord
2
0
70
0
62
7
6
CONTINUOUS
0
ENDTAB
0
TABLE
2
STYLE
5
3
100
AcDbSymbolTable
70
1
0
STYLE
5
11
100
AcDbSymbolTableRecord
100
AcDbTextStyleTableRecord
2
STANDARD
70
0
0
ENDTAB
0
TABLE
2
VIEW
5
6
100
AcDbSymbolTable
70
0
0
ENDTAB
0
TABLE
2
UCS
5
7
100
AcDbSymbolTable
70
0
0
ENDTAB
0
TABLE
2
APPID
5
9
100
AcDbSymbolTable
70
2
0
APPID
5
12
100
AcDbSymbolTableRecord
100
AcDbRegAppTableRecord
2
ACAD
70
0
0
ENDTAB
0
TABLE
2
DIMSTYLE
5
A
100
AcDbSymbolTable
70
1
0
ENDTAB
0
TABLE
2
BLOCK_RECORD
5
1
100
AcDbSymbolTable
70
1
0
BLOCK_RECORD
5
1F
100
AcDbSymbolTableRecord
100
AcDbBlockTableRecord
2
*MODEL_SPACE
0
BLOCK_RECORD
5
1B
100
AcDbSymbolTableRecord
100
AcDbBlockTableRecord
2
*PAPER_SPACE
0
ENDTAB
0
ENDSEC
0
SECTION
2
BLOCKS
0
BLOCK
5
20
100
AcDbEntity
100
AcDbBlockBegin
2
*MODEL_SPACE
0
ENDBLK
5
21
100
AcDbEntity
100
AcDbBlockEnd
0
BLOCK
5
1C
100
AcDbEntity
100
AcDbBlockBegin
2
*PAPER_SPACE
0
ENDBLK
5
1D
100
AcDbEntity
100
AcDbBlockEnd
0
ENDSEC
0
SECTION
2
ENTITIES
0
POINT
5
100
100
AcDbEntity
8
0
100
AcDbPoint
10
0
20
0
30
0
0
LWPOLYLINE
5
101
100
AcDbEntity
8
0
100
AcDbPolyline
90
8
70
1
43
0.0
10
88.500000089406797
20
141.00000008940705
10
93.500000089406811
20
141.00000008940702
42
-0.41421356237309503
10
103.5000000894068
20
131.00000008940705
10
103.50000008940688
20
71.000000089407052
42
-0.41421356237309609
10
93.500000089406882
20
61.000000089407052
10
88.500000089406882
20
61.000000089407038
42
-0.41421356237309609
10
78.500000089406882
20
71.000000089407038
10
78.500000089406825
20
131.00000008940702
42
-0.41421356237309453
0
LWPOLYLINE
5
102
100
AcDbEntity
8
0
100
AcDbPolyline
90
8
70
1
43
0.0
10
-88.500000089406953
20
61.000000089406953
10
-93.500000089406953
20
61.000000089406953
42
-0.41421356237309609
10
-103.50000008940695
20
71.000000089406953
10
-103.50000008940695
20
131.00000008940694
42
-0.41421356237309609
10
-93.500000089406953
20
141.00000008940694
10
-88.500000089406939
20
141.00000008940694
42
-0.41421356237309453
10
-78.500000089406967
20
131.00000008940697
10
-78.500000089406953
20
71.000000089406953
42
-0.41421356237309609
0
LINE
5
103
100
AcDbEntity
8
0
100
AcDbLine
10
-130.00000000000014
20
198
30
0
11
-130.00000000000014
21
202.00000000000006
31
0
0
ARC
5
104
100
AcDbEntity
8
0
100
AcDbCircle
10
-130
20
150.00000000000009
30
0
40
51.999999999999972
210
0
220
0
230
1
100
AcDbArc
50
90.000000000000171
51
180
0
LINE
5
105
100
AcDbEntity
8
0
100
AcDbLine
10
-182.00000017881382
20
150.00000000000003
30
0
11
-177.99999999999994
21
150.00000000000006
31
0
0
LINE
5
106
100
AcDbEntity
8
0
100
AcDbLine
10
-177.99999999999994
20
150.00000000000006
30
0
11
-177.99999999999994
21
66.666666666666657
31
0
0
LINE
5
107
100
AcDbEntity
8
0
100
AcDbLine
10
-177.99999999999994
20
66.666666666666657
30
0
11
-181.99999999999991
21
66.666666666666671
31
0
0
LINE
5
108
100
AcDbEntity
8
0
100
AcDbLine
10
-181.99999999999991
20
66.666666666666671
30
0
11
-182.00000017881388
21
0
31
0
0
LINE
5
109
100
AcDbEntity
8
0
100
AcDbLine
10
182.00000017881388
20
1.0658141036401503e-13
30
0
11
181.99999999999989
21
66.666666666666686
31
0
0
LINE
5
110
100
AcDbEntity
8
0
100
AcDbLine
10
181.99999999999989
20
66.666666666666686
30
0
11
177.99999999999989
21
66.666666666666686
31
0
0
LINE
5
111
100
AcDbEntity
8
0
100
AcDbLine
10
177.99999999999989
20
66.666666666666686
30
0
11
177.99999999999986
21
150.00000000000028
31
0
0
LINE
5
112
100
AcDbEntity
8
0
100
AcDbLine
10
177.99999999999986
20
150.00000000000028
30
0
11
181.99999999999994
21
150.00000000000028
31
0
0
ARC
5
113
100
AcDbEntity
8
0
100
AcDbCircle
10
130
20
150.00000000000023
30
0
40
51.999999999999957
210
0
220
-0
230
1
100
AcDbArc
50
0
51
90.000000000000057
0
LINE
5
114
100
AcDbEntity
8
0
100
AcDbLine
10
129.99999999999994
20
202.00000017881399
30
0
11
129.99999999999989
21
198.00000000000009
31
0
0
LINE
5
115
100
AcDbEntity
8
0
100
AcDbLine
10
129.99999999999989
20
198.00000000000009
30
0
11
-130.00000000000014
21
198
31
0
0
LWPOLYLINE
5
116
100
AcDbEntity
8
0
100
AcDbPolyline
90
8
70
1
43
0.0
10
93.500000089406811
20
141.00000008940702
10
88.500000089406797
20
141.00000008940702
42
0.41421356237309553
10
78.500000089406825
20
131.00000008940702
10
78.500000089406882
20
71.000000089407038
42
0.41421356237309609
10
88.500000089406882
20
61.000000089407038
10
93.500000089406882
20
61.000000089407067
42
0.41421356237309609
10
103.50000008940688
20
71.000000089407052
10
103.50000008940681
20
131.00000008940705
42
0.41421356237309609
0
LWPOLYLINE
5
117
100
AcDbEntity
8
0
100
AcDbPolyline
90
8
70
1
43
0.0
10
-93.500000089406953
20
61.000000089406939
10
-88.500000089406953
20
61.000000089406939
42
0.41421356237309609
10
-78.500000089406953
20
71.000000089406953
10
-78.500000089406967
20
131.00000008940697
42
0.41421356237309453
10
-88.500000089406939
20
141.00000008940694
10
-93.500000089406953
20
141.00000008940694
42
0.41421356237309609
10
-103.50000008940695
20
131.00000008940694
10
-103.50000008940695
20
71.000000089406953
42
0.41421356237309609
0
LINE
5
118
100
AcDbEntity
8
0
100
AcDbLine
10
-130.00000000000014
20
202.00000000000006
30
0
11
-129.99999999999997
21
198
31
0
0
ARC
5
119
100
AcDbEntity
8
0
100
AcDbCircle
10
-130
20
150.00000000000006
30
0
40
51.999999999999993
210
0
220
0
230
1
100
AcDbArc
50
90.000000000000171
51
180
0
LINE
5
120
100
AcDbEntity
8
0
100
AcDbLine
10
-177.99999999999994
20
150.00000000000006
30
0
11
-182.00000017881388
21
150.00000000000006
31
0
0
LINE
5
121
100
AcDbEntity
8
0
100
AcDbLine
10
-177.99999999999994
20
66.666666666666686
30
0
11
-177.99999999999994
21
150.00000000000006
31
0
0
LINE
5
122
100
AcDbEntity
8
0
100
AcDbLine
10
-181.99999999999991
20
66.666666666666671
30
0
11
-177.99999999999994
21
66.666666666666686
31
0
0
LINE
5
123
100
AcDbEntity
8
0
100
AcDbLine
10
-181.99999999999991
20
0
30
0
11
-181.99999999999991
21
66.666666666666671
31
0
0
LINE
5
124
100
AcDbEntity
8
0
100
AcDbLine
10
181.99999999999989
20
66.666666666666686
30
0
11
182.00000017881388
21
1.0658141036401503e-13
31
0
0
LINE
5
125
100
AcDbEntity
8
0
100
AcDbLine
10
177.99999999999989
20
66.666666666666686
30
0
11
181.99999999999989
21
66.666666666666686
31
0
0
LINE
5
126
100
AcDbEntity
8
0
100
AcDbLine
10
177.99999999999986
20
150.00000000000014
30
0
11
177.99999999999989
21
66.666666666666686
31
0
0
LINE
5
127
100
AcDbEntity
8
0
100
AcDbLine
10
181.99999999999994
20
150.00000000000028
30
0
11
177.99999999999986
21
150.00000000000014
31
0
0
ARC
5
128
100
AcDbEntity
8
0
100
AcDbCircle
10
130
20
150.00000000000023
30
0
40
51.999999999999957
210
0
220
-0
230
1
100
AcDbArc
50
0
51
90.000000000000043
0
LINE
5
129
100
AcDbEntity
8
0
100
AcDbLine
10
129.99999999999989
20
198.00000000000009
30
0
11
129.99999999999997
21
202.00000017881399
31
0
0
LINE
5
130
100
AcDbEntity
8
0
100
AcDbLine
10
-129.99999999999997
20
198
30
0
11
129.99999999999989
21
198.00000000000009
31
0
0
CIRCLE
5
131
100
AcDbEntity
8
0
100
AcDbCircle
10
0
20
0
30
0
40
14.999999999999998
210
0
220
0
230
1
0
LINE
5
132
100
AcDbEntity
8
0
100
AcDbLine
10
-14.999999999999998
20
4.8898614071557019e-14
30
0
11
-181.99999999999991
21
0
31
0
0
LINE
5
133
100
AcDbEntity
8
0
100
AcDbLine
10
14.999999999999998
20
5.7682796240100193e-14
30
0
11
182.00000017881388
21
1.0658141036401503e-13
31
0
0
LINE
5
134
100
AcDbEntity
8
0
100
AcDbLine
10
-2.3229281746003269e-14
20
153.00000000000006
30
0
11
-36.100000000000023
21
153.00000000000003
31
0
0
LINE
5
135
100
AcDbEntity
8
0
100
AcDbLine
10
-2.3229281746003269e-14
20
153.00000000000006
30
0
11
36.09999999999998
21
153.00000000000006
31
0
0
LWPOLYLINE
5
136
100
AcDbEntity
8
0
100
AcDbPolyline
90
4
70
1
43
0.0
10
36.09999999999998
20
153.00000000000006
10
-36.100000000000023
20
153.00000000000006
10
-36.100000000000023
20
128.90000000000006
10
36.09999999999998
20
128.90000000000006
0
CIRCLE
5
137
100
AcDbEntity
8
0
100
AcDbCircle
10
37.499999999999986
20
156.45000000000005
30
0
40
1.5000000000000024
210
0
220
0
230
1
0
CIRCLE
5
138
100
AcDbEntity
8
0
100
AcDbCircle
10
37.499999999999986
20
125.45000000000005
30
0
40
1.5000000000000033
210
0
220
0
230
1
0
CIRCLE
5
139
100
AcDbEntity
8
0
100
AcDbCircle
10
-37.500000000000028
20
156.45000000000005
30
0
40
1.5000000000000002
210
0
220
0
230
1
0
CIRCLE
5
140
100
AcDbEntity
8
0
100
AcDbCircle
10
-37.500000000000028
20
125.45000000000005
30
0
40
1.4999999999999991
210
0
220
0
230
1
0
ENDSEC
0
SECTION
2
OBJECTS
0
DICTIONARY
5
C
100
AcDbDictionary
3
ACAD_GROUP
350
D
3
ACAD_MLINESTYLE
350
17
0
DICTIONARY
5
D
100
AcDbDictionary
0
DICTIONARY
5
1A
330
C
100
AcDbDictionary
0
DICTIONARY
5
17
100
AcDbDictionary
0
ENDSEC
0
EOF
