0
SECTION
2
HEADER
9
$INSUNITS
70
4
9
$ACADVER
1
AC1014
9
$HANDSEED
5
FFFF
0
ENDSEC
0
SECTION
2
TABLES
0
TABLE
2
VPORT
5
8
100
AcDbSymbolTable
0
ENDTAB
0
TABLE
2
LTYPE
5
5
100
AcDbSymbolTable
0
LTYPE
5
14
100
AcDbSymbolTableRecord
100
AcDbLinetypeTableRecord
2
BYBLOCK
70
0
0
LTYPE
5
15
100
AcDbSymbolTableRecord
100
AcDbLinetypeTableRecord
2
BYLAYER
70
0
0
LTYPE
5
16
100
AcDbSymbolTableRecord
100
AcDbLinetypeTableRecord
2
DASHED
70
0
3
Dashed __ __ __ __ __ __ __ __ __ __ __ __ __ _
72
65
73
2
40
0.75
49
0.5
74
0
49
-0.25
74
0
0
ENDTAB
0
TABLE
2
LAYER
5
2
100
AcDbSymbolTable
70
3
0
LAYER
5
50
100
AcDbSymbolTableRecord
100
AcDbLayerTableRecord
2
1
70
0
62
7
6
DASHED
0
LAYER
5
51
100
AcDbSymbolTableRecord
100
AcDbLayerTableRecord
2
0
70
0
62
7
6
CONTINUOUS
0
ENDTAB
0
TABLE
2
STYLE
5
3
100
AcDbSymbolTable
70
1
0
STYLE
5
11
100
AcDbSymbolTableRecord
100
AcDbTextStyleTableRecord
2
STANDARD
70
0
0
ENDTAB
0
TABLE
2
VIEW
5
6
100
AcDbSymbolTable
70
0
0
ENDTAB
0
TABLE
2
UCS
5
7
100
AcDbSymbolTable
70
0
0
ENDTAB
0
TABLE
2
APPID
5
9
100
AcDbSymbolTable
70
2
0
APPID
5
12
100
AcDbSymbolTableRecord
100
AcDbRegAppTableRecord
2
ACAD
70
0
0
ENDTAB
0
TABLE
2
DIMSTYLE
5
A
100
AcDbSymbolTable
70
1
0
ENDTAB
0
TABLE
2
BLOCK_RECORD
5
1
100
AcDbSymbolTable
70
1
0
BLOCK_RECORD
5
1F
100
AcDbSymbolTableRecord
100
AcDbBlockTableRecord
2
*MODEL_SPACE
0
BLOCK_RECORD
5
1B
100
AcDbSymbolTableRecord
100
AcDbBlockTableRecord
2
*PAPER_SPACE
0
ENDTAB
0
ENDSEC
0
SECTION
2
BLOCKS
0
BLOCK
5
20
100
AcDbEntity
100
AcDbBlockBegin
2
*MODEL_SPACE
0
ENDBLK
5
21
100
AcDbEntity
100
AcDbBlockEnd
0
BLOCK
5
1C
100
AcDbEntity
100
AcDbBlockBegin
2
*PAPER_SPACE
0
ENDBLK
5
1D
100
AcDbEntity
100
AcDbBlockEnd
0
ENDSEC
0
SECTION
2
ENTITIES
0
CIRCLE
5
100
100
AcDbEntity
8
0
100
AcDbCircle
10
-94.800000000012403
20
103.10000000002253
30
0
40
1.4000000000000057
210
0
220
0
230
1
0
CIRCLE
5
101
100
AcDbEntity
8
0
100
AcDbCircle
10
94.800000000044435
20
72.900000000047186
30
0
40
1.4000000000000057
210
0
220
0
230
1
0
CIRCLE
5
102
100
AcDbEntity
8
0
100
AcDbCircle
10
77.399999567910754
20
103.10000000004719
30
0
40
1.3999999999999968
210
0
220
0
230
1
0
CIRCLE
5
103
100
AcDbEntity
8
0
100
AcDbCircle
10
-94.80000000001067
20
72.900000000022544
30
0
40
1.4000000000000057
210
0
220
0
230
1
0
CIRCLE
5
104
100
AcDbEntity
8
0
100
AcDbCircle
10
-77.399999567878723
20
103.10000000002354
30
0
40
1.3999999999999968
210
0
220
0
230
1
0
CIRCLE
5
105
100
AcDbEntity
8
0
100
AcDbCircle
10
77.399999567910768
20
72.900000000047186
30
0
40
1.3999999999999968
210
0
220
0
230
1
0
CIRCLE
5
106
100
AcDbEntity
8
0
100
AcDbCircle
10
94.800000000044435
20
103.10000000004719
30
0
40
1.4000000000000057
210
0
220
0
230
1
0
CIRCLE
5
107
100
AcDbEntity
8
0
100
AcDbCircle
10
-77.399999567876989
20
72.900000000023539
30
0
40
1.3999999999999968
210
0
220
0
230
1
0
LWPOLYLINE
5
108
100
AcDbEntity
8
0
100
AcDbPolyline
90
4
70
1
43
0.0
10
108.00000000004445
20
8.0000000000472227
10
108.00000000004442
20
168.00000000004715
10
148.00000000004442
20
168.00000000004724
10
148.00000000004445
20
8.0000000000472227
0
LWPOLYLINE
5
109
100
AcDbEntity
8
0
100
AcDbPolyline
90
4
70
1
43
0.0
10
-148.00000000003749
20
8.0000000000669758
10
-148.00000000001666
20
168.0000000000083
10
-108.00000000001614
20
167.99999999998192
10
-108.00000000000693
20
8.0000000000616343
0
LWPOLYLINE
5
110
100
AcDbEntity
8
0
100
AcDbPolyline
90
40
70
1
43
0.0
10
-129.01015244590656
20
-197.98979487886757
42
0.0050511488398354981
10
-127.99999999997522
20
-197.99999999995296
10
128.00000000001089
20
-197.99999999995296
42
0.0050511488377389781
10
129.01015244552309
20
-197.98979487887607
42
0.42634663657896754
10
177.9897947283996
20
-149.01015989569822
42
0.0050511860975313303
10
178.00000000004442
20
-147.99999999993841
10
178.00000265245146
20
-130.00000223519794
10
182.00000000003595
20
-130.00000223519848
10
182.00000000004445
20
-66.666666666593059
10
178.00000000004442
20
-66.666666666593073
10
178.00000000004445
20
66.666666666740284
10
182.00000000004445
20
66.666666666740298
10
182.00000000005261
20
128.00000000002296
10
178.00000000004445
20
128.00000000002353
10
178.00000000004445
20
148.00000000008563
42
0.005051186094477249
10
177.98979472843075
20
149.01015989523424
42
0.42634663655644772
10
129.01015244965029
20
197.98979487892578
42
0.0050511488582109564
10
128.00000000004442
20
198.00000000003021
10
108.00000000004468
20
198.00000000003021
10
108.00000000004468
20
202.0000000000328
10
60.0000000000448
20
202.00000000003914
10
60.000000000044267
20
198.00000000004727
10
-59.999999999955733
20
198.00000000004727
10
-59.999999999955733
20
202.00000000004712
10
-107.99999999995589
20
202.00000000004712
10
-107.99999999995589
20
198.00000000004727
10
-127.99999999995589
20
198.00000000004727
42
0.0050511488514542839
10
-129.01015244821042
20
197.98979487891501
42
0.42634663656587912
10
-177.98979472834489
20
149.01015989507732
42
0.0050511860938837428
10
-177.99999999995575
20
148.00000000004721
10
-177.99999999995575
20
128.00000000004724
10
-181.99999999997345
20
128.00000000004724
10
-181.99999999997345
20
66.666666666764598
10
-177.99999999995575
20
66.666666666764058
10
-178.00000265240669
20
-66.666666666568787
10
-181.99999999999122
20
-66.666666666568787
10
-181.99999999999122
20
-130.00000223517418
10
-178.00000265240669
20
-130.00000223517418
10
-177.99999999995578
20
-147.99999999995526
42
0.0050511860941337841
10
-177.98979472834424
20
-149.0101598950348
42
0.42634663658032507
0
ELLIPSE
5
111
100
AcDbEntity
8
0
100
AcDbEllipse
10
46.000000000044416
20
70.724090002775469
30
0
11
-1.3999999999999968
21
-3.1086244689504322e-16
31
0.0
40
0.99994037008760184
41
0
42
6.2831853071795862
0
ELLIPSE
5
112
100
AcDbEntity
8
0
100
AcDbEllipse
10
46.000000000044416
20
105.33320396797973
30
0
11
3.1088098470768834e-16
21
-1.4000834868861176
31
0.0
40
0.99994037006585479
41
0
42
6.2831853071795862
0
ELLIPSE
5
113
100
AcDbEntity
8
0
100
AcDbEllipse
10
-46.000000000010523
20
70.666796032092805
30
0
11
-8.0518175039331369e-14
21
1.4000834868861176
31
0.0
40
0.99994037006585479
41
0
42
6.2831853071795862
0
ELLIPSE
5
114
100
AcDbEntity
8
0
100
AcDbEllipse
10
-46.000000000012513
20
105.27590999729705
30
0
11
1.3999999999999968
21
8.051337374585628e-14
31
0.0
40
0.99994037008760184
41
0
42
6.2831853071795862
0
ENDSEC
0
SECTION
2
OBJECTS
0
DICTIONARY
5
C
100
AcDbDictionary
3
ACAD_GROUP
350
D
3
ACAD_MLINESTYLE
350
17
0
DICTIONARY
5
D
100
AcDbDictionary
0
DICTIONARY
5
1A
330
C
100
AcDbDictionary
0
DICTIONARY
5
17
100
AcDbDictionary
0
ENDSEC
0
EOF
