0
SECTION
2
HEADER
9
$INSUNITS
70
4
9
$ACADVER
1
AC1014
9
$HANDSEED
5
FFFF
0
ENDSEC
0
SECTION
2
TABLES
0
TABLE
2
VPORT
5
8
100
AcDbSymbolTable
0
ENDTAB
0
TABLE
2
LTYPE
5
5
100
AcDbSymbolTable
0
LTYPE
5
14
100
AcDbSymbolTableRecord
100
AcDbLinetypeTableRecord
2
BYBLOCK
70
0
0
LTYPE
5
15
100
AcDbSymbolTableRecord
100
AcDbLinetypeTableRecord
2
BYLAYER
70
0
0
LTYPE
5
16
100
AcDbSymbolTableRecord
100
AcDbLinetypeTableRecord
2
DASHED
70
0
3
Dashed __ __ __ __ __ __ __ __ __ __ __ __ __ _
72
65
73
2
40
0.75
49
0.5
74
0
49
-0.25
74
0
0
ENDTAB
0
TABLE
2
LAYER
5
2
100
AcDbSymbolTable
70
3
0
LAYER
5
50
100
AcDbSymbolTableRecord
100
AcDbLayerTableRecord
2
1
70
0
62
7
6
DASHED
0
LAYER
5
51
100
AcDbSymbolTableRecord
100
AcDbLayerTableRecord
2
0
70
0
62
7
6
CONTINUOUS
0
ENDTAB
0
TABLE
2
STYLE
5
3
100
AcDbSymbolTable
70
1
0
STYLE
5
11
100
AcDbSymbolTableRecord
100
AcDbTextStyleTableRecord
2
STANDARD
70
0
0
ENDTAB
0
TABLE
2
VIEW
5
6
100
AcDbSymbolTable
70
0
0
ENDTAB
0
TABLE
2
UCS
5
7
100
AcDbSymbolTable
70
0
0
ENDTAB
0
TABLE
2
APPID
5
9
100
AcDbSymbolTable
70
2
0
APPID
5
12
100
AcDbSymbolTableRecord
100
AcDbRegAppTableRecord
2
ACAD
70
0
0
ENDTAB
0
TABLE
2
DIMSTYLE
5
A
100
AcDbSymbolTable
70
1
0
ENDTAB
0
TABLE
2
BLOCK_RECORD
5
1
100
AcDbSymbolTable
70
1
0
BLOCK_RECORD
5
1F
100
AcDbSymbolTableRecord
100
AcDbBlockTableRecord
2
*MODEL_SPACE
0
BLOCK_RECORD
5
1B
100
AcDbSymbolTableRecord
100
AcDbBlockTableRecord
2
*PAPER_SPACE
0
ENDTAB
0
ENDSEC
0
SECTION
2
BLOCKS
0
BLOCK
5
20
100
AcDbEntity
100
AcDbBlockBegin
2
*MODEL_SPACE
0
ENDBLK
5
21
100
AcDbEntity
100
AcDbBlockEnd
0
BLOCK
5
1C
100
AcDbEntity
100
AcDbBlockBegin
2
*PAPER_SPACE
0
ENDBLK
5
1D
100
AcDbEntity
100
AcDbBlockEnd
0
ENDSEC
0
SECTION
2
ENTITIES
0
LWPOLYLINE
5
100
100
AcDbEntity
8
0
100
AcDbPolyline
90
8
70
1
43
0.0
10
105.7906901562241
20
-30.872889007712729
10
-71.984756076302489
20
-30.872889007712729
42
5.6227593743276891
10
-71.984756076302531
20
-50.872889007712736
10
105.7906901562241
20
-50.872889007712729
10
105.7906901562241
20
-56.025735421121048
10
110.7906901562241
20
-56.025735421121048
10
110.7906901562241
20
-26.025735421121059
10
105.7906901562241
20
-26.025735421121059
0
CIRCLE
5
101
100
AcDbEntity
8
0
100
AcDbCircle
10
-99.044556758916286
20
-20.873566948464411
30
0
40
2.9999999999999991
210
-9.8607613152626476e-32
220
-0
230
1
0
CIRCLE
5
102
100
AcDbEntity
8
0
100
AcDbCircle
10
-81.971765503482899
20
-51.015230122794378
30
0
40
2.9999999999999991
210
-9.8607613152626476e-32
220
-0
230
1
0
CIRCLE
5
103
100
AcDbEntity
8
0
100
AcDbCircle
10
-116.44685410643874
20
-30.730547575607172
30
0
40
2.9999999999999991
210
-9.8607613152626476e-32
220
-0
230
1
0
CIRCLE
5
104
100
AcDbEntity
8
0
100
AcDbCircle
10
-99.374062851005334
20
-60.872210749937125
30
0
40
2.9999999999999991
210
-9.8607613152626476e-32
220
-0
230
1
0
CIRCLE
5
105
100
AcDbEntity
8
0
100
AcDbCircle
10
-81.80701245743839
20
-31.015908222058002
30
0
40
2.9999999999999991
210
-9.8607613152626476e-32
220
-0
230
1
0
CIRCLE
5
106
100
AcDbEntity
8
0
100
AcDbCircle
10
-116.61160715248326
20
-50.729869476343545
30
0
40
2.9999999999999991
210
-9.8607613152626476e-32
220
-0
230
1
0
CIRCLE
5
107
100
AcDbEntity
8
0
100
AcDbCircle
10
-99.20930980496081
20
-40.87288884920077
30
0
40
15.000000114203951
210
0
220
-0
230
1
0
LINE
5
108
100
AcDbEntity
8
0
100
AcDbLine
10
-68.286017651643519
20
-30.872889007712729
30
0
11
-68.286017651643519
21
34.557934515368729
31
0
0
LINE
5
109
100
AcDbEntity
8
0
100
AcDbLine
10
-68.286017651643519
20
34.557934515368729
30
0
11
-100.52573364202172
21
40.242666294850522
31
0
0
LINE
5
110
100
AcDbEntity
8
0
100
AcDbLine
10
-100.52573364202172
20
40.242666294850522
30
0
11
-100.52573364202172
21
-8.3995610540918886
31
0
0
LINE
5
111
100
AcDbEntity
8
0
100
AcDbLine
10
-68.286017651643519
20
-30.872889007712729
30
0
11
-71.984756076302489
21
-30.872889007712729
31
0
0
LINE
5
112
100
AcDbEntity
8
0
100
AcDbLine
10
-126.69150003791952
20
-31.604364763132978
30
0
11
-130.35966230289975
21
-31.604364763132999
31
0
0
SPLINE
5
113
100
AcDbEntity
8
0
100
AcDbSpline
70
4
71
5
72
46
73
40
74
0
42
0.000000001
43
0.0000000001
44
0.0000000001
40
0
40
0
40
0
40
0
40
0
40
0
40
0.028571428571428571
40
0.057142857142857141
40
0.085714285714285715
40
0.11428571428571428
40
0.14285714285714285
40
0.17142857142857143
40
0.20000000000000001
40
0.22857142857142859
40
0.25714285714285717
40
0.28571428571428575
40
0.31428571428571433
40
0.34285714285714292
40
0.3714285714285715
40
0.40000000000000008
40
0.42857142857142866
40
0.45714285714285724
40
0.48571428571428582
40
0.51428571428571435
40
0.54285714285714293
40
0.57142857142857151
40
0.60000000000000009
40
0.62857142857142867
40
0.65714285714285725
40
0.68571428571428583
40
0.71428571428571441
40
0.74285714285714299
40
0.77142857142857157
40
0.80000000000000016
40
0.82857142857142874
40
0.85714285714285732
40
0.8857142857142859
40
0.91428571428571448
40
0.94285714285714306
40
0.97142857142857164
40
1
40
1
40
1
40
1
40
1
40
1
41
1
41
1
41
1
41
1
41
1
41
1
41
1
41
1
41
1
41
1
41
1
41
1
41
1
41
1
41
1
41
1
41
1
41
1
41
1
41
1
41
1
41
1
41
1
41
1
41
1
41
1
41
1
41
1
41
1
41
1
41
1
41
1
41
1
41
1
41
1
41
1
41
1
41
1
41
1
41
1
10
-100.52573364202172
20
-8.3995610540918886
30
0
10
-100.67635766920935
20
-8.3952575354095291
30
0
10
-100.98885529399239
20
-8.3924551726351027
30
0
10
-101.49135092393658
20
-8.405665452226275
30
0
10
-102.22892908744518
20
-8.4581548519772252
30
0
10
-103.26266954059869
20
-8.5824508078451025
30
0
10
-104.4045702928625
20
-8.7666704053200668
30
0
10
-105.64684834677264
20
-9.0128836350511268
30
0
10
-106.97555129221776
20
-9.3243508101270969
30
0
10
-108.3702851839726
20
-9.705176956012739
30
0
10
-109.80653669820789
20
-10.158913118368783
30
0
10
-111.25734894420908
20
-10.687393912259097
30
0
10
-112.69523239812702
20
-11.289477097511254
30
0
10
-114.09397513598097
20
-11.959770413523842
30
0
10
-115.43048026693586
20
-12.687406424461054
30
0
10
-116.6866668052137
20
-13.454560126694489
30
0
10
-117.84992853237915
20
-14.240009605922774
30
0
10
-118.91353415047979
20
-15.022941752314445
30
0
10
-119.87710015580089
20
-15.786680725027068
30
0
10
-120.74705781154422
20
-16.522425077034296
30
0
10
-121.53722371157427
20
-17.233116911725187
30
0
10
-122.26924160186559
20
-17.937058755846806
30
0
10
-122.9677050012894
20
-18.660443936659352
30
0
10
-123.65519370861114
20
-19.429865985676379
30
0
10
-124.34777146619228
20
-20.265425239548549
30
0
10
-125.04925203938329
20
-21.172191102953306
30
0
10
-125.7492467959691
20
-22.136763839722629
30
0
10
-126.42963548563479
20
-23.13522224685936
30
0
10
-127.06934852393704
20
-24.138765562652253
30
0
10
-127.64965985619163
20
-25.12008041356632
30
0
10
-128.15959888578899
20
-26.059753600717393
30
0
10
-128.60040236976371
20
-26.951660771436117
30
0
10
-128.98097021175312
20
-27.798438877391867
30
0
10
-129.31406411348829
20
-28.607807416312575
30
0
10
-129.61253556418239
20
-29.388856705369104
30
0
10
-129.88484982919121
20
-30.14772959091961
30
0
10
-130.08505702739876
20
-30.73944834577857
30
0
10
-130.22595719099348
20
-31.175078160258252
30
0
10
-130.31577905667689
20
-31.461873236107468
30
0
10
-130.35966230289975
20
-31.604364763132999
30
0
0
SPLINE
5
114
100
AcDbEntity
8
0
100
AcDbSpline
70
4
71
5
72
51
73
45
74
0
42
0.000000001
43
0.0000000001
44
0.0000000001
40
0
40
0
40
0
40
0
40
0
40
0
40
0.025000000000000001
40
0.050000000000000003
40
0.075000000000000011
40
0.10000000000000001
40
0.125
40
0.14999999999999999
40
0.17499999999999999
40
0.19999999999999998
40
0.22499999999999998
40
0.24999999999999997
40
0.27499999999999997
40
0.29999999999999999
40
0.32500000000000001
40
0.35000000000000003
40
0.37500000000000006
40
0.40000000000000008
40
0.4250000000000001
40
0.45000000000000012
40
0.47500000000000014
40
0.50000000000000011
40
0.52500000000000013
40
0.55000000000000016
40
0.57500000000000018
40
0.6000000000000002
40
0.62500000000000022
40
0.65000000000000024
40
0.67500000000000027
40
0.70000000000000029
40
0.72500000000000031
40
0.75000000000000033
40
0.77500000000000036
40
0.80000000000000038
40
0.8250000000000004
40
0.85000000000000042
40
0.87500000000000044
40
0.90000000000000047
40
0.92500000000000049
40
0.95000000000000051
40
0.97500000000000053
40
1
40
1
40
1
40
1
40
1
40
1
41
1
41
1
41
1
41
1
41
1
41
1
41
1
41
1
41
1
41
1
41
1
41
1
41
1
41
1
41
1
41
1
41
1
41
1
41
1
41
1
41
1
41
1
41
1
41
1
41
1
41
1
41
1
41
1
41
1
41
1
41
1
41
1
41
1
41
1
41
1
41
1
41
1
41
1
41
1
41
1
41
1
41
1
41
1
41
1
41
1
10
-71.984756076302489
20
-30.872889007712729
30
0
10
-72.122656218308705
20
-30.538791289265959
30
0
10
-72.402410202070797
20
-29.878847131865566
30
0
10
-72.833902144077811
20
-28.913684818117829
30
0
10
-73.432971957504705
20
-27.676359252596349
30
0
10
-74.222390876374703
20
-26.212033061869327
30
0
10
-75.055180887203278
20
-24.828718932804072
30
0
10
-75.936706752179163
20
-23.523413551088048
30
0
10
-76.875841307049797
20
-22.290697504093465
30
0
10
-77.885533041554623
20
-21.122241040862889
30
0
10
-78.97961998216374
20
-20.008898525791285
30
0
10
-80.169714573830788
20
-18.942705523288502
30
0
10
-81.462441062905498
20
-17.918726555657308
30
0
10
-82.855562176484611
20
-16.937417543952492
30
0
10
-84.33800169041632
20
-16.005138286524346
30
0
10
-85.89463906649047
20
-15.132348578487537
30
0
10
-87.510020364985422
20
-14.332395683034338
30
0
10
-89.172163153752564
20
-13.620098136425964
30
0
10
-90.877127717503356
20
-13.010356677348302
30
0
10
-92.630655089497481
20
-12.516956998647357
30
0
10
-94.442775304995791
20
-12.151918940406571
30
0
10
-96.323898045694918
20
-11.924734130420685
30
0
10
-98.280216514337383
20
-11.841597819413206
30
0
10
-100.30961651610963
20
-11.90469508668933
30
0
10
-102.39672100299217
20
-12.111237238760438
30
0
10
-104.51614078619014
20
-12.455195596320689
30
0
10
-106.6366803407478
20
-12.929380262116318
30
0
10
-108.72510751413438
20
-13.527309398165787
30
0
10
-110.7502424172157
20
-14.245316481308407
30
0
10
-112.68656401853399
20
-15.08418608484633
30
0
10
-114.51895174550398
20
-16.051956578348189
30
0
10
-116.24115903287675
20
-17.160055649106919
30
0
10
-117.85224470470938
20
-18.417182602084356
30
0
10
-119.35376274055054
20
-19.824067165617802
30
0
10
-120.74654759054221
20
-21.367505920309032
30
0
10
-122.02793780405153
20
-23.015388988842997
30
0
10
-123.18814091194923
20
-24.709281544249485
30
0
10
-124.21201132387219
20
-26.372568280219962
30
0
10
-125.08203714935863
20
-27.921987311030652
30
0
10
-125.78105743161375
20
-29.278561500080965
30
0
10
-126.29477288737782
20
-30.377465821716079
30
0
10
-126.55109575877289
20
-31.020847645199893
30
0
10
-126.65545256005441
20
-31.366019178275273
30
0
10
-126.68598940386779
20
-31.535088282682565
30
0
10
-126.69150003791952
20
-31.604364763132978
30
0
0
ENDSEC
0
SECTION
2
OBJECTS
0
DICTIONARY
5
C
100
AcDbDictionary
3
ACAD_GROUP
350
D
3
ACAD_MLINESTYLE
350
17
0
DICTIONARY
5
D
100
AcDbDictionary
0
DICTIONARY
5
1A
330
C
100
AcDbDictionary
0
DICTIONARY
5
17
100
AcDbDictionary
0
ENDSEC
0
EOF
