0
SECTION
2
HEADER
9
$INSUNITS
70
4
9
$ACADVER
1
AC1014
9
$HANDSEED
5
FFFF
0
ENDSEC
0
SECTION
2
TABLES
0
TABLE
2
VPORT
5
8
100
AcDbSymbolTable
0
ENDTAB
0
TABLE
2
LTYPE
5
5
100
AcDbSymbolTable
0
LTYPE
5
14
100
AcDbSymbolTableRecord
100
AcDbLinetypeTableRecord
2
BYBLOCK
70
0
0
LTYPE
5
15
100
AcDbSymbolTableRecord
100
AcDbLinetypeTableRecord
2
BYLAYER
70
0
0
LTYPE
5
16
100
AcDbSymbolTableRecord
100
AcDbLinetypeTableRecord
2
DASHED
70
0
3
Dashed __ __ __ __ __ __ __ __ __ __ __ __ __ _
72
65
73
2
40
0.75
49
0.5
74
0
49
-0.25
74
0
0
ENDTAB
0
TABLE
2
LAYER
5
2
100
AcDbSymbolTable
70
3
0
LAYER
5
50
100
AcDbSymbolTableRecord
100
AcDbLayerTableRecord
2
1
70
0
62
7
6
DASHED
0
LAYER
5
51
100
AcDbSymbolTableRecord
100
AcDbLayerTableRecord
2
0
70
0
62
7
6
CONTINUOUS
0
ENDTAB
0
TABLE
2
STYLE
5
3
100
AcDbSymbolTable
70
1
0
STYLE
5
11
100
AcDbSymbolTableRecord
100
AcDbTextStyleTableRecord
2
STANDARD
70
0
0
ENDTAB
0
TABLE
2
VIEW
5
6
100
AcDbSymbolTable
70
0
0
ENDTAB
0
TABLE
2
UCS
5
7
100
AcDbSymbolTable
70
0
0
ENDTAB
0
TABLE
2
APPID
5
9
100
AcDbSymbolTable
70
2
0
APPID
5
12
100
AcDbSymbolTableRecord
100
AcDbRegAppTableRecord
2
ACAD
70
0
0
ENDTAB
0
TABLE
2
DIMSTYLE
5
A
100
AcDbSymbolTable
70
1
0
ENDTAB
0
TABLE
2
BLOCK_RECORD
5
1
100
AcDbSymbolTable
70
1
0
BLOCK_RECORD
5
1F
100
AcDbSymbolTableRecord
100
AcDbBlockTableRecord
2
*MODEL_SPACE
0
BLOCK_RECORD
5
1B
100
AcDbSymbolTableRecord
100
AcDbBlockTableRecord
2
*PAPER_SPACE
0
ENDTAB
0
ENDSEC
0
SECTION
2
BLOCKS
0
BLOCK
5
20
100
AcDbEntity
100
AcDbBlockBegin
2
*MODEL_SPACE
0
ENDBLK
5
21
100
AcDbEntity
100
AcDbBlockEnd
0
BLOCK
5
1C
100
AcDbEntity
100
AcDbBlockBegin
2
*PAPER_SPACE
0
ENDBLK
5
1D
100
AcDbEntity
100
AcDbBlockEnd
0
ENDSEC
0
SECTION
2
ENTITIES
0
POINT
5
100
100
AcDbEntity
8
0
100
AcDbPoint
10
0
20
0
30
0
0
LINE
5
101
100
AcDbEntity
8
0
100
AcDbLine
10
-551.24423783197074
20
67.25
30
0
11
-551.24423783197074
21
87.75
31
0
0
LINE
5
102
100
AcDbEntity
8
0
100
AcDbLine
10
-527.24423783197085
20
67.25
30
0
11
-527.24423783197085
21
87.75
31
0
0
LINE
5
103
100
AcDbEntity
8
0
100
AcDbLine
10
-515.24423783197085
20
55
30
0
11
-515.24423783197085
21
75.5
31
0
0
LINE
5
104
100
AcDbEntity
8
0
100
AcDbLine
10
-535.24423783197085
20
18.249999999999993
30
0
11
-535.24423783197085
21
38.749999999999993
31
0
0
LINE
5
105
100
AcDbEntity
8
0
100
AcDbLine
10
-547.24423783197074
20
5.999999999999992
30
0
11
-547.24423783197074
21
26.499999999999993
31
0
0
LINE
5
106
100
AcDbEntity
8
0
100
AcDbLine
10
-539.24423783197074
20
5.9999999999999893
30
0
11
-539.24423783197074
21
26.499999999999993
31
0
0
LINE
5
107
100
AcDbEntity
8
0
100
AcDbLine
10
-531.24423783197085
20
55
30
0
11
-531.24423783197085
21
75.5
31
0
0
LINE
5
108
100
AcDbEntity
8
0
100
AcDbLine
10
-539.24423783197074
20
55
30
0
11
-539.24423783197074
21
75.5
31
0
0
LINE
5
109
100
AcDbEntity
8
0
100
AcDbLine
10
-559.24423783197074
20
67.25
30
0
11
-559.24423783197074
21
87.75
31
0
0
LINE
5
110
100
AcDbEntity
8
0
100
AcDbLine
10
-531.24423783197085
20
5.9999999999999893
30
0
11
-531.24423783197085
21
26.499999999999993
31
0
0
LINE
5
111
100
AcDbEntity
8
0
100
AcDbLine
10
-523.24423783197074
20
5.9999999999999876
30
0
11
-523.24423783197074
21
26.499999999999989
31
0
0
LINE
5
112
100
AcDbEntity
8
0
100
AcDbLine
10
-189.0814126106568
20
2.9999999999999938
30
0
11
-189.0814126106568
21
14.249999999999996
31
0
0
LINE
5
113
100
AcDbEntity
8
0
100
AcDbLine
10
-201.08141261065674
20
5.9999999999999964
30
0
11
-201.08141261065674
21
26.5
31
0
0
LINE
5
114
100
AcDbEntity
8
0
100
AcDbLine
10
-165.08141261065688
20
2.9999999999999902
30
0
11
-165.08141261065688
21
14.249999999999991
31
0
0
LINE
5
115
100
AcDbEntity
8
0
100
AcDbLine
10
-205.08141261065674
20
18.249999999999996
30
0
11
-205.08141261065674
21
38.75
31
0
0
LINE
5
116
100
AcDbEntity
8
0
100
AcDbLine
10
-185.0814126106568
20
5.9999999999999947
30
0
11
-185.0814126106568
21
26.499999999999993
31
0
0
LINE
5
117
100
AcDbEntity
8
0
100
AcDbLine
10
-181.08141261065683
20
2.9999999999999929
30
0
11
-181.08141261065683
21
14.249999999999993
31
0
0
LINE
5
118
100
AcDbEntity
8
0
100
AcDbLine
10
-209.08141261065674
20
5.9999999999999964
30
0
11
-209.08141261065674
21
26.5
31
0
0
LINE
5
119
100
AcDbEntity
8
0
100
AcDbLine
10
-169.08141261065686
20
5.999999999999992
30
0
11
-169.08141261065686
21
26.499999999999993
31
0
0
LINE
5
120
100
AcDbEntity
8
0
100
AcDbLine
10
-197.08141261065677
20
2.9999999999999947
30
0
11
-197.08141261065677
21
14.249999999999996
31
0
0
LINE
5
121
100
AcDbEntity
8
0
100
AcDbLine
10
-169.08141261065686
20
55
30
0
11
-169.08141261065686
21
75.5
31
0
0
LINE
5
122
100
AcDbEntity
8
0
100
AcDbLine
10
-185.0814126106568
20
55
30
0
11
-185.0814126106568
21
75.5
31
0
0
LINE
5
123
100
AcDbEntity
8
0
100
AcDbLine
10
-145.08141261065691
20
55
30
0
11
-145.08141261065691
21
75.5
31
0
0
LINE
5
124
100
AcDbEntity
8
0
100
AcDbLine
10
-197.08141261065677
20
67.250000000000014
30
0
11
-197.08141261065677
21
87.750000000000028
31
0
0
LINE
5
125
100
AcDbEntity
8
1
100
AcDbLine
10
-65.125000000000057
20
0
30
9.8607613152626476e-31
11
-65.125000000000057
21
30
31
9.8607613152626476e-31
0
LINE
5
126
100
AcDbEntity
8
0
100
AcDbLine
10
-161.08141261065691
20
55
30
0
11
-161.08141261065691
21
75.5
31
0
0
LINE
5
127
100
AcDbEntity
8
0
100
AcDbLine
10
-153.08141261065691
20
55
30
0
11
-153.08141261065691
21
75.5
31
0
0
CIRCLE
5
128
100
AcDbEntity
8
0
100
AcDbCircle
10
-65.125000000000057
20
30
30
9.8607613152626476e-31
40
5
210
0
220
0
230
1
0
LINE
5
129
100
AcDbEntity
8
0
100
AcDbLine
10
-165.08141261065688
20
67.25
30
0
11
-165.08141261065688
21
87.75
31
0
0
LINE
5
130
100
AcDbEntity
8
0
100
AcDbLine
10
-173.08141261065686
20
67.25
30
0
11
-173.08141261065686
21
87.75
31
0
0
LINE
5
131
100
AcDbEntity
8
0
100
AcDbLine
10
-177.08141261065686
20
30.499999999999993
30
0
11
-177.08141261065686
21
51
31
0
0
LINE
5
132
100
AcDbEntity
8
0
100
AcDbLine
10
-0.25000000000010025
20
0
30
0
11
-130
21
0
31
1.9721522630525295e-30
0
LINE
5
133
100
AcDbEntity
8
0
100
AcDbLine
10
-181.08141261065683
20
67.25
30
0
11
-181.08141261065683
21
87.75
31
0
0
LINE
5
134
100
AcDbEntity
8
0
100
AcDbLine
10
-130.00000000000003
20
119.99999999999999
30
0
11
-0.25000000000005329
21
119.99999999999999
31
0
0
LINE
5
135
100
AcDbEntity
8
0
100
AcDbLine
10
-189.0814126106568
20
67.250000000000014
30
0
11
-189.0814126106568
21
87.750000000000028
31
0
0
LINE
5
136
100
AcDbEntity
8
0
100
AcDbLine
10
-193.0814126106568
20
55
30
0
11
-193.0814126106568
21
75.5
31
0
0
LINE
5
137
100
AcDbEntity
8
0
100
AcDbLine
10
-201.08141261065674
20
55
30
0
11
-201.08141261065674
21
75.5
31
0
0
LINE
5
138
100
AcDbEntity
8
0
100
AcDbLine
10
-205.08141261065674
20
67.250000000000014
30
0
11
-205.08141261065674
21
87.750000000000028
31
0
0
LINE
5
139
100
AcDbEntity
8
0
100
AcDbLine
10
-209.08141261065674
20
55
30
0
11
-209.08141261065674
21
75.5
31
0
0
LINE
5
140
100
AcDbEntity
8
0
100
AcDbLine
10
-177.08141261065686
20
79.500000000000014
30
0
11
-177.08141261065686
21
100.00000000000001
31
0
0
LINE
5
141
100
AcDbEntity
8
0
100
AcDbLine
10
-177.08141261065686
20
55
30
0
11
-177.08141261065686
21
75.5
31
0
0
LINE
5
142
100
AcDbEntity
8
0
100
AcDbLine
10
-133.08141261065688
20
2.9999999999999858
30
0
11
-133.08141261065688
21
14.249999999999988
31
0
0
LINE
5
143
100
AcDbEntity
8
0
100
AcDbLine
10
-201.08141261065674
20
30.5
30
0
11
-201.08141261065674
21
51
31
0
0
CIRCLE
5
144
100
AcDbEntity
8
0
100
AcDbCircle
10
-30.000000000000089
20
30
30
0
40
15
210
0
220
-0
230
1
0
LINE
5
145
100
AcDbEntity
8
0
100
AcDbLine
10
-197.08141261065677
20
42.75
30
0
11
-197.08141261065677
21
63.250000000000014
31
0
0
LINE
5
146
100
AcDbEntity
8
0
100
AcDbLine
10
-145.08141261065691
20
30.499999999999989
30
0
11
-145.08141261065691
21
51
31
0
0
LINE
5
147
100
AcDbEntity
8
0
100
AcDbLine
10
-157.08141261065691
20
91.75
30
0
11
-157.08141261065691
21
112.25000000000001
31
0
0
LINE
5
148
100
AcDbEntity
8
0
100
AcDbLine
10
-149.08141261065691
20
42.749999999999993
30
0
11
-149.08141261065691
21
63.249999999999993
31
0
0
LINE
5
149
100
AcDbEntity
8
0
100
AcDbLine
10
-205.08141261065674
20
42.75
30
0
11
-205.08141261065674
21
63.250000000000014
31
0
0
LINE
5
150
100
AcDbEntity
8
0
100
AcDbLine
10
-141.08141261065691
20
18.249999999999989
30
0
11
-141.08141261065691
21
38.749999999999993
31
0
0
LINE
5
151
100
AcDbEntity
8
0
100
AcDbLine
10
-129.08141261065688
20
79.5
30
0
11
-129.08141261065688
21
100
31
0
0
LINE
5
152
100
AcDbEntity
8
0
100
AcDbLine
10
-0.25000000000010025
20
0
30
0
11
-0.25000000000005329
21
119.99999999999999
31
0
0
LINE
5
153
100
AcDbEntity
8
0
100
AcDbLine
10
-193.0814126106568
20
30.499999999999993
30
0
11
-193.0814126106568
21
51
31
0
0
LINE
5
154
100
AcDbEntity
8
0
100
AcDbLine
10
-133.08141261065688
20
91.75
30
0
11
-133.08141261065688
21
112.25000000000001
31
0
0
LINE
5
155
100
AcDbEntity
8
0
100
AcDbLine
10
-157.08141261065691
20
2.9999999999999893
30
0
11
-157.08141261065691
21
14.249999999999991
31
0
0
LINE
5
156
100
AcDbEntity
8
0
100
AcDbLine
10
-185.0814126106568
20
30.499999999999993
30
0
11
-185.0814126106568
21
51
31
0
0
LINE
5
157
100
AcDbEntity
8
0
100
AcDbLine
10
-149.08141261065691
20
67.25
30
0
11
-149.08141261065691
21
87.75
31
0
0
LINE
5
158
100
AcDbEntity
8
0
100
AcDbLine
10
-137.08141261065688
20
30.499999999999989
30
0
11
-137.08141261065688
21
51
31
0
0
LINE
5
159
100
AcDbEntity
8
0
100
AcDbLine
10
-169.08141261065686
20
30.499999999999993
30
0
11
-169.08141261065686
21
51
31
0
0
LINE
5
160
100
AcDbEntity
8
0
100
AcDbLine
10
-161.08141261065691
20
30.499999999999993
30
0
11
-161.08141261065691
21
51
31
0
0
LINE
5
161
100
AcDbEntity
8
0
100
AcDbLine
10
-133.08141261065688
20
42.749999999999993
30
0
11
-133.08141261065688
21
63.249999999999993
31
0
0
LINE
5
162
100
AcDbEntity
8
0
100
AcDbLine
10
-165.08141261065688
20
42.749999999999993
30
0
11
-165.08141261065688
21
63.249999999999993
31
0
0
LINE
5
163
100
AcDbEntity
8
0
100
AcDbLine
10
-208.16282522131385
20
1.0040228336100574e-14
30
0
11
-291.4961585546472
21
9.9920072216264089e-15
31
0
0
LINE
5
164
100
AcDbEntity
8
0
100
AcDbLine
10
-130.00000000000011
20
0
30
0
11
-130.00000000000011
21
4
31
0
0
LINE
5
165
100
AcDbEntity
8
0
100
AcDbLine
10
-149.08141261065691
20
18.249999999999989
30
0
11
-149.08141261065691
21
38.749999999999993
31
0
0
LINE
5
166
100
AcDbEntity
8
0
100
AcDbLine
10
-181.08141261065683
20
42.749999999999993
30
0
11
-181.08141261065683
21
63.249999999999993
31
0
0
LINE
5
167
100
AcDbEntity
8
0
100
AcDbLine
10
-189.0814126106568
20
42.75
30
0
11
-189.0814126106568
21
63.250000000000014
31
0
0
LINE
5
168
100
AcDbEntity
8
0
100
AcDbLine
10
-201.08141261065674
20
79.500000000000014
30
0
11
-201.08141261065674
21
100.00000000000001
31
0
0
LINE
5
169
100
AcDbEntity
8
0
100
AcDbLine
10
-137.08141261065688
20
5.9999999999999876
30
0
11
-137.08141261065688
21
26.499999999999989
31
0
0
LINE
5
170
100
AcDbEntity
8
0
100
AcDbLine
10
-209.08141261065674
20
30.5
30
0
11
-209.08141261065674
21
51
31
0
0
LINE
5
171
100
AcDbEntity
8
0
100
AcDbLine
10
-153.08141261065691
20
5.9999999999999893
30
0
11
-153.08141261065691
21
26.499999999999993
31
0
0
LINE
5
172
100
AcDbEntity
8
0
100
AcDbLine
10
-149.08141261065691
20
91.75
30
0
11
-149.08141261065691
21
112.25000000000001
31
0
0
LINE
5
173
100
AcDbEntity
8
0
100
AcDbLine
10
-173.08141261065686
20
42.749999999999993
30
0
11
-173.08141261065686
21
63.249999999999993
31
0
0
LINE
5
174
100
AcDbEntity
8
0
100
AcDbLine
10
-209.00000204145894
20
103.50000180304049
30
0
11
-209.00000204145894
21
121.0000018030405
31
0
0
LINE
5
175
100
AcDbEntity
8
0
100
AcDbLine
10
-157.08141261065691
20
42.749999999999993
30
0
11
-157.08141261065691
21
63.249999999999993
31
0
0
LWPOLYLINE
5
176
100
AcDbEntity
8
0
100
AcDbPolyline
90
4
70
1
43
0.0
10
-228.16282298613964
20
100.00000000000001
10
-291.49615855474502
20
100
10
-291.49615855474502
20
104
10
-228.16282298613964
20
104.00000000000003
0
LINE
5
177
100
AcDbEntity
8
0
100
AcDbLine
10
-141.08141261065691
20
42.749999999999993
30
0
11
-141.08141261065691
21
63.249999999999993
31
0
0
LINE
5
178
100
AcDbEntity
8
0
100
AcDbLine
10
-133.08141261065688
20
18.249999999999989
30
0
11
-133.08141261065688
21
38.749999999999993
31
0
0
LINE
5
179
100
AcDbEntity
8
0
100
AcDbLine
10
-169.08141261065686
20
79.500000000000014
30
0
11
-169.08141261065686
21
100.00000000000001
31
0
0
LINE
5
180
100
AcDbEntity
8
0
100
AcDbLine
10
-141.08141261065691
20
67.25
30
0
11
-141.08141261065691
21
87.75
31
0
0
LINE
5
181
100
AcDbEntity
8
0
100
AcDbLine
10
-133.08141261065688
20
67.25
30
0
11
-133.08141261065688
21
87.75
31
0
0
LINE
5
182
100
AcDbEntity
8
0
100
AcDbLine
10
-141.08141261065691
20
91.75
30
0
11
-141.08141261065691
21
112.25000000000001
31
0
0
LINE
5
183
100
AcDbEntity
8
0
100
AcDbLine
10
-145.08141261065691
20
79.500000000000014
30
0
11
-145.08141261065691
21
100.00000000000001
31
0
0
LINE
5
184
100
AcDbEntity
8
0
100
AcDbLine
10
-137.08141261065688
20
55
30
0
11
-137.08141261065688
21
75.5
31
0
0
LINE
5
185
100
AcDbEntity
8
0
100
AcDbLine
10
-141.08141261065691
20
2.9999999999999871
30
0
11
-141.08141261065691
21
14.249999999999989
31
0
0
LINE
5
186
100
AcDbEntity
8
0
100
AcDbLine
10
-157.08141261065691
20
67.25
30
0
11
-157.08141261065691
21
87.75
31
0
0
LINE
5
187
100
AcDbEntity
8
0
100
AcDbLine
10
-519.24423783197074
20
18.249999999999989
30
0
11
-519.24423783197074
21
38.749999999999993
31
0
0
LINE
5
188
100
AcDbEntity
8
0
100
AcDbLine
10
-551.24423783197074
20
18.249999999999993
30
0
11
-551.24423783197074
21
38.749999999999993
31
0
0
LINE
5
189
100
AcDbEntity
8
0
100
AcDbLine
10
-519.24423783197074
20
2.9999999999999871
30
0
11
-519.24423783197074
21
14.249999999999989
31
0
0
LINE
5
190
100
AcDbEntity
8
0
100
AcDbLine
10
-559.24423783197074
20
2.9999999999999929
30
0
11
-559.24423783197074
21
14.249999999999993
31
0
0
LINE
5
191
100
AcDbEntity
8
0
100
AcDbLine
10
-527.24423783197085
20
2.9999999999999885
30
0
11
-527.24423783197085
21
14.249999999999989
31
0
0
LINE
5
192
100
AcDbEntity
8
0
100
AcDbLine
10
-559.24423783197074
20
18.249999999999993
30
0
11
-559.24423783197074
21
38.749999999999993
31
0
0
LINE
5
193
100
AcDbEntity
8
0
100
AcDbLine
10
-515.24423783197085
20
5.9999999999999876
30
0
11
-515.24423783197085
21
26.499999999999989
31
0
0
LINE
5
194
100
AcDbEntity
8
0
100
AcDbLine
10
-527.24423783197085
20
18.249999999999989
30
0
11
-527.24423783197085
21
38.749999999999993
31
0
0
LINE
5
195
100
AcDbEntity
8
0
100
AcDbLine
10
-543.24423783197074
20
18.249999999999993
30
0
11
-543.24423783197074
21
38.749999999999993
31
0
0
LINE
5
196
100
AcDbEntity
8
0
100
AcDbLine
10
-555.24423783197074
20
5.999999999999992
30
0
11
-555.24423783197074
21
26.499999999999993
31
0
0
LINE
5
197
100
AcDbEntity
8
0
100
AcDbLine
10
-551.24423783197074
20
2.9999999999999916
30
0
11
-551.24423783197074
21
14.249999999999993
31
0
0
LINE
5
198
100
AcDbEntity
8
0
100
AcDbLine
10
-535.24423783197085
20
2.9999999999999893
30
0
11
-535.24423783197085
21
14.249999999999991
31
0
0
LINE
5
199
100
AcDbEntity
8
0
100
AcDbLine
10
-543.24423783197074
20
2.9999999999999902
30
0
11
-543.24423783197074
21
14.249999999999991
31
0
0
LINE
5
200
100
AcDbEntity
8
0
100
AcDbLine
10
-519.24423783197074
20
91.75
30
0
11
-519.24423783197074
21
112.25000000000001
31
0
0
LINE
5
201
100
AcDbEntity
8
0
100
AcDbLine
10
-551.24423783197074
20
91.75
30
0
11
-551.24423783197074
21
112.25000000000001
31
0
0
LINE
5
202
100
AcDbEntity
8
0
100
AcDbLine
10
-515.24423783197085
20
79.500000000000014
30
0
11
-515.24423783197085
21
100.00000000000001
31
0
0
LINE
5
203
100
AcDbEntity
8
0
100
AcDbLine
10
-511.24423783197074
20
91.75
30
0
11
-511.24423783197074
21
112.25000000000001
31
0
0
LINE
5
204
100
AcDbEntity
8
0
100
AcDbLine
10
-531.24423783197085
20
79.500000000000014
30
0
11
-531.24423783197085
21
100.00000000000001
31
0
0
LINE
5
205
100
AcDbEntity
8
0
100
AcDbLine
10
-523.24423783197074
20
79.500000000000014
30
0
11
-523.24423783197074
21
100.00000000000001
31
0
0
LINE
5
206
100
AcDbEntity
8
0
100
AcDbLine
10
-535.24423783197085
20
91.75
30
0
11
-535.24423783197085
21
112.25000000000001
31
0
0
LINE
5
207
100
AcDbEntity
8
0
100
AcDbLine
10
-543.24423783197074
20
91.75
30
0
11
-543.24423783197074
21
112.25000000000001
31
0
0
LINE
5
208
100
AcDbEntity
8
0
100
AcDbLine
10
-547.24423783197074
20
79.500000000000014
30
0
11
-547.24423783197074
21
100.00000000000001
31
0
0
LINE
5
209
100
AcDbEntity
8
0
100
AcDbLine
10
-507.24423783197074
20
79.5
30
0
11
-507.24423783197074
21
100
31
0
0
LWPOLYLINE
5
210
100
AcDbEntity
8
0
100
AcDbPolyline
90
4
70
1
43
0.0
10
-424.82949188807845
20
104.00000000000003
10
-424.82949188807845
20
100.00000000000001
10
-486.162825221361
20
100
10
-486.162825221361
20
104
0
LINE
5
211
100
AcDbEntity
8
0
100
AcDbLine
10
-559.24423783197074
20
91.75
30
0
11
-559.24423783197074
21
112.25000000000001
31
0
0
LINE
5
212
100
AcDbEntity
8
0
100
AcDbLine
10
-539.24423783197074
20
79.500000000000014
30
0
11
-539.24423783197074
21
100.00000000000001
31
0
0
LINE
5
213
100
AcDbEntity
8
0
100
AcDbLine
10
-555.24423783197074
20
79.500000000000014
30
0
11
-555.24423783197074
21
100.00000000000001
31
0
0
LINE
5
214
100
AcDbEntity
8
0
100
AcDbLine
10
-527.24423783197085
20
91.75
30
0
11
-527.24423783197085
21
112.25000000000001
31
0
0
CIRCLE
5
215
100
AcDbEntity
8
0
100
AcDbCircle
10
-273.03782522131388
20
30.000000000000036
30
9.8607613152626476e-31
40
5
210
0
220
0
230
1
0
LINE
5
216
100
AcDbEntity
8
0
100
AcDbLine
10
-679.32565044262765
20
119.99999999999999
30
0
11
-508.16282522131394
21
120
31
0
0
LINE
5
217
100
AcDbEntity
8
0
100
AcDbLine
10
-586.32565044262765
20
4.0000000000000204
30
0
11
-508.16282522131394
21
4.0000000000000107
31
0
0
LINE
5
218
100
AcDbEntity
8
0
100
AcDbLine
10
-291.4961585546472
20
4.0000000000000107
30
3.944304526105059e-30
11
-291.4961585546472
21
9.9920072216264089e-15
31
0
0
LINE
5
219
100
AcDbEntity
8
0
100
AcDbLine
10
-208.16282522131377
20
4.0000000000000107
30
0
11
-208.16282522131385
21
1.0040228336100574e-14
31
0
0
LINE
5
220
100
AcDbEntity
8
0
100
AcDbLine
10
-189.0814126106568
20
18.249999999999996
30
0
11
-189.0814126106568
21
38.75
31
0
0
LINE
5
221
100
AcDbEntity
8
0
100
AcDbLine
10
-197.08141261065677
20
18.249999999999996
30
0
11
-197.08141261065677
21
38.75
31
0
0
LINE
5
222
100
AcDbEntity
8
0
100
AcDbLine
10
-424.82949188798051
20
4.0000000000000107
30
0
11
-291.4961585546472
21
4.0000000000000107
31
3.944304526105059e-30
0
LINE
5
223
100
AcDbEntity
8
0
100
AcDbLine
10
-181.08141261065683
20
18.249999999999993
30
0
11
-181.08141261065683
21
38.749999999999993
31
0
0
LINE
5
224
100
AcDbEntity
8
0
100
AcDbLine
10
-205.08141261065674
20
2.999999999999996
30
0
11
-205.08141261065674
21
14.249999999999998
31
0
0
LINE
5
225
100
AcDbEntity
8
0
100
AcDbLine
10
-208.16282522131388
20
119.99999999999999
30
0
11
-130.00000000000003
21
119.99999999999999
31
0
0
LINE
5
226
100
AcDbEntity
8
0
100
AcDbLine
10
-193.0814126106568
20
5.9999999999999947
30
0
11
-193.0814126106568
21
26.499999999999993
31
0
0
LINE
5
227
100
AcDbEntity
8
1
100
AcDbLine
10
-130.00000000000011
20
0
30
0
11
-208.16282522131385
21
1.0040228336100574e-14
31
0
0
LINE
5
228
100
AcDbEntity
8
0
100
AcDbLine
10
-173.08141261065686
20
2.9999999999999916
30
0
11
-173.08141261065686
21
14.249999999999993
31
0
0
LINE
5
229
100
AcDbEntity
8
0
100
AcDbLine
10
-177.08141261065686
20
5.999999999999992
30
0
11
-177.08141261065686
21
26.499999999999993
31
0
0
LINE
5
230
100
AcDbEntity
8
0
100
AcDbLine
10
-161.08141261065691
20
5.9999999999999893
30
0
11
-161.08141261065691
21
26.499999999999993
31
0
0
LINE
5
231
100
AcDbEntity
8
0
100
AcDbLine
10
-173.08141261065686
20
18.249999999999993
30
0
11
-173.08141261065686
21
38.749999999999993
31
0
0
LINE
5
232
100
AcDbEntity
8
0
100
AcDbLine
10
-208.16282522131377
20
4.0000000000000107
30
0
11
-130.00000000000011
21
4
31
0
0
LINE
5
233
100
AcDbEntity
8
0
100
AcDbLine
10
-165.08141261065688
20
18.249999999999993
30
0
11
-165.08141261065688
21
38.749999999999993
31
0
0
LINE
5
234
100
AcDbEntity
8
0
100
AcDbLine
10
-567.24423783197062
20
2.9999999999999938
30
0
11
-567.24423783197062
21
14.249999999999996
31
0
0
LINE
5
235
100
AcDbEntity
8
0
100
AcDbLine
10
-575.24423783197062
20
42.75
30
0
11
-575.24423783197062
21
63.250000000000014
31
0
0
LINE
5
236
100
AcDbEntity
8
0
100
AcDbLine
10
-583.24423783197062
20
18.249999999999996
30
0
11
-583.24423783197062
21
38.75
31
0
0
LINE
5
237
100
AcDbEntity
8
0
100
AcDbLine
10
-571.24423783197062
20
55
30
0
11
-571.24423783197062
21
75.5
31
0
0
LINE
5
238
100
AcDbEntity
8
0
100
AcDbLine
10
-579.24423783197062
20
5.9999999999999964
30
0
11
-579.24423783197062
21
26.5
31
0
0
LINE
5
239
100
AcDbEntity
8
0
100
AcDbLine
10
-563.24423783197074
20
30.499999999999993
30
0
11
-563.24423783197074
21
51
31
0
0
LINE
5
240
100
AcDbEntity
8
0
100
AcDbLine
10
-563.24423783197074
20
5.9999999999999947
30
0
11
-563.24423783197074
21
26.499999999999993
31
0
0
LINE
5
241
100
AcDbEntity
8
0
100
AcDbLine
10
-563.24423783197074
20
55
30
0
11
-563.24423783197074
21
75.5
31
0
0
LINE
5
242
100
AcDbEntity
8
0
100
AcDbLine
10
-567.24423783197062
20
67.250000000000014
30
0
11
-567.24423783197062
21
87.750000000000028
31
0
0
LINE
5
243
100
AcDbEntity
8
0
100
AcDbLine
10
-571.24423783197062
20
5.9999999999999947
30
0
11
-571.24423783197062
21
26.499999999999993
31
0
0
LINE
5
244
100
AcDbEntity
8
0
100
AcDbLine
10
-583.24423783197062
20
67.250000000000014
30
0
11
-583.24423783197062
21
87.750000000000028
31
0
0
LINE
5
245
100
AcDbEntity
8
0
100
AcDbLine
10
-587.24423783197062
20
30.5
30
0
11
-587.24423783197062
21
51
31
0
0
LINE
5
246
100
AcDbEntity
8
0
100
AcDbLine
10
-567.24423783197062
20
42.75
30
0
11
-567.24423783197062
21
63.250000000000014
31
0
0
LINE
5
247
100
AcDbEntity
8
0
100
AcDbLine
10
-527.24423783197085
20
116.25000000000001
30
0
11
-527.24423783197085
21
120.75000000000003
31
0
0
LINE
5
248
100
AcDbEntity
8
0
100
AcDbLine
10
-531.24423783197085
20
105.20000000000002
30
0
11
-531.24423783197085
21
120.70000000000002
31
0
0
LINE
5
249
100
AcDbEntity
8
0
100
AcDbLine
10
-539.24423783197074
20
105.20000000000002
30
0
11
-539.24423783197074
21
120.70000000000002
31
0
0
LINE
5
250
100
AcDbEntity
8
0
100
AcDbLine
10
-523.24423783197074
20
105.20000000000002
30
0
11
-523.24423783197074
21
120.70000000000002
31
0
0
LINE
5
251
100
AcDbEntity
8
0
100
AcDbLine
10
-535.24423783197085
20
116.25000000000001
30
0
11
-535.24423783197085
21
120.75000000000003
31
0
0
LINE
5
252
100
AcDbEntity
8
0
100
AcDbLine
10
-515.24423783197085
20
105.20000000000002
30
0
11
-515.24423783197085
21
120.70000000000002
31
0
0
LINE
5
253
100
AcDbEntity
8
0
100
AcDbLine
10
-519.24423783197074
20
116.25000000000001
30
0
11
-519.24423783197074
21
120.75000000000003
31
0
0
LINE
5
254
100
AcDbEntity
8
0
100
AcDbLine
10
-547.24423783197074
20
105.20000000000002
30
0
11
-547.24423783197074
21
120.70000000000002
31
0
0
LINE
5
255
100
AcDbEntity
8
0
100
AcDbLine
10
-543.24423783197074
20
116.25000000000001
30
0
11
-543.24423783197074
21
120.75000000000003
31
0
0
LINE
5
256
100
AcDbEntity
8
0
100
AcDbLine
10
-507.24423783197074
20
105.19999999999999
30
0
11
-507.24423783197074
21
120.7
31
0
0
LINE
5
257
100
AcDbEntity
8
0
100
AcDbLine
10
-535.24423783197085
20
67.25
30
0
11
-535.24423783197085
21
87.75
31
0
0
LINE
5
258
100
AcDbEntity
8
0
100
AcDbLine
10
-523.24423783197074
20
55
30
0
11
-523.24423783197074
21
75.5
31
0
0
LINE
5
259
100
AcDbEntity
8
0
100
AcDbLine
10
-555.24423783197074
20
55
30
0
11
-555.24423783197074
21
75.5
31
0
0
LINE
5
260
100
AcDbEntity
8
0
100
AcDbLine
10
-519.24423783197074
20
67.25
30
0
11
-519.24423783197074
21
87.75
31
0
0
LINE
5
261
100
AcDbEntity
8
0
100
AcDbLine
10
-559.24423783197074
20
42.749999999999993
30
0
11
-559.24423783197074
21
63.249999999999993
31
0
0
LINE
5
262
100
AcDbEntity
8
0
100
AcDbLine
10
-523.24423783197074
20
30.499999999999989
30
0
11
-523.24423783197074
21
51
31
0
0
LINE
5
263
100
AcDbEntity
8
0
100
AcDbLine
10
-508.16282522131394
20
4.0000000000000107
30
0
11
-508.16282522131394
21
9.9920072216264089e-15
31
3.3166827557983868e-45
0
LINE
5
264
100
AcDbEntity
8
0
100
AcDbLine
10
-527.24423783197085
20
42.749999999999993
30
0
11
-527.24423783197085
21
63.249999999999993
31
0
0
LINE
5
265
100
AcDbEntity
8
0
100
AcDbLine
10
-511.24423783197074
20
67.25
30
0
11
-511.24423783197074
21
87.75
31
0
0
LINE
5
266
100
AcDbEntity
8
0
100
AcDbLine
10
-543.24423783197074
20
67.25
30
0
11
-543.24423783197074
21
87.75
31
0
0
LINE
5
267
100
AcDbEntity
8
0
100
AcDbLine
10
-547.24423783197074
20
55
30
0
11
-547.24423783197074
21
75.5
31
0
0
LINE
5
268
100
AcDbEntity
8
0
100
AcDbLine
10
-531.24423783197085
20
30.499999999999993
30
0
11
-531.24423783197085
21
51
31
0
0
LINE
5
269
100
AcDbEntity
8
0
100
AcDbLine
10
-539.24423783197074
20
30.499999999999993
30
0
11
-539.24423783197074
21
51
31
0
0
LINE
5
270
100
AcDbEntity
8
0
100
AcDbLine
10
-555.24423783197074
20
30.499999999999993
30
0
11
-555.24423783197074
21
51
31
0
0
LINE
5
271
100
AcDbEntity
8
0
100
AcDbLine
10
-519.24423783197074
20
42.749999999999993
30
0
11
-519.24423783197074
21
63.249999999999993
31
0
0
LINE
5
272
100
AcDbEntity
8
0
100
AcDbLine
10
-507.24423783197074
20
30.499999999999986
30
0
11
-507.24423783197074
21
50.999999999999986
31
0
0
LINE
5
273
100
AcDbEntity
8
0
100
AcDbLine
10
-547.24423783197074
20
30.499999999999993
30
0
11
-547.24423783197074
21
51
31
0
0
LINE
5
274
100
AcDbEntity
8
0
100
AcDbLine
10
-535.24423783197085
20
42.749999999999993
30
0
11
-535.24423783197085
21
63.249999999999993
31
0
0
LINE
5
275
100
AcDbEntity
8
0
100
AcDbLine
10
-551.24423783197074
20
42.749999999999993
30
0
11
-551.24423783197074
21
63.249999999999993
31
0
0
LINE
5
276
100
AcDbEntity
8
0
100
AcDbLine
10
-515.24423783197085
20
30.499999999999989
30
0
11
-515.24423783197085
21
51
31
0
0
LINE
5
277
100
AcDbEntity
8
0
100
AcDbLine
10
-507.24423783197074
20
54.999999999999993
30
0
11
-507.24423783197074
21
75.499999999999986
31
0
0
LINE
5
278
100
AcDbEntity
8
0
100
AcDbLine
10
-543.24423783197074
20
42.749999999999993
30
0
11
-543.24423783197074
21
63.249999999999993
31
0
0
LINE
5
279
100
AcDbEntity
8
0
100
AcDbLine
10
-511.24423783197074
20
18.249999999999989
30
0
11
-511.24423783197074
21
38.749999999999993
31
0
0
LINE
5
280
100
AcDbEntity
8
0
100
AcDbLine
10
-507.24423783197074
20
5.9999999999999858
30
0
11
-507.24423783197074
21
26.499999999999986
31
0
0
LINE
5
281
100
AcDbEntity
8
0
100
AcDbLine
10
-511.24423783197074
20
2.9999999999999858
30
0
11
-511.24423783197074
21
14.249999999999988
31
0
0
LINE
5
282
100
AcDbEntity
8
0
100
AcDbLine
10
-424.82949188798051
20
1.0040228336100566e-14
30
0
11
-424.82949188798051
21
4.0000000000000107
31
0
0
LINE
5
283
100
AcDbEntity
8
0
100
AcDbLine
10
-559.24423783197074
20
116.25000000000001
30
0
11
-559.24423783197074
21
120.75000000000003
31
0
0
LINE
5
284
100
AcDbEntity
8
0
100
AcDbLine
10
-551.24423783197074
20
116.25000000000001
30
0
11
-551.24423783197074
21
120.75000000000003
31
0
0
LINE
5
285
100
AcDbEntity
8
0
100
AcDbLine
10
-508.16282522131394
20
1.0812524428833485e-14
30
0
11
-424.82949188798051
21
1.0812524428833485e-14
31
-1.9721522630525295e-30
0
LINE
5
286
100
AcDbEntity
8
0
100
AcDbLine
10
-424.82949188798051
20
1.0040228336100566e-14
30
0
11
-508.16282522131394
21
9.9920072216264089e-15
31
3.3166827557983868e-45
0
LINE
5
287
100
AcDbEntity
8
0
100
AcDbLine
10
-511.24423783197074
20
42.749999999999993
30
0
11
-511.24423783197074
21
63.249999999999993
31
0
0
LINE
5
288
100
AcDbEntity
8
0
100
AcDbLine
10
-511.24423783197074
20
116.25000000000001
30
0
11
-511.24423783197074
21
120.75000000000003
31
0
0
LINE
5
289
100
AcDbEntity
8
0
100
AcDbLine
10
-555.24423783197074
20
105.20000000000002
30
0
11
-555.24423783197074
21
120.70000000000002
31
0
0
LINE
5
290
100
AcDbEntity
8
0
100
AcDbLine
10
-185.00000204145903
20
103.50000180304049
30
0
11
-185.00000204145903
21
121.0000018030405
31
0
0
LINE
5
291
100
AcDbEntity
8
0
100
AcDbLine
10
-137.08141261065688
20
79.500000000000014
30
0
11
-137.08141261065688
21
100.00000000000001
31
0
0
LINE
5
292
100
AcDbEntity
8
0
100
AcDbLine
10
-165.08141261065688
20
91.75
30
0
11
-165.08141261065688
21
112.25000000000001
31
0
0
LINE
5
293
100
AcDbEntity
8
0
100
AcDbLine
10
-129.08141261065688
20
5.9999999999999858
30
0
11
-129.08141261065688
21
26.499999999999986
31
0
0
LINE
5
294
100
AcDbEntity
8
0
100
AcDbLine
10
-169.00000204145908
20
103.50000180304049
30
0
11
-169.00000204145908
21
121.0000018030405
31
0
0
LINE
5
295
100
AcDbEntity
8
0
100
AcDbLine
10
-129.08141261065688
20
104
30
0
11
-129.08141261065688
21
121.0000018030405
31
0
0
LINE
5
296
100
AcDbEntity
8
0
100
AcDbLine
10
-205.08141261065674
20
116.25000000000003
30
0
11
-205.00000210106356
21
121.00000180304052
31
0
0
LINE
5
297
100
AcDbEntity
8
0
100
AcDbLine
10
-129.08141261065688
20
54.999999999999993
30
0
11
-129.08141261065688
21
75.499999999999986
31
0
0
LINE
5
298
100
AcDbEntity
8
0
100
AcDbLine
10
-165.08141261065688
20
116.25000000000001
30
0
11
-165.00000210106373
21
121.0000018030405
31
0
0
LINE
5
299
100
AcDbEntity
8
0
100
AcDbLine
10
-157.08141261065691
20
116.25000000000001
30
0
11
-157.00000210106373
21
121.0000018030405
31
0
0
LINE
5
300
100
AcDbEntity
8
0
100
AcDbLine
10
-149.08141261065691
20
2.9999999999999885
30
0
11
-149.08141261065691
21
14.249999999999989
31
0
0
LINE
5
301
100
AcDbEntity
8
0
100
AcDbLine
10
-193.000002041459
20
103.50000180304049
30
0
11
-193.000002041459
21
121.0000018030405
31
0
0
LINE
5
302
100
AcDbEntity
8
0
100
AcDbLine
10
-181.08141261065683
20
91.75
30
0
11
-181.08141261065683
21
112.25000000000001
31
0
0
LINE
5
303
100
AcDbEntity
8
0
100
AcDbLine
10
-153.08141261065691
20
30.499999999999993
30
0
11
-153.08141261065691
21
51
31
0
0
LINE
5
304
100
AcDbEntity
8
0
100
AcDbLine
10
-145.08141261065691
20
5.9999999999999876
30
0
11
-145.08141261065691
21
26.499999999999989
31
0
0
LINE
5
305
100
AcDbEntity
8
0
100
AcDbLine
10
-177.00000204145906
20
103.50000180304049
30
0
11
-177.00000204145906
21
121.0000018030405
31
0
0
LINE
5
306
100
AcDbEntity
8
0
100
AcDbLine
10
-181.08141261065683
20
116.25000000000001
30
0
11
-181.00000210106367
21
121.0000018030405
31
0
0
LINE
5
307
100
AcDbEntity
8
0
100
AcDbLine
10
-129.08141261065688
20
30.499999999999986
30
0
11
-129.08141261065688
21
50.999999999999986
31
0
0
LINE
5
308
100
AcDbEntity
8
0
100
AcDbLine
10
-157.08141261065691
20
18.249999999999993
30
0
11
-157.08141261065691
21
38.749999999999993
31
0
0
LINE
5
309
100
AcDbEntity
8
0
100
AcDbLine
10
-161.00000204145911
20
103.50000180304049
30
0
11
-161.00000204145911
21
121.0000018030405
31
0
0
LINE
5
310
100
AcDbEntity
8
0
100
AcDbLine
10
-173.08141261065686
20
91.75
30
0
11
-173.08141261065686
21
112.25000000000001
31
0
0
LINE
5
311
100
AcDbEntity
8
0
100
AcDbLine
10
-173.08141261065686
20
116.25000000000001
30
0
11
-173.00000210106367
21
121.0000018030405
31
0
0
LINE
5
312
100
AcDbEntity
8
1
100
AcDbLine
10
-169.08141261065697
20
5.0201141680502872e-15
30
0
11
-169.08141261065694
21
119.99999999999999
31
0
0
LINE
5
313
100
AcDbEntity
8
0
100
AcDbLine
10
-189.0814126106568
20
116.25000000000003
30
0
11
-189.00000210106361
21
121.00000180304052
31
0
0
LINE
5
314
100
AcDbEntity
8
0
100
AcDbLine
10
-153.08141261065691
20
79.500000000000014
30
0
11
-153.08141261065691
21
100.00000000000001
31
0
0
LINE
5
315
100
AcDbEntity
8
0
100
AcDbLine
10
-197.08141261065677
20
116.25000000000003
30
0
11
-197.00000210106361
21
121.00000180304052
31
0
0
LINE
5
316
100
AcDbEntity
8
0
100
AcDbLine
10
-197.08141261065677
20
91.750000000000028
30
0
11
-197.08141261065677
21
112.25000000000003
31
0
0
LINE
5
317
100
AcDbEntity
8
0
100
AcDbLine
10
-189.0814126106568
20
91.750000000000028
30
0
11
-189.0814126106568
21
112.25000000000003
31
0
0
LINE
5
318
100
AcDbEntity
8
0
100
AcDbLine
10
-205.08141261065674
20
91.750000000000028
30
0
11
-205.08141261065674
21
112.25000000000003
31
0
0
LINE
5
319
100
AcDbEntity
8
0
100
AcDbLine
10
-201.00000204145897
20
103.50000180304049
30
0
11
-201.00000204145897
21
121.0000018030405
31
0
0
LINE
5
320
100
AcDbEntity
8
0
100
AcDbLine
10
-145.00000204145908
20
103.50000180304049
30
0
11
-145.00000204145908
21
121.0000018030405
31
0
0
LINE
5
321
100
AcDbEntity
8
0
100
AcDbLine
10
-153.00000204145908
20
103.50000180304049
30
0
11
-153.00000204145908
21
121.0000018030405
31
0
0
LINE
5
322
100
AcDbEntity
8
0
100
AcDbLine
10
-137.00000204145908
20
103.50000180304049
30
0
11
-137.00000204145908
21
121.0000018030405
31
0
0
LINE
5
323
100
AcDbEntity
8
0
100
AcDbLine
10
-141.08141261065691
20
116.25000000000001
30
0
11
-141.00000210106373
21
121.0000018030405
31
0
0
LINE
5
324
100
AcDbEntity
8
0
100
AcDbLine
10
-193.0814126106568
20
79.500000000000014
30
0
11
-193.0814126106568
21
100.00000000000001
31
0
0
LINE
5
325
100
AcDbEntity
8
0
100
AcDbLine
10
-133.08141261065688
20
116.25000000000001
30
0
11
-133.08141261065688
21
121.0000018030405
31
0
0
LINE
5
326
100
AcDbEntity
8
0
100
AcDbLine
10
-209.08141261065674
20
79.500000000000014
30
0
11
-209.08141261065674
21
100.00000000000001
31
0
0
LINE
5
327
100
AcDbEntity
8
0
100
AcDbLine
10
-149.08141261065691
20
116.25000000000001
30
0
11
-149.00000210106373
21
121.0000018030405
31
0
0
LINE
5
328
100
AcDbEntity
8
0
100
AcDbLine
10
-161.08141261065691
20
79.500000000000014
30
0
11
-161.08141261065691
21
100.00000000000001
31
0
0
LINE
5
329
100
AcDbEntity
8
0
100
AcDbLine
10
-185.0814126106568
20
79.500000000000014
30
0
11
-185.0814126106568
21
100.00000000000001
31
0
0
LINE
5
330
100
AcDbEntity
8
0
100
AcDbLine
10
-679.32565044262776
20
105.90000000000001
30
0
11
-673.22565044262774
21
105.90000000000001
31
0
0
LINE
5
331
100
AcDbEntity
8
0
100
AcDbLine
10
-575.24423783197062
20
116.25000000000003
30
0
11
-575.24423783197062
21
120.75000000000004
31
0
0
LINE
5
332
100
AcDbEntity
8
0
100
AcDbLine
10
-563.24423783197074
20
79.500000000000014
30
0
11
-563.24423783197074
21
100.00000000000001
31
0
0
LINE
5
333
100
AcDbEntity
8
0
100
AcDbLine
10
-571.24423783197062
20
105.20000000000002
30
0
11
-571.24423783197062
21
120.70000000000002
31
0
0
LINE
5
334
100
AcDbEntity
8
0
100
AcDbLine
10
-567.24423783197062
20
116.25000000000003
30
0
11
-567.24423783197062
21
120.75000000000004
31
0
0
LINE
5
335
100
AcDbEntity
8
0
100
AcDbLine
10
-587.24423783197062
20
105.20000000000002
30
0
11
-587.24423783197062
21
120.70000000000002
31
0
0
LINE
5
336
100
AcDbEntity
8
0
100
AcDbLine
10
-563.24423783197074
20
105.20000000000002
30
0
11
-563.24423783197074
21
120.70000000000002
31
0
0
LINE
5
337
100
AcDbEntity
8
0
100
AcDbLine
10
-579.24423783197062
20
105.20000000000002
30
0
11
-579.24423783197062
21
120.70000000000002
31
0
0
LINE
5
338
100
AcDbEntity
8
0
100
AcDbLine
10
-583.24423783197062
20
116.25000000000003
30
0
11
-583.24423783197062
21
120.75000000000004
31
0
0
LINE
5
339
100
AcDbEntity
8
0
100
AcDbLine
10
-679.32565044262776
20
118.10000000000001
30
0
11
-679.32565044262776
21
120
31
0
0
LINE
5
340
100
AcDbEntity
8
0
100
AcDbLine
10
-567.24423783197062
20
91.750000000000028
30
0
11
-567.24423783197062
21
112.25000000000003
31
0
0
LINE
5
341
100
AcDbEntity
8
0
100
AcDbLine
10
-575.24423783197062
20
91.750000000000028
30
0
11
-575.24423783197062
21
112.25000000000003
31
0
0
LINE
5
342
100
AcDbEntity
8
0
100
AcDbLine
10
-587.24423783197062
20
79.500000000000014
30
0
11
-587.24423783197062
21
100.00000000000001
31
0
0
LINE
5
343
100
AcDbEntity
8
0
100
AcDbLine
10
-571.24423783197062
20
79.500000000000014
30
0
11
-571.24423783197062
21
100.00000000000001
31
0
0
LINE
5
344
100
AcDbEntity
8
0
100
AcDbLine
10
-679.32565044262776
20
94.099999999999994
30
0
11
-679.32565044262776
21
105.90000000000001
31
0
0
LINE
5
345
100
AcDbEntity
8
0
100
AcDbLine
10
-579.24423783197062
20
79.500000000000014
30
0
11
-579.24423783197062
21
100.00000000000001
31
0
0
LINE
5
346
100
AcDbEntity
8
0
100
AcDbLine
10
-583.24423783197062
20
91.750000000000028
30
0
11
-583.24423783197062
21
112.25000000000003
31
0
0
LWPOLYLINE
5
347
100
AcDbEntity
8
0
100
AcDbPolyline
90
4
70
1
43
0.0
10
-608.32565044267176
20
100
10
-656.3256504426721
20
100
10
-656.3256504426721
20
104
10
-608.32565044267176
20
104
0
LINE
5
348
100
AcDbEntity
8
0
100
AcDbLine
10
-586.32565044262765
20
2.0137100704069782e-14
30
0
11
-606.32565044262765
21
1.9984014443252818e-14
31
0
0
LINE
5
349
100
AcDbEntity
8
0
100
AcDbLine
10
-673.22565044262774
20
105.90000000000001
30
0
11
-673.22565044262774
21
118.10000000000001
31
0
0
LINE
5
350
100
AcDbEntity
8
0
100
AcDbLine
10
-575.24423783197062
20
18.249999999999996
30
0
11
-575.24423783197062
21
38.75
31
0
0
LINE
5
351
100
AcDbEntity
8
0
100
AcDbLine
10
-673.22565044262774
20
118.10000000000001
30
0
11
-679.32565044262776
21
118.10000000000001
31
0
0
LINE
5
352
100
AcDbEntity
8
0
100
AcDbLine
10
-586.32565044262765
20
4.0000000000000204
30
0
11
-586.32565044262765
21
2.0137100704069782e-14
31
0
0
LINE
5
353
100
AcDbEntity
8
0
100
AcDbLine
10
-571.24423783197062
20
30.499999999999993
30
0
11
-571.24423783197062
21
51
31
0
0
LINE
5
354
100
AcDbEntity
8
0
100
AcDbLine
10
-567.24423783197062
20
18.249999999999996
30
0
11
-567.24423783197062
21
38.75
31
0
0
LINE
5
355
100
AcDbEntity
8
0
100
AcDbLine
10
-587.24423783197062
20
5.9999999999999964
30
0
11
-587.24423783197062
21
26.5
31
0
0
LINE
5
356
100
AcDbEntity
8
0
100
AcDbLine
10
-579.24423783197062
20
55
30
0
11
-579.24423783197062
21
75.5
31
0
0
LINE
5
357
100
AcDbEntity
8
0
100
AcDbLine
10
-579.24423783197062
20
30.5
30
0
11
-579.24423783197062
21
51
31
0
0
LINE
5
358
100
AcDbEntity
8
0
100
AcDbLine
10
-583.24423783197062
20
2.999999999999996
30
0
11
-583.24423783197062
21
14.249999999999998
31
0
0
LINE
5
359
100
AcDbEntity
8
0
100
AcDbLine
10
-587.24423783197062
20
55
30
0
11
-587.24423783197062
21
75.5
31
0
0
LINE
5
360
100
AcDbEntity
8
0
100
AcDbLine
10
-575.24423783197062
20
2.9999999999999947
30
0
11
-575.24423783197062
21
14.249999999999996
31
0
0
LINE
5
361
100
AcDbEntity
8
0
100
AcDbLine
10
-575.24423783197062
20
67.250000000000014
30
0
11
-575.24423783197062
21
87.750000000000028
31
0
0
LINE
5
362
100
AcDbEntity
8
0
100
AcDbLine
10
-583.24423783197062
20
42.75
30
0
11
-583.24423783197062
21
63.250000000000014
31
0
0
LINE
5
363
100
AcDbEntity
8
0
100
AcDbLine
10
-508.16282522131394
20
120
30
0
11
-208.16282522131388
21
119.99999999999999
31
0
0
LINE
5
364
100
AcDbEntity
8
0
100
AcDbLine
10
-673.22565044262774
20
81.899999999999991
30
0
11
-673.22565044262774
21
94.099999999999994
31
0
0
LINE
5
365
100
AcDbEntity
8
0
100
AcDbLine
10
-679.32565044262776
20
70.099999999999994
30
0
11
-679.32565044262776
21
81.899999999999991
31
0
0
LINE
5
366
100
AcDbEntity
8
0
100
AcDbLine
10
-679.32565044262776
20
9.9000000000000004
30
0
11
-673.22565044262774
21
9.9000000000000004
31
0
0
LINE
5
367
100
AcDbEntity
8
0
100
AcDbLine
10
-673.22565044262774
20
94.099999999999994
30
0
11
-679.32565044262776
21
94.099999999999994
31
0
0
LINE
5
368
100
AcDbEntity
8
0
100
AcDbLine
10
-679.32565044262776
20
33.899999999999999
30
0
11
-673.22565044262774
21
33.899999999999999
31
0
0
LINE
5
369
100
AcDbEntity
8
0
100
AcDbLine
10
-673.22565044262774
20
9.9000000000000004
30
0
11
-673.22565044262774
21
22.100000000000001
31
0
0
LINE
5
370
100
AcDbEntity
8
0
100
AcDbLine
10
-679.32565044262776
20
22.100000000000001
30
0
11
-679.32565044262776
21
33.899999999999999
31
0
0
LINE
5
371
100
AcDbEntity
8
0
100
AcDbLine
10
-673.22565044262774
20
22.100000000000001
30
0
11
-679.32565044262776
21
22.100000000000001
31
0
0
LINE
5
372
100
AcDbEntity
8
0
100
AcDbLine
10
-679.32565044262776
20
81.899999999999991
30
0
11
-673.22565044262774
21
81.899999999999991
31
0
0
LINE
5
373
100
AcDbEntity
8
0
100
AcDbLine
10
-679.32565044262776
20
4
30
2.039326231911283e-14
11
-679.32565044262776
21
9.9000000000000004
31
0
0
LINE
5
374
100
AcDbEntity
8
0
100
AcDbLine
10
-679.32565044262776
20
57.899999999999991
30
0
11
-673.22565044262774
21
57.899999999999991
31
0
0
LINE
5
375
100
AcDbEntity
8
0
100
AcDbLine
10
-673.22565044262774
20
57.899999999999991
30
0
11
-673.22565044262774
21
70.099999999999994
31
0
0
LINE
5
376
100
AcDbEntity
8
0
100
AcDbLine
10
-673.22565044262774
20
70.099999999999994
30
0
11
-679.32565044262776
21
70.099999999999994
31
0
0
LINE
5
377
100
AcDbEntity
8
0
100
AcDbLine
10
-642.32565044262765
20
2.0137100704069782e-14
30
0
11
-642.32565044262765
21
4.0000000000000204
31
0
0
LINE
5
378
100
AcDbEntity
8
0
100
AcDbLine
10
-606.32565044262765
20
4.0000000000000204
30
0
11
-606.32565044262765
21
1.9984014443252818e-14
31
0
0
LINE
5
379
100
AcDbEntity
8
0
100
AcDbLine
10
-679.32565044262765
20
4.0000000000000204
30
0
11
-671.32565044262776
21
4.0000000000000204
31
9.8607613152626476e-31
0
LINE
5
380
100
AcDbEntity
8
0
100
AcDbLine
10
-671.32565044262776
20
4.0000000000000204
30
9.8607613152626476e-31
11
-671.32565044262776
21
1.9984014443252818e-14
31
0
0
LINE
5
381
100
AcDbEntity
8
0
100
AcDbLine
10
-673.22565044262774
20
46.099999999999994
30
0
11
-679.32565044262776
21
46.099999999999994
31
0
0
LINE
5
382
100
AcDbEntity
8
0
100
AcDbLine
10
-673.22565044262774
20
33.899999999999999
30
0
11
-673.22565044262774
21
46.099999999999994
31
0
0
LINE
5
383
100
AcDbEntity
8
0
100
AcDbLine
10
-642.32565044262765
20
2.0137100704069782e-14
30
0
11
-671.32565044262776
21
1.9984014443252818e-14
31
0
0
LINE
5
384
100
AcDbEntity
8
0
100
AcDbLine
10
-679.32565044262776
20
46.099999999999994
30
0
11
-679.32565044262776
21
57.899999999999991
31
0
0
LINE
5
385
100
AcDbEntity
8
0
100
AcDbLine
10
-642.32565044262765
20
4.0000000000000204
30
0
11
-606.32565044262765
21
4.0000000000000204
31
0
0
ENDSEC
0
SECTION
2
OBJECTS
0
DICTIONARY
5
C
100
AcDbDictionary
3
ACAD_GROUP
350
D
3
ACAD_MLINESTYLE
350
17
0
DICTIONARY
5
D
100
AcDbDictionary
0
DICTIONARY
5
1A
330
C
100
AcDbDictionary
0
DICTIONARY
5
17
100
AcDbDictionary
0
ENDSEC
0
EOF
